<svg width="330" height="240" viewBox="0 0 330 240" fill="none" xmlns="http://www.w3.org/2000/svg">
<path d="M65.4984 192.029C74.6328 186.59 75.8142 177.451 74.5206 169.378C74.3028 168.029 74.349 166.594 73.3194 165.461C72.2898 164.328 70.1118 163.642 68.4882 164.314C67.1682 164.87 66.6666 166.075 65.9934 167.088C65.0883 168.449 63.6748 169.596 61.9146 170.4C60.7662 170.918 59.3142 171.278 58.0734 170.88C56.3772 170.333 56.0076 168.734 55.869 167.39C55.605 164.885 55.3454 162.378 55.0902 159.869C55.0468 158.518 54.7035 157.18 54.0738 155.909C53.3478 154.67 51.9288 153.562 50.1138 153.312C48.2988 153.062 46.1538 153.926 45.9426 155.266C45.9341 155.827 45.9782 156.388 46.0746 156.946C46.1121 157.224 46.0372 157.505 45.859 157.753C45.6809 158.001 45.4072 158.206 45.0714 158.342C44.3454 158.544 43.5534 158.208 42.9462 157.862C40.8606 156.624 39.3492 154.954 37.9302 153.288C36.5112 151.622 35.1186 149.928 33.198 148.536C31.2774 147.144 28.7166 146.136 26.0238 146.184C23.331 146.232 20.6052 147.6 20.1432 149.544C19.6812 151.488 21.4302 153.312 23.2782 154.742C26.0306 156.855 29.187 158.669 32.6502 160.128C33.3139 160.343 33.8663 160.706 34.2276 161.165C34.7358 162.038 33.6534 162.998 32.4588 163.368C31.0992 163.786 29.568 163.771 28.1226 163.982C26.6772 164.194 25.146 164.75 24.7038 165.773C24.0966 167.213 25.8588 168.538 27.5352 169.387C30.9136 171.089 34.6653 172.359 38.6298 173.146C40.0488 173.424 41.5338 173.654 42.7218 174.283C43.9098 174.912 44.7018 176.078 44.154 177.067C43.6062 178.056 41.9034 178.459 40.4382 178.354C38.973 178.248 37.62 177.763 36.201 177.475C33.561 176.933 30.261 177.259 28.7694 178.954C28.3283 179.531 28.08 180.176 28.0445 180.837C28.0089 181.497 28.1872 182.154 28.5648 182.755C29.3331 183.951 30.4239 185.021 31.7724 185.904C36.2648 189.185 41.8709 191.543 48.0216 192.739C54.1596 193.867 59.7366 193.939 65.4984 192.029Z" fill="#EBEBEB"/>
<path d="M66.297 198.024C65.3483 194.301 63.9049 190.653 61.9872 187.133C59.6175 182.833 56.9047 178.637 53.8626 174.566L51.48 171.36C50.7012 170.304 49.929 169.258 49.0842 168.269C47.4652 166.373 45.7025 164.545 43.8042 162.792C42.0024 161.107 40.2006 159.552 38.5242 158.112C36.8478 156.672 35.2242 155.352 33.66 154.19C31.226 152.354 28.5978 150.659 25.7994 149.122C24.8094 148.574 24.0174 148.162 23.4828 147.902L22.869 147.595C22.7989 147.56 22.7262 147.528 22.6512 147.499C22.6512 147.499 22.7172 147.542 22.8492 147.614L23.4498 147.936C23.9778 148.214 24.7698 148.627 25.7334 149.184C28.4998 150.742 31.1009 152.449 33.5148 154.291C35.0526 155.453 36.663 156.778 38.3526 158.222C40.0422 159.667 41.8242 161.222 43.6326 162.907C45.5302 164.657 47.2929 166.482 48.9126 168.374C49.7508 169.358 50.5164 170.4 51.2952 171.456L53.658 174.667C56.6748 178.732 59.3762 182.916 61.7496 187.2C63.6696 190.708 65.1281 194.34 66.1056 198.048" fill="#E0E0E0"/>
<path d="M49.0314 168.245C49.0933 168.053 49.1287 167.856 49.137 167.659C49.1898 167.285 49.2426 166.733 49.2954 166.056C49.4076 164.702 49.4736 162.83 49.5396 160.776C49.6056 158.722 49.7112 156.84 49.863 155.496C49.929 154.819 50.0016 154.277 50.0544 153.898C50.0928 153.704 50.1105 153.508 50.1072 153.312C50.0256 153.499 49.9703 153.692 49.9422 153.888C49.8564 154.262 49.7574 154.81 49.665 155.482C49.4604 156.835 49.3218 158.707 49.2558 160.762C49.1898 162.816 49.1436 164.664 49.104 166.042C49.071 166.69 49.0512 167.232 49.0314 167.645C49.0048 167.844 49.0048 168.045 49.0314 168.245Z" fill="#E0E0E0"/>
<path d="M24.5916 166.459H24.8424H25.5618C26.1822 166.459 27.0798 166.459 28.2018 166.483C30.426 166.517 33.4818 166.642 36.8808 166.896C40.2798 167.15 43.3026 167.477 45.4938 167.76C46.5894 167.899 47.4738 168.024 48.0876 168.11L48.7872 168.211C48.9522 168.211 49.038 168.24 49.038 168.211C48.9637 168.183 48.8834 168.163 48.8004 168.154L48.1074 168.014C47.5068 167.904 46.6224 167.755 45.5268 167.602C43.3422 167.28 40.293 166.93 36.9072 166.67C33.5214 166.411 30.4392 166.315 28.2018 166.32C27.0864 166.32 26.2218 166.32 25.5618 166.363L24.849 166.397C24.7592 166.408 24.6723 166.429 24.5916 166.459Z" fill="#E0E0E0"/>
<path d="M61.6836 186.826C61.7355 186.753 61.7796 186.678 61.8156 186.6C61.908 186.432 62.0136 186.216 62.1522 185.952C62.4426 185.386 62.8122 184.555 63.3006 183.552C64.2312 181.502 65.3994 178.642 66.6402 175.469C67.881 172.296 69.0096 169.435 69.894 167.376C70.3362 166.368 70.6926 165.542 70.9566 164.938C71.0754 164.669 71.1678 164.458 71.2404 164.275C71.2809 164.199 71.3097 164.121 71.3262 164.04C71.2673 164.109 71.2208 164.183 71.1876 164.261C71.1018 164.434 70.9896 164.65 70.851 164.914C70.5606 165.48 70.191 166.306 69.7092 167.314C68.772 169.363 67.6038 172.224 66.3696 175.397C65.1354 178.57 64.02 181.44 63.1092 183.49C62.6736 184.498 62.3106 185.323 62.0532 185.923C61.9344 186.197 61.842 186.403 61.7628 186.59C61.7259 186.667 61.6994 186.746 61.6836 186.826Z" fill="#E0E0E0"/>
<path d="M28.8552 181.339C28.9574 181.375 29.0664 181.399 29.1786 181.411L30.1356 181.574L33.66 182.16C36.63 182.64 40.722 183.374 45.243 184.181C49.764 184.987 53.8626 185.688 56.8458 186.149C58.3374 186.379 59.5452 186.557 60.3834 186.667L61.347 186.792C61.4598 186.811 61.5746 186.822 61.6902 186.826C61.5853 186.791 61.4743 186.766 61.3602 186.754L60.4032 186.59L56.8854 186.005C53.9154 185.525 49.8234 184.79 45.309 183.984C40.7946 183.178 36.6894 182.477 33.7062 182.016C32.2146 181.786 31.0068 181.608 30.1686 181.498L29.1984 181.368C29.0853 181.352 28.9705 181.342 28.8552 181.339Z" fill="#E0E0E0"/>
<path d="M152.202 54.8707L104.484 65.3088L114.158 88.7009L161.877 78.2627L152.202 54.8707Z" fill="white"/>
<path d="M161.885 78.24C161.885 78.24 161.812 78.0912 161.693 77.8128C161.575 77.5344 161.396 77.112 161.165 76.5744C160.71 75.4896 160.037 73.9008 159.185 71.8752C157.483 67.8096 155.047 61.9776 152.077 54.8784L152.249 54.9456L104.544 65.424L104.663 65.2656L114.325 88.6608L114.127 88.584L148.5 81.12L158.341 79.0032L160.981 78.4416L161.641 78.2976L161.878 78.2544L161.667 78.3072L161.007 78.4608L158.42 79.0368L148.639 81.2112L114.213 88.8L114.061 88.8336L114.015 88.7232C111.065 81.5952 107.778 73.6704 104.326 65.3328L104.28 65.2128L104.438 65.1792L152.163 54.7632L152.295 54.7344L152.335 54.8304C155.258 61.968 157.654 67.8288 159.331 71.9136C160.149 73.9392 160.796 75.5232 161.231 76.6128C161.449 77.1408 161.608 77.5488 161.726 77.8368C161.845 78.1248 161.885 78.24 161.885 78.24Z" fill="#E0E0E0"/>
<path d="M152.209 54.864C152.192 54.9006 152.17 54.9359 152.143 54.9696L151.919 55.2672C151.701 55.5408 151.404 55.92 151.034 56.4L147.701 60.5616L136.521 74.352L136.442 74.4432L136.31 74.4048L134.851 73.9968L113.355 67.896L106.854 66.024L105.098 65.5008L104.643 65.3616C104.589 65.3484 104.537 65.3289 104.491 65.304C104.549 65.3076 104.605 65.319 104.656 65.3376L105.118 65.4528L106.907 65.9328L113.441 67.7328L134.97 73.7616L136.435 74.1744L136.224 74.2272C140.646 68.8272 144.619 63.9888 147.497 60.4704L150.922 56.352C151.318 55.872 151.635 55.512 151.859 55.2384L152.117 54.9552C152.17 54.8928 152.203 54.8592 152.209 54.864Z" fill="#E0E0E0"/>
<path d="M291.06 148.32C291.06 148.32 287.965 146.093 281.932 151.656C278.77 154.472 275.866 157.437 273.24 160.531C273.24 160.531 271.735 161.664 270.745 160.637C269.755 159.61 268.732 156.96 266.528 157.094C264.323 157.229 263.056 158.88 262.759 161.515C262.462 164.15 261.532 169.915 261.439 170.434C261.347 170.952 260.779 171.629 259.928 171.01C259.076 170.39 254.793 165.12 251.46 166.742C248.127 168.365 248.972 175.824 249.044 176.635C249.117 177.446 248.813 177.754 248.259 177.869C247.705 177.984 246.484 176.112 245.17 174.648C243.857 173.184 241.989 171.643 240.181 172.704C238.372 173.765 236.452 178.982 241.019 188.568L243.533 192.888L249.968 193.555C263.875 194.366 270.343 191.712 271.3 190.171C272.257 188.63 269.749 187.699 267.465 187.142C265.181 186.586 262.383 186.182 262.403 185.774C262.423 185.366 262.746 185.069 263.848 184.915C264.95 184.762 275.068 183.475 276.388 180.734C277.708 177.994 269.623 176.275 268.587 175.843C267.551 175.411 268.316 174.821 268.976 174.634C269.636 174.446 277.081 172.339 280.52 171.475C283.958 170.611 285.853 169.354 285.463 167.712C285.074 166.07 281.305 166.075 279.688 165.629C278.071 165.182 279.206 163.848 279.206 163.848C282.683 161.231 285.918 158.449 288.889 155.52C294.782 149.875 290.941 148.229 290.941 148.229" fill="#EBEBEB"/>
<path d="M285.622 153.274C285.592 153.316 285.557 153.356 285.516 153.394L285.179 153.739C284.863 154.046 284.42 154.483 283.859 155.04C282.704 156.168 281.021 157.79 278.923 159.787C274.732 163.781 268.871 169.262 262.363 175.291L245.718 190.752L240.695 195.451L239.323 196.723L238.96 197.05C238.874 197.122 238.834 197.16 238.828 197.155C238.857 197.113 238.893 197.073 238.933 197.035L239.27 196.694L240.59 195.389C241.738 194.261 243.428 192.638 245.52 190.642C249.711 186.648 255.578 181.166 262.093 175.138C268.607 169.109 274.461 163.646 278.731 159.677C280.837 157.704 282.553 156.106 283.754 154.982C284.335 154.44 284.797 154.022 285.12 153.706L285.49 153.379C285.569 153.307 285.615 153.269 285.622 153.274Z" fill="#E0E0E0"/>
<path d="M267.755 160.843C267.899 161.255 267.981 161.676 268 162.101C268.099 162.878 268.184 163.958 268.244 165.154C268.303 166.349 268.33 167.338 268.363 168.206C268.411 168.628 268.411 169.052 268.363 169.474C268.22 169.062 268.14 168.64 268.125 168.216C268.039 167.434 267.967 166.354 267.907 165.163C267.848 163.973 267.808 162.979 267.762 162.11C267.709 161.689 267.707 161.265 267.755 160.843Z" fill="#E0E0E0"/>
<path d="M268.917 169.642C271.175 169.376 273.451 169.195 275.735 169.099C279.503 168.874 282.572 168.744 282.579 168.811C280.32 169.074 278.045 169.253 275.761 169.349C271.993 169.579 268.93 169.709 268.917 169.642Z" fill="#E0E0E0"/>
<path d="M257.968 178.896C258.56 178.929 259.147 178.998 259.723 179.102C260.806 179.251 262.291 179.458 263.941 179.65C265.591 179.842 267.089 179.986 268.178 180.086C268.772 180.121 269.361 180.19 269.94 180.293C269.346 180.33 268.749 180.32 268.158 180.264C267.056 180.206 265.518 180.091 263.888 179.894C262.258 179.698 260.74 179.467 259.67 179.275C259.086 179.193 258.515 179.066 257.968 178.896Z" fill="#E0E0E0"/>
<path d="M254.509 171.11C254.783 171.458 255.004 171.827 255.169 172.21C255.519 172.906 255.988 173.866 256.489 174.931C256.991 175.997 257.413 176.966 257.71 177.677C257.896 178.052 258.033 178.439 258.119 178.834C257.841 178.485 257.62 178.115 257.459 177.73C257.103 177.038 256.641 176.078 256.139 175.013C255.638 173.947 255.215 172.973 254.918 172.267C254.725 171.894 254.587 171.506 254.509 171.11Z" fill="#E0E0E0"/>
<path d="M243.415 178.387C243.732 178.844 244.002 179.317 244.22 179.803C244.675 180.691 245.282 181.92 245.936 183.283C246.589 184.646 247.157 185.885 247.559 186.782C247.808 187.263 248 187.757 248.134 188.261C247.81 187.798 247.541 187.316 247.328 186.821C246.873 185.938 246.266 184.709 245.612 183.346C244.959 181.982 244.385 180.744 243.989 179.842C243.742 179.369 243.55 178.883 243.415 178.387Z" fill="#E0E0E0"/>
<path d="M248.114 188.002C248.866 188.033 249.613 188.103 250.351 188.213C251.724 188.371 253.651 188.587 255.73 188.789C257.809 188.99 259.743 189.144 261.122 189.269C261.874 189.305 262.621 189.377 263.36 189.485C262.607 189.518 261.852 189.505 261.103 189.446C259.71 189.379 257.803 189.254 255.684 189.048C253.565 188.842 251.671 188.602 250.305 188.405C249.561 188.314 248.828 188.179 248.114 188.002Z" fill="#E0E0E0"/>
<path d="M261.927 101.094L260.364 138.32L297.768 139.151L299.332 101.925L261.927 101.094Z" fill="#F5F5F5"/>
<path d="M255.041 106.043L253.477 143.268L290.882 144.1L292.446 106.874L255.041 106.043Z" fill="white"/>
<path d="M290.875 144.091C290.871 144.03 290.871 143.97 290.875 143.909C290.875 143.784 290.875 143.611 290.875 143.386C290.875 142.906 290.908 142.234 290.941 141.35C291.007 139.57 291.1 136.982 291.218 133.704C291.476 127.152 291.839 117.864 292.268 106.867L292.42 106.982L255.017 106.162L255.196 106.042C254.595 119.962 254.047 132.821 253.598 143.266L253.46 143.16L280.625 143.818L288.182 144.01L290.162 144.067L290.855 144.091H290.195L288.215 144.058L280.691 143.918L253.44 143.366H253.301V143.266C253.73 132.816 254.258 119.942 254.833 106.037V105.912H255.011L292.406 106.757H292.565V106.872C292.07 117.912 291.654 127.214 291.357 133.781C291.205 137.045 291.08 139.627 291.001 141.398C290.954 142.272 290.921 142.944 290.895 143.41C290.895 143.63 290.895 143.803 290.862 143.923C290.829 144.043 290.875 144.091 290.875 144.091Z" fill="#E0E0E0"/>
<path d="M277.86 114.653C277.86 114.725 273.788 114.686 268.772 114.576C263.756 114.466 259.684 114.317 259.684 114.25C259.684 114.182 263.762 114.216 268.778 114.326C273.794 114.437 277.86 114.586 277.86 114.653Z" fill="#E0E0E0"/>
<path d="M287.522 118.109C287.522 118.176 281.252 118.109 273.517 117.922C265.782 117.734 259.512 117.552 259.519 117.485C259.525 117.418 265.789 117.485 273.53 117.672C281.272 117.859 287.529 118.037 287.522 118.109Z" fill="#E0E0E0"/>
<path d="M287.384 121.483C287.384 121.55 281.107 121.483 273.372 121.296C265.637 121.109 259.373 120.926 259.373 120.859C259.373 120.792 265.65 120.859 273.385 121.046C281.12 121.234 287.384 121.411 287.384 121.483Z" fill="#E0E0E0"/>
<path d="M287.239 124.858C287.239 124.925 280.969 124.858 273.233 124.67C265.498 124.483 259.235 124.301 259.235 124.234C259.235 124.166 265.511 124.234 273.247 124.421C280.982 124.608 287.245 124.8 287.239 124.858Z" fill="#E0E0E0"/>
<path d="M287.1 128.232C287.1 128.299 280.823 128.232 273.095 128.045C265.366 127.858 259.09 127.675 259.09 127.608C259.09 127.541 265.366 127.608 273.101 127.795C280.837 127.982 287.1 128.16 287.1 128.232Z" fill="#E0E0E0"/>
<path d="M286.961 131.606C286.961 131.674 280.685 131.606 272.95 131.419C265.214 131.232 258.951 131.05 258.951 130.982C258.951 130.915 265.228 130.982 272.963 131.17C280.698 131.357 286.961 131.52 286.961 131.606Z" fill="#E0E0E0"/>
<path d="M286.816 134.981C286.816 135.048 280.54 134.981 272.811 134.794C265.082 134.606 258.806 134.424 258.812 134.357C258.819 134.29 265.082 134.357 272.818 134.544C280.553 134.731 286.823 134.909 286.816 134.981Z" fill="#E0E0E0"/>
<path d="M273.722 138.067C273.722 138.134 270.349 138.115 266.191 138.024C262.033 137.933 258.667 137.798 258.667 137.731C258.667 137.664 262.04 137.683 266.198 137.774C270.356 137.866 273.722 137.995 273.722 138.067Z" fill="#E0E0E0"/>
<path d="M180.083 71.9839L168.379 93.3629L205.146 104.009L216.85 82.6302L180.083 71.9839Z" fill="white"/>
<path d="M216.843 82.632L216.665 82.584L216.15 82.44L214.17 81.864L206.626 79.68L180.055 72L180.134 71.976L168.439 93.3504L168.399 93.2832L205.161 103.939H205.088C208.626 97.4976 211.563 92.16 213.609 88.4304C214.639 86.568 215.444 85.104 215.992 84.1104L216.652 82.9728L216.869 82.5792L216.665 82.968C216.526 83.2272 216.322 83.6064 216.051 84.1008C215.51 85.0992 214.731 86.5632 213.701 88.4208C211.662 92.1552 208.738 97.5072 205.22 103.963V104.002H205.168L168.353 93.408H168.287V93.36C172.517 85.6416 176.51 78.3456 179.995 71.9856V71.9424H180.048L206.686 79.68L214.19 81.8688L216.17 82.4448L216.678 82.5936L216.843 82.632Z" fill="#E0E0E0"/>
<path d="M180.586 73.7206L170.357 92.406L204.542 102.305L214.771 83.6194L180.586 73.7206Z" fill="#EBEBEB"/>
<path d="M170.491 92.4624L188.793 84.3024L192.212 93.7104L199.353 91.2816L204.679 102.36L170.491 92.4624Z" fill="#E0E0E0"/>
<path d="M200.105 85.92C199.893 86.3073 199.528 86.6402 199.056 86.8766C198.584 87.1129 198.026 87.2421 197.453 87.2478C196.88 87.2534 196.317 87.1353 195.836 86.9084C195.355 86.6815 194.978 86.3559 194.751 85.9729C194.525 85.5899 194.46 85.1667 194.564 84.7567C194.669 84.3468 194.938 83.9687 195.338 83.6701C195.738 83.3716 196.251 83.166 196.812 83.0795C197.373 82.9929 197.956 83.0293 198.488 83.184C198.842 83.286 199.164 83.4379 199.437 83.6307C199.71 83.8236 199.928 84.0537 200.078 84.3079C200.228 84.562 200.308 84.8353 200.313 85.1119C200.317 85.3886 200.247 85.6632 200.105 85.92Z" fill="#E0E0E0"/>
<path d="M85.437 115.613C85.6854 115.687 85.9544 115.719 86.2224 115.704C86.5436 115.677 86.8421 115.57 87.0672 115.402C87.3283 115.139 87.5601 114.861 87.7602 114.571L92.0436 109.138L93.4692 107.342L94.2282 106.382C94.3603 106.229 94.4751 106.069 94.5714 105.902C94.6408 105.737 94.6408 105.559 94.5714 105.394C94.512 105.223 94.3804 105.07 94.1952 104.957C93.9837 104.848 93.7633 104.749 93.5352 104.659L92.0634 104.064L89.001 102.816L75.3654 97.2528C75.0964 97.1482 74.7836 97.1197 74.4875 97.1729C74.1913 97.2261 73.9327 97.3571 73.7616 97.5408L72.7386 98.8176C72.0786 99.6624 71.4186 100.502 70.7586 101.323L66.9306 106.08C66.7788 106.267 66.627 106.454 66.4818 106.642C66.3347 106.804 66.2588 106.995 66.264 107.189C66.2744 107.378 66.3694 107.56 66.5346 107.707C66.7221 107.848 66.9465 107.961 67.1946 108.038L70.0788 109.229L75.24 111.36L82.7112 114.466L84.7374 115.32L85.2588 115.546C85.3776 115.598 85.437 115.627 85.4304 115.632L85.2456 115.57L84.7044 115.363L82.6518 114.547L75.1212 111.514L69.96 109.387L67.0692 108.211C66.7891 108.121 66.5358 107.992 66.3234 107.832C66.1172 107.647 65.9991 107.418 65.9868 107.179C65.9727 106.942 66.0603 106.707 66.2376 106.507C66.3828 106.32 66.5346 106.133 66.6864 105.946L70.4682 101.198L72.4482 98.6928L73.4844 97.4016C73.7029 97.1661 74.0337 96.9979 74.4129 96.9296C74.7921 96.8613 75.1927 96.8978 75.537 97.032L89.1594 102.614L92.2218 103.872L93.6804 104.477C93.9323 104.57 94.1749 104.676 94.4064 104.794C94.6365 104.936 94.8002 105.128 94.875 105.341C94.9543 105.545 94.9543 105.761 94.875 105.965C94.7698 106.146 94.644 106.322 94.4988 106.488L93.7266 107.448L92.2878 109.238C90.4464 111.504 88.9548 113.342 87.912 114.634C87.6955 114.924 87.4483 115.202 87.1728 115.464C86.9271 115.639 86.6049 115.746 86.262 115.766C86.0546 115.778 85.8466 115.753 85.6548 115.694C85.5774 115.675 85.5041 115.647 85.437 115.613Z" fill="#E0E0E0"/>
<path d="M81.9522 105.773L83.6154 107.918L80.1834 107.966L76.7514 108.01L78.5202 105.816L80.289 103.622L81.9522 105.773Z" fill="#E0E0E0"/>
<path d="M305.778 197.28C305.778 197.352 242.649 197.41 164.802 197.41C86.955 197.41 23.8062 197.362 23.8062 197.28C23.8062 197.198 86.922 197.146 164.802 197.146C242.682 197.146 305.778 197.218 305.778 197.28Z" fill="#263238"/>
<path d="M93.5946 166.795L73.6692 152.237L83.688 138.854C93.7068 129.523 114.919 130.123 114.919 130.123C125.384 129.606 135.897 130.075 146.197 131.52C163.046 133.92 161.687 142.013 161.687 142.013L163.944 172.046L166.366 196.502L104.227 197.414L93.5946 166.814" fill="#6D48FF"/>
<path d="M127.07 195.984L71.412 196.464C68.3459 196.49 65.3211 195.949 62.6216 194.891C59.9221 193.833 57.6366 192.294 55.9797 190.418C54.3228 188.541 53.3488 186.389 53.1494 184.164C52.9499 181.939 53.5315 179.713 54.8394 177.696L78.639 145.598L100.32 156.254L85.5294 178.56L130.581 179.146L127.07 195.984Z" fill="#6D48FF"/>
<path d="M159.72 137.117L204.382 187.267L178.325 188.506C178.325 188.506 162.763 170.674 163.112 171.038C163.733 171.71 159.72 137.117 159.72 137.117Z" fill="#6D48FF"/>
<path d="M99.198 159.139C99.1996 159.051 99.2196 158.964 99.2574 158.88C99.3234 158.688 99.396 158.448 99.495 158.15C99.6996 157.522 100.003 156.61 100.313 155.477C100.624 154.344 100.973 152.981 101.191 151.464C101.459 149.82 101.459 148.159 101.191 146.515C100.833 144.885 100.051 143.32 98.8878 141.902C97.9527 140.736 96.8462 139.646 95.5878 138.653C94.7396 137.974 93.836 137.333 92.8818 136.733C92.5181 136.526 92.17 136.305 91.839 136.07C91.9464 136.109 92.0481 136.156 92.1426 136.21C92.3274 136.31 92.6244 136.45 92.9676 136.656C93.9601 137.226 94.8953 137.847 95.766 138.514C97.0669 139.499 98.2094 140.59 99.1716 141.763C100.376 143.202 101.183 144.799 101.548 146.462C101.809 148.127 101.791 149.808 101.495 151.469C101.272 152.82 100.955 154.163 100.544 155.491C100.201 156.629 99.8844 157.536 99.6138 158.16C99.495 158.472 99.3894 158.712 99.3168 158.875C99.289 158.966 99.2492 159.054 99.198 159.139Z" fill="#263238"/>
<path d="M97.4028 160.867C97.3075 161.117 97.1793 161.36 97.02 161.592C96.756 162.072 96.36 162.715 95.8518 163.512C94.842 165.139 93.4098 167.376 91.7598 169.824C90.1098 172.272 88.5522 174.466 87.3972 176.064C86.8164 176.851 86.3412 177.504 86.0046 177.922C85.8439 178.154 85.6585 178.377 85.4502 178.589C85.5687 178.344 85.7144 178.106 85.8858 177.878C86.2224 177.398 86.658 176.755 87.2058 175.982L91.476 169.742C93.093 167.309 94.5648 165.11 95.6604 163.464C96.1752 162.691 96.5976 162.048 96.9276 161.544C97.0597 161.309 97.2186 161.083 97.4028 160.867Z" fill="#263238"/>
<path d="M127.07 195.984C127.07 195.984 127.07 195.955 127.07 195.902C127.07 195.85 127.07 195.754 127.07 195.653C127.103 195.422 127.149 195.101 127.202 194.693C127.334 193.838 127.519 192.624 127.75 191.093C128.238 187.987 128.938 183.619 129.73 178.469L129.888 178.594H113.447L84.7308 178.56L76.0188 178.522L73.6494 178.498H73.029H72.8178C72.8879 178.491 72.9588 178.491 73.029 178.498H73.6494L76.0188 178.474L84.7308 178.435L113.494 178.402H129.934H130.112V178.526C129.241 183.672 128.509 188.04 127.981 191.141C127.717 192.667 127.499 193.882 127.321 194.736C127.25 195.139 127.191 195.459 127.142 195.696L127.09 195.941C127.083 195.955 127.076 195.984 127.07 195.984Z" fill="#263238"/>
<path d="M85.9188 178.915C85.5201 178.595 85.1498 178.257 84.81 177.902C83.0313 176.278 80.8286 174.926 78.3288 173.923C77.7949 173.735 77.275 173.527 76.7712 173.299C77.3571 173.399 77.9196 173.561 78.441 173.779C81.0446 174.715 83.2962 176.097 85.0014 177.806C85.3761 178.143 85.6848 178.517 85.9188 178.915Z" fill="#263238"/>
<path d="M164.868 182.093C164.82 181.956 164.789 181.816 164.776 181.675C164.729 181.382 164.67 180.984 164.591 180.48C164.439 179.443 164.234 177.941 164.017 176.083C163.561 172.363 163.04 167.218 162.578 161.534C162.116 155.851 161.792 150.696 161.608 146.966C161.515 145.099 161.449 143.606 161.423 142.546C161.423 142.042 161.423 141.643 161.39 141.346C161.38 141.206 161.38 141.067 161.39 140.928C161.426 141.066 161.446 141.205 161.449 141.346C161.449 141.638 161.502 142.042 161.542 142.546C161.614 143.611 161.713 145.114 161.839 146.957C162.083 150.686 162.446 155.832 162.908 161.52C163.37 167.208 163.858 172.344 164.228 176.069C164.426 177.907 164.584 179.429 164.696 180.475C164.749 180.955 164.789 181.378 164.822 181.67C164.855 181.81 164.87 181.951 164.868 182.093Z" fill="#263238"/>
<path d="M115.183 154.805C115.186 154.585 115.21 154.365 115.256 154.147C115.335 153.691 115.434 153.082 115.559 152.333C115.85 150.749 116.219 148.579 116.708 146.064L116.959 146.179L112.688 148.354L108.346 150.552L108.035 150.71L108.088 150.437C108.616 147.946 109.065 145.795 109.408 144.197C109.58 143.462 109.712 142.858 109.817 142.406C109.853 142.19 109.915 141.976 110.002 141.768C110.003 141.987 109.976 142.205 109.923 142.421C109.844 142.872 109.745 143.477 109.613 144.221C109.316 145.795 108.9 147.95 108.425 150.461L108.174 150.346L112.51 148.138L116.787 145.973L117.097 145.814L117.044 146.088C116.536 148.594 116.094 150.763 115.777 152.328C115.612 153.072 115.48 153.682 115.381 154.133C115.343 154.361 115.277 154.585 115.183 154.805Z" fill="#E0E0E0"/>
<path d="M140.026 156.749C139.788 156.611 139.567 156.458 139.366 156.293C138.937 155.957 138.356 155.51 137.643 154.963L131.749 150.317L132.033 150.245C131.894 151.421 131.749 152.698 131.597 154.022C131.446 155.347 131.287 156.662 131.149 157.862L131.116 158.141L130.865 157.934L125.129 153.23L123.493 151.858C123.284 151.701 123.099 151.528 122.938 151.344C123.176 151.491 123.396 151.651 123.598 151.824L125.301 153.149L131.122 157.79L130.838 157.862C130.977 156.667 131.122 155.371 131.281 154.022C131.439 152.674 131.584 151.421 131.723 150.245L131.756 149.971L132.007 150.173L137.815 154.882L139.471 156.259C139.673 156.412 139.859 156.575 140.026 156.749Z" fill="#E0E0E0"/>
<path d="M152.526 156.106C152.403 156.308 152.253 156.501 152.077 156.682L150.757 158.227L146.045 163.546L145.886 163.363L151.008 162.72L156.222 162.082L156.598 162.034L156.42 162.24L151.602 167.453L150.15 168.96C149.989 169.144 149.808 169.319 149.609 169.483C149.739 169.287 149.889 169.097 150.058 168.917L151.378 167.381L156.097 162.101L156.262 162.283L151.048 162.941L145.906 163.574L145.53 163.618L145.741 163.392L150.553 158.112L151.965 156.6C152.138 156.427 152.326 156.262 152.526 156.106Z" fill="#E0E0E0"/>
<path d="M135.901 165.408C135.776 165.608 135.626 165.8 135.452 165.979L134.132 167.53L129.426 172.843L129.261 172.661L134.396 172.018L139.616 171.374L139.993 171.331L139.775 171.557L134.957 176.774L133.538 178.272C133.38 178.457 133.199 178.63 132.997 178.79C133.129 178.595 133.279 178.405 133.445 178.224C133.789 177.84 134.237 177.326 134.765 176.693L139.484 171.413L139.649 171.595L134.435 172.253L129.294 172.882L128.918 172.93L129.129 172.699L133.94 167.419C134.521 166.795 134.996 166.286 135.359 165.907C135.523 165.731 135.704 165.565 135.901 165.408Z" fill="#E0E0E0"/>
<path d="M171.824 156C171.694 156.198 171.544 156.389 171.376 156.571L170.056 158.122L165.35 163.435L165.185 163.253L170.32 162.61L175.54 161.966L175.916 161.923L175.705 162.149L170.881 167.366C170.3 167.981 169.825 168.485 169.462 168.859C169.305 169.046 169.124 169.221 168.92 169.382C169.054 169.186 169.206 168.997 169.376 168.816L170.696 167.285L175.415 162.005L175.58 162.187L170.366 162.84L165.224 163.474L164.855 163.522L165.059 163.291L169.871 158.011L171.29 156.499C171.445 156.321 171.624 156.153 171.824 156Z" fill="#E0E0E0"/>
<path d="M192.548 180.163C192.312 180.033 192.092 179.888 191.888 179.731L190.08 178.464L183.869 174.038L184.147 173.957C184.094 175.138 184.041 176.414 183.982 177.744C183.922 179.074 183.85 180.394 183.79 181.584V181.862L183.52 181.666L177.474 177.178L175.745 175.867C175.53 175.719 175.331 175.558 175.151 175.387C175.386 175.519 175.607 175.663 175.811 175.819L177.606 177.082L183.744 181.507L183.46 181.589C183.513 180.389 183.572 179.093 183.632 177.749C183.691 176.405 183.764 175.142 183.823 173.962V173.688L184.087 173.88L190.205 178.373L191.954 179.688C192.17 179.834 192.369 179.993 192.548 180.163Z" fill="#E0E0E0"/>
<path d="M87.7074 148.291C87.5782 148.49 87.4282 148.681 87.2586 148.862L85.9386 150.413L81.2328 155.731L81.0678 155.549L86.2026 154.901L91.4232 154.262L91.7994 154.214L91.5882 154.445L86.7636 159.658L85.3512 161.155C85.1909 161.339 85.0099 161.512 84.81 161.674C84.9365 161.477 85.0867 161.289 85.2588 161.112L86.5788 159.576C87.7734 158.246 89.4102 156.422 91.2978 154.296L91.4628 154.478L86.2488 155.136L81.1074 155.77L80.7378 155.813L80.9424 155.587C82.8762 153.475 84.5394 151.651 85.7538 150.307L87.1728 148.795C87.3325 148.617 87.5112 148.449 87.7074 148.291Z" fill="#E0E0E0"/>
<path d="M61.611 184.186C61.8334 184.332 62.0366 184.492 62.2182 184.666L63.8286 186.072L69.3 190.982L69.0096 191.04C69.2472 189.874 69.498 188.606 69.7686 187.286C70.0392 185.966 70.3032 184.666 70.5474 183.48L70.6002 183.206L70.8378 183.427L76.1574 188.381L77.6688 189.821C77.8608 189.987 78.033 190.166 78.1836 190.354C77.9669 190.205 77.7661 190.045 77.583 189.874L75.999 188.472L70.62 183.571L70.9104 183.518C70.6728 184.704 70.4154 185.99 70.1448 187.325C69.8742 188.659 69.6168 189.907 69.3726 191.074L69.3198 191.347L69.0822 191.131L63.6966 186.168L62.1588 184.728C61.9596 184.556 61.7766 184.375 61.611 184.186Z" fill="#E0E0E0"/>
<path d="M121.209 160.944C120.913 160.99 120.613 161.019 120.311 161.03L117.803 161.189L109.131 161.669L109.237 161.467L113.038 164.059L116.886 166.699L117.163 166.891H116.78L108.154 167.237L105.659 167.314C105.361 167.332 105.06 167.332 104.762 167.314C105.056 167.271 105.353 167.243 105.653 167.232L108.141 167.088L116.761 166.656L116.662 166.858L112.801 164.227L109.012 161.626L108.735 161.434H109.111L117.79 161.054L120.298 160.963C120.601 160.94 120.905 160.934 121.209 160.944Z" fill="#E0E0E0"/>
<path d="M106.583 185.136C106.804 185.287 107.011 185.447 107.204 185.616L108.847 186.998L114.464 191.827L114.173 191.885C114.378 190.714 114.602 189.446 114.833 188.126C115.064 186.806 115.302 185.496 115.493 184.31L115.546 184.032L115.784 184.248L121.249 189.12L122.8 190.56C122.992 190.727 123.168 190.903 123.328 191.088C123.105 190.941 122.9 190.78 122.714 190.608L121.09 189.23L115.546 184.43L115.83 184.368C115.625 185.558 115.401 186.845 115.17 188.184C114.939 189.523 114.708 190.776 114.51 191.947L114.457 192.221L114.22 192.01L108.695 187.123L107.125 185.683C106.92 185.514 106.739 185.331 106.583 185.136Z" fill="#E0E0E0"/>
<path d="M80.4408 167.395C80.1455 167.442 79.8452 167.471 79.5432 167.482L77.0418 167.635L68.3694 168.115L68.4684 167.909L72.2766 170.506L76.1244 173.146L76.4016 173.338H76.0188L67.3926 173.683L64.8978 173.76C64.6057 173.778 64.3121 173.778 64.02 173.76C64.3132 173.714 64.6113 173.687 64.911 173.678L67.3992 173.534L76.0188 173.098L75.9198 173.304L72.0588 170.674L68.2638 168.072L67.9932 167.88H68.3694L77.0484 167.496L79.5564 167.41C79.8503 167.389 80.1459 167.384 80.4408 167.395Z" fill="#E0E0E0"/>
<path d="M102.901 184.594C102.605 184.639 102.305 184.666 102.003 184.675L99.495 184.834L90.8226 185.314L90.9282 185.107L94.7298 187.704L98.5776 190.344L98.8548 190.536H98.4786L89.8458 190.877L87.351 190.958C87.0524 190.977 86.752 190.977 86.4534 190.958C86.7466 190.912 87.0447 190.885 87.3444 190.877L89.8326 190.733L98.4522 190.296L98.3532 190.502L94.4922 187.872L90.7038 185.28L90.4266 185.093H90.8028L99.4818 184.709L101.996 184.622C102.296 184.593 102.599 184.583 102.901 184.594Z" fill="#E0E0E0"/>
<path d="M153.595 140.837C153.3 140.883 152.999 140.912 152.698 140.923L150.19 141.077L141.524 141.557L141.623 141.355L145.424 143.947L149.272 146.587L149.549 146.779H149.173L140.54 147.125L138.046 147.202C137.747 147.22 137.447 147.22 137.148 147.202C137.441 147.156 137.739 147.128 138.039 147.12L140.527 146.976L149.153 146.544L149.048 146.746L145.2 144.12L141.412 141.518L141.134 141.326H141.511L150.19 140.942L152.704 140.856C153 140.833 153.298 140.827 153.595 140.837Z" fill="#E0E0E0"/>
<path d="M128.938 184.594C128.938 184.594 140.039 182.266 143.715 181.584C145.147 181.32 151.279 183.672 155.516 185.63C155.516 185.63 161.35 188.146 160.882 188.918C160.36 189.773 158.242 189.6 154.777 188.438C154.777 188.438 155.978 190.968 153.622 190.91C153.622 190.91 154.79 193.646 152.585 193.93C150.381 194.213 149.866 190.723 147.926 190.536C145.985 190.349 141.986 190.157 141.986 190.157C141.986 190.157 138.64 194.189 136.046 194.477C133.452 194.765 127.466 194.251 127.466 194.251L128.938 184.594Z" fill="#FFBE9D"/>
<path d="M147.886 185.15C148.973 185.502 150.012 185.928 150.988 186.422C152.024 186.849 153.001 187.347 153.905 187.91C151.78 187.136 149.763 186.212 147.886 185.15Z" fill="#EB996E"/>
<path d="M147.233 186.72C148.501 187.01 149.733 187.378 150.916 187.819C152.138 188.181 153.317 188.616 154.44 189.12C153.171 188.833 151.939 188.467 150.757 188.026C149.532 187.666 148.353 187.229 147.233 186.72Z" fill="#EB996E"/>
<path d="M148.421 190.469C150.097 190.464 151.767 190.626 153.384 190.949C151.707 190.952 150.038 190.791 148.421 190.469Z" fill="#EB996E"/>
<path d="M114.49 101.28C114.621 101.591 114.623 101.923 114.496 102.235C114.368 102.547 114.118 102.824 113.775 103.033C113.432 103.242 113.012 103.373 112.568 103.41C112.124 103.446 111.674 103.386 111.276 103.238C109.771 102.686 109.58 101.174 109.877 99.9696C110.174 98.7648 110.735 97.4736 110.042 96.3552C109.507 95.5008 108.352 94.9584 107.455 94.2864C106.663 93.7023 106.067 92.9926 105.716 92.2131C105.364 91.4336 105.266 90.6054 105.428 89.7936C105.619 88.9842 106.112 88.2287 106.855 87.6104C107.598 86.9921 108.562 86.5351 109.639 86.2896C111.85 85.8432 114.576 86.3376 116.239 85.1712C117.434 84.3264 117.506 82.9488 118.43 81.9408C119.863 80.376 122.892 80.1264 125.453 80.3808C128.014 80.6352 130.614 81.2352 133.122 80.7792C135.214 80.4 136.93 79.3392 138.897 78.6864C141.041 77.9738 143.437 77.7662 145.751 78.0927C148.064 78.4191 150.18 79.2633 151.802 80.5072C153.423 81.7511 154.47 83.3325 154.795 85.0302C155.12 86.728 154.708 88.4572 153.615 89.976C152.887 91.0875 151.647 91.9789 150.11 92.496" fill="#263238"/>
<path d="M127.228 140.933C128.911 140.93 130.577 140.685 132.129 140.211C133.68 139.737 135.087 139.044 136.268 138.171C137.448 137.299 138.379 136.265 139.006 135.129C139.633 133.993 139.944 132.778 139.92 131.554L139.755 122.731C139.755 122.731 149.945 121.987 150.619 114.643C151.292 107.299 150.81 90.3504 150.81 90.3504C145.203 88.3274 138.955 87.4286 132.711 87.7467C126.468 88.0647 120.453 89.5882 115.289 92.16L113.731 92.9424L114.49 131.794C114.53 134.23 115.89 136.557 118.276 138.268C120.661 139.979 123.878 140.937 127.228 140.933Z" fill="#FFBE9D"/>
<path d="M148.144 103.68C147.775 103.649 147.435 103.521 147.188 103.319C146.941 103.118 146.805 102.858 146.805 102.588C146.805 102.318 146.941 102.058 147.188 101.856C147.435 101.655 147.775 101.527 148.144 101.496C148.224 101.481 148.308 101.481 148.388 101.496C148.756 101.527 149.096 101.655 149.343 101.856C149.59 102.058 149.726 102.318 149.726 102.588C149.726 102.858 149.59 103.118 149.343 103.319C149.096 103.521 148.756 103.649 148.388 103.68C148.307 103.69 148.224 103.69 148.144 103.68Z" fill="#263238"/>
<path d="M150.124 101.309C149.959 101.434 149.008 100.829 147.616 100.776C146.223 100.723 145.174 101.198 145.035 101.064C144.896 100.93 145.134 100.781 145.596 100.555C146.213 100.267 146.942 100.131 147.673 100.166C148.405 100.202 149.102 100.407 149.662 100.752C150.077 101.021 150.209 101.28 150.124 101.309Z" fill="#263238"/>
<path d="M134.026 101.558C134.266 101.679 134.451 101.848 134.557 102.045C134.664 102.243 134.689 102.458 134.627 102.665C134.565 102.872 134.42 103.061 134.211 103.208C134.001 103.356 133.737 103.454 133.45 103.492C133.163 103.529 132.868 103.504 132.601 103.42C132.334 103.335 132.107 103.195 131.95 103.017C131.793 102.839 131.711 102.63 131.717 102.419C131.722 102.207 131.814 102.001 131.98 101.827C132.203 101.594 132.543 101.435 132.927 101.385C133.31 101.335 133.706 101.397 134.026 101.558Z" fill="#263238"/>
<path d="M134.944 101.602C134.772 101.726 133.822 101.122 132.436 101.069C131.05 101.016 129.994 101.491 129.848 101.357C129.776 101.294 129.954 101.074 130.409 100.848C131.027 100.56 131.755 100.424 132.487 100.459C133.219 100.494 133.916 100.7 134.475 101.045C134.891 101.314 135.023 101.549 134.944 101.602Z" fill="#263238"/>
<path d="M139.92 110.174C139.92 110.098 140.785 110.002 142.197 109.915C142.56 109.915 142.857 109.853 142.89 109.714C142.917 109.449 142.846 109.184 142.685 108.946C142.375 108.259 142.065 107.568 141.735 106.843C140.415 103.853 139.55 101.39 139.755 101.342C139.96 101.294 141.187 103.68 142.487 106.67C142.791 107.4 143.088 108.11 143.372 108.782C143.581 109.132 143.623 109.522 143.491 109.891C143.432 109.991 143.341 110.079 143.226 110.148C143.112 110.217 142.976 110.266 142.831 110.29C142.625 110.323 142.414 110.334 142.204 110.323C140.778 110.304 139.92 110.256 139.92 110.174Z" fill="#263238"/>
<path d="M135.3 111.115C137.421 111.907 139.682 112.484 142.019 112.829C141.506 113.341 140.771 113.711 139.932 113.88C139.093 114.049 138.2 114.007 137.399 113.76C134.422 112.834 135.3 111.115 135.3 111.115Z" fill="white"/>
<path d="M139.795 122.626C135.122 122.504 130.606 121.375 126.819 119.381C126.819 119.381 129.538 124.79 139.669 124.531L139.795 122.626Z" fill="#EB996E"/>
<path d="M150.896 92.208C150.896 92.208 144.791 94.464 136.706 91.6704C131.426 89.8368 125.242 88.9872 123.908 89.7792C122.575 90.5712 122.397 94.5072 117.223 95.7312C117.223 95.7312 117.784 103.248 113.652 103.037C109.52 102.826 111.791 91.1472 111.791 91.1472L121.777 87.4224L132.739 85.7568L143.134 86.6736L151.199 88.1568L150.896 92.208Z" fill="#263238"/>
<path d="M114.404 100.622C114.239 100.56 107.573 98.8511 107.422 103.886C107.27 108.922 114.246 107.995 114.259 107.851C114.272 107.707 114.404 100.622 114.404 100.622Z" fill="#FFBE9D"/>
<path d="M112.2 105.907C112.2 105.907 112.075 105.97 111.87 106.032C111.58 106.118 111.256 106.118 110.966 106.032C110.24 105.826 109.646 104.971 109.646 104.064C109.645 103.632 109.773 103.204 110.022 102.811C110.093 102.655 110.215 102.514 110.377 102.4C110.539 102.285 110.736 102.201 110.953 102.154C111.092 102.135 111.236 102.15 111.364 102.196C111.491 102.242 111.594 102.316 111.659 102.408C111.745 102.547 111.698 102.648 111.731 102.658C111.764 102.667 111.883 102.576 111.837 102.37C111.801 102.244 111.708 102.131 111.573 102.048C111.386 101.941 111.149 101.891 110.913 101.909C110.627 101.945 110.359 102.033 110.134 102.166C109.908 102.299 109.733 102.471 109.626 102.667C109.321 103.099 109.163 103.578 109.164 104.064C109.164 105.077 109.864 106.042 110.854 106.267C111.039 106.308 111.234 106.319 111.426 106.299C111.617 106.28 111.8 106.229 111.962 106.152C112.2 106.032 112.2 105.917 112.2 105.907Z" fill="#EB996E"/>
<path d="M110.88 84.8639C111.67 84.6955 112.513 84.7176 113.284 84.927C114.055 85.1364 114.712 85.5218 115.157 86.0255C114.541 85.6866 113.878 85.3969 113.177 85.1615C112.427 85.0046 111.658 84.9048 110.88 84.8639Z" fill="#263238"/>
<path d="M115.045 81.8496C115.17 81.8496 114.979 82.9104 115.216 84.168C115.422 84.9241 115.747 85.6602 116.186 86.3616C116.186 86.3616 115.896 86.184 115.606 85.8096C115.233 85.3113 114.987 84.7682 114.88 84.2064C114.687 83.4219 114.744 82.6158 115.045 81.8496Z" fill="#263238"/>
<path d="M143.484 98.88C143.444 98.8224 143.741 98.6448 144.302 98.4816C145.792 98.0627 147.445 98.0747 148.922 98.5152C149.477 98.688 149.774 98.8656 149.734 98.9232C149.648 99.0576 148.315 98.6784 146.606 98.6784C144.896 98.6784 143.563 99.0288 143.484 98.88Z" fill="#263238"/>
<path d="M128.04 97.8335C128 97.7759 128.297 97.6031 128.858 97.4351C129.597 97.2275 130.383 97.1249 131.175 97.1327C131.97 97.1326 132.757 97.2468 133.492 97.4687C134.046 97.6415 134.336 97.8191 134.303 97.8815C134.27 97.9439 132.884 97.6367 131.168 97.6319C129.452 97.6271 128.132 97.9679 128.04 97.8335Z" fill="#263238"/>
<path d="M142.289 99.6863C142.304 99.7852 142.304 99.885 142.289 99.9839C142.289 100.195 142.289 100.464 142.322 100.795C142.355 101.126 142.322 101.573 142.362 102.053C142.337 102.607 142.449 103.159 142.692 103.685C143.01 104.366 143.561 104.978 144.293 105.462C145.025 105.946 145.914 106.288 146.876 106.454C147.429 106.552 147.999 106.588 148.566 106.56C149.156 106.541 149.738 106.451 150.289 106.296C151.463 105.976 152.463 105.388 153.14 104.621C153.78 103.888 154.103 103.031 154.064 102.163C154.064 101.304 154.064 100.478 154.064 99.6863L154.222 99.8015L145.642 99.7439L143.154 99.7103H142.494H142.25C142.532 99.6875 142.817 99.6779 143.101 99.6815L145.55 99.6479L154.222 99.5903H154.44V99.7103C154.44 100.502 154.44 101.328 154.44 102.187C154.484 103.103 154.146 104.006 153.47 104.779C152.752 105.592 151.692 106.213 150.447 106.55C149.862 106.714 149.245 106.806 148.619 106.824C148.022 106.85 147.423 106.809 146.843 106.704C145.834 106.526 144.904 106.163 144.143 105.649C143.383 105.134 142.817 104.486 142.501 103.766C142.264 103.217 142.165 102.642 142.21 102.067C142.21 101.587 142.21 101.141 142.243 100.776C142.276 100.411 142.243 100.186 142.276 99.9743C142.27 99.8782 142.274 99.7819 142.289 99.6863Z" fill="#263238"/>
<path d="M126.113 99.4367C126.113 99.4367 126.113 99.5471 126.113 99.7343V100.546C126.113 100.901 126.113 101.323 126.146 101.808C126.128 102.362 126.24 102.913 126.476 103.44C126.78 104.072 127.279 104.645 127.934 105.115C128.691 105.65 129.633 106.027 130.66 106.205C131.796 106.404 132.987 106.349 134.079 106.046C135.25 105.727 136.247 105.141 136.924 104.376C137.567 103.643 137.891 102.787 137.854 101.918C137.854 101.059 137.854 100.229 137.854 99.4367L138.013 99.5519L129.433 99.4943L126.951 99.4655H126.291H126.047C126.327 99.4428 126.609 99.4332 126.892 99.4367L129.34 99.4079L138.013 99.3503H138.171V99.4655C138.171 100.258 138.171 101.088 138.171 101.947C138.211 102.863 137.87 103.766 137.194 104.539C136.477 105.349 135.419 105.969 134.178 106.306C133.593 106.468 132.976 106.561 132.35 106.579C131.751 106.605 131.15 106.564 130.568 106.459C129.489 106.266 128.504 105.863 127.717 105.293C127.036 104.795 126.525 104.189 126.225 103.522C125.988 102.973 125.89 102.397 125.935 101.822C125.935 101.342 125.935 100.896 125.974 100.531C126.014 100.166 125.974 99.9407 125.974 99.7295C125.998 99.6271 126.045 99.5282 126.113 99.4367Z" fill="#263238"/>
<path d="M142.435 100.037C140.925 100.203 139.39 100.203 137.881 100.037C139.389 99.864 140.926 99.864 142.435 100.037Z" fill="#263238"/>
<path d="M113.52 100.099C115.618 99.972 117.724 99.9255 119.83 99.96C121.936 99.9166 124.044 99.9534 126.146 100.07C124.048 100.204 121.941 100.25 119.836 100.21C117.73 100.259 115.621 100.222 113.52 100.099Z" fill="#263238"/>
<path d="M181.414 190.68C182.897 192.682 185.144 194.33 187.883 195.426C190.623 196.522 193.739 197.019 196.858 196.858C200.543 196.67 204.03 195.574 206.743 193.751C209.456 191.928 211.233 189.487 211.781 186.83L215.609 154.963L200.277 152.208L194.014 177.168C194.014 177.168 190.74 187.627 181.414 190.68Z" fill="#FFBE9D"/>
<path d="M200.138 154.517L200.647 148.925C200.647 148.925 202.818 136.378 202.818 135.149C202.818 133.738 203.749 133.392 204.468 133.43C205.583 133.483 206.375 134.486 206.448 135.701C206.448 136.118 206.395 142.752 206.395 142.752C206.923 142.125 207.512 141.527 208.157 140.962C209.477 139.718 212.672 139.008 215.926 139.085C219.179 139.162 220.07 139.392 220.09 140.309C220.079 140.484 220.013 140.655 219.899 140.81C219.785 140.964 219.625 141.098 219.43 141.202C218.83 141.566 218.067 141.757 217.285 141.739C212.078 141.672 210.685 143.693 210.685 143.693L210.619 144.427C210.619 144.427 213.781 142.781 216.302 143.467C216.674 143.567 217.015 143.721 217.305 143.918C218.015 143.92 218.712 144.057 219.326 144.316C219.941 144.574 220.452 144.945 220.809 145.391C221.166 145.837 221.356 146.344 221.361 146.86C221.366 147.376 221.185 147.885 220.836 148.334C220.7 148.565 220.471 148.76 220.178 148.893C219.885 149.026 219.544 149.091 219.199 149.078C218.85 149.002 218.534 148.862 218.282 148.67C218.134 148.579 217.977 148.496 217.813 148.421L217.232 150.451C217.232 150.451 215.589 154.963 215.18 156.989" fill="#FFBE9D"/>
<path d="M201.637 154.08C202.587 154.272 203.57 153.763 204.085 153.149C204.6 152.534 204.818 151.81 205.267 151.166C206.626 149.246 209.887 148.334 211.134 146.366C211.306 146.093 211.398 145.718 211.068 145.536C210.738 145.354 210.329 145.502 209.992 145.637L201.412 149.093" fill="#FFBE9D"/>
<path d="M201.406 149.083C201.673 148.911 201.967 148.763 202.283 148.642C202.864 148.378 203.716 148.013 204.772 147.566L208.501 146.016L209.576 145.574C209.977 145.344 210.488 145.238 210.995 145.282C211.152 145.318 211.29 145.389 211.39 145.484C211.49 145.58 211.548 145.695 211.556 145.814C211.574 146.012 211.526 146.209 211.418 146.39C211.219 146.711 210.971 147.013 210.679 147.293C209.491 148.416 207.953 149.122 206.844 149.942C206.305 150.314 205.846 150.743 205.484 151.214C205.161 151.656 204.956 152.117 204.706 152.534C204.551 152.883 204.294 153.203 203.952 153.471C203.61 153.74 203.192 153.951 202.726 154.09C202.019 154.243 201.623 154.09 201.65 154.061C201.992 154.068 202.332 154.028 202.653 153.941C203.066 153.787 203.43 153.574 203.723 153.312C204.017 153.051 204.232 152.749 204.356 152.424C204.567 151.959 204.812 151.502 205.088 151.056C205.452 150.545 205.927 150.08 206.494 149.678C207.629 148.814 209.134 148.09 210.243 147.048C210.504 146.796 210.726 146.524 210.903 146.237C211.068 145.963 211.042 145.69 210.83 145.661C210.619 145.632 210.203 145.762 209.84 145.91L208.745 146.342L204.963 147.84C203.881 148.258 202.983 148.584 202.389 148.8C202.081 148.928 201.75 149.023 201.406 149.083Z" fill="#EB996E"/>
<path d="M210.5 144.48C210.559 144.026 210.765 143.588 211.101 143.203C211.492 142.808 212.047 142.515 212.685 142.368C213.484 142.177 214.319 142.08 215.16 142.08C216.023 142.086 216.885 142.032 217.734 141.917C218.445 141.811 219.105 141.571 219.648 141.221C219.828 141.1 219.968 140.95 220.058 140.784C220.147 140.618 220.183 140.439 220.163 140.261C220.153 140.13 220.094 140.004 219.991 139.896C219.958 139.896 219.991 140.035 220.024 140.266C220.021 140.426 219.97 140.585 219.874 140.73C219.778 140.875 219.64 141.003 219.47 141.106C218.942 141.408 218.322 141.612 217.661 141.701C216.83 141.8 215.989 141.845 215.147 141.835C214.275 141.828 213.407 141.927 212.579 142.128C211.887 142.303 211.295 142.641 210.896 143.088C210.638 143.389 210.488 143.732 210.461 144.086C210.423 144.218 210.437 144.354 210.5 144.48Z" fill="#EB996E"/>
<path d="M206.402 135.23C206.346 135.669 206.346 136.111 206.402 136.55C206.402 137.453 206.402 138.533 206.448 139.723C206.494 140.914 206.448 141.994 206.448 142.896C206.408 143.336 206.422 143.778 206.488 144.216C206.632 143.785 206.705 143.344 206.705 142.901C206.785 142.09 206.837 140.981 206.831 139.723C206.824 138.466 206.758 137.352 206.679 136.541C206.651 136.098 206.559 135.659 206.402 135.23Z" fill="#EB996E"/>
<path d="M212.56 145.954C212.744 145.921 212.921 145.871 213.088 145.805C213.303 145.725 213.539 145.679 213.78 145.671C214.021 145.663 214.262 145.692 214.487 145.757C214.625 145.811 214.741 145.891 214.824 145.987C214.907 146.084 214.955 146.195 214.962 146.309C214.983 146.595 214.954 146.882 214.876 147.163C214.767 147.516 214.845 147.887 215.094 148.2C215.252 148.361 215.459 148.493 215.7 148.585C215.941 148.676 216.208 148.725 216.48 148.728C216.747 148.727 217.011 148.686 217.256 148.608C217.501 148.531 217.722 148.418 217.906 148.277C218.25 148.026 218.48 147.704 218.566 147.355C218.669 146.791 218.658 146.218 218.533 145.656C218.464 145.276 218.306 144.907 218.064 144.566C217.879 144.326 217.708 144.235 217.694 144.245C217.681 144.254 217.8 144.374 217.939 144.61C218.12 144.955 218.233 145.317 218.275 145.685C218.362 146.226 218.351 146.773 218.242 147.312C218.158 147.617 217.94 147.895 217.622 148.102C217.303 148.31 216.9 148.437 216.473 148.464C216.259 148.463 216.047 148.426 215.856 148.355C215.665 148.284 215.499 148.182 215.371 148.056C215.172 147.793 215.108 147.486 215.193 147.192C215.267 146.889 215.284 146.581 215.246 146.275C215.227 146.129 215.156 145.989 215.04 145.869C214.924 145.748 214.768 145.652 214.586 145.589C214.329 145.518 214.053 145.492 213.78 145.514C213.507 145.535 213.245 145.604 213.015 145.714C212.705 145.848 212.52 145.92 212.56 145.954Z" fill="#EB996E"/>
<path d="M217.754 148.075C217.708 148.2 217.726 148.334 217.807 148.45C217.899 148.614 218.043 148.761 218.226 148.879C218.409 148.998 218.627 149.084 218.863 149.131C219.218 149.187 219.587 149.174 219.934 149.095C220.281 149.016 220.594 148.873 220.843 148.68C221.438 148.205 221.757 147.58 221.734 146.938C221.734 146.303 221.461 145.684 220.955 145.166C220.541 144.745 219.978 144.413 219.325 144.206C218.896 144.066 218.435 143.986 217.965 143.971C217.635 143.971 217.457 143.971 217.457 144.01C218.066 144.067 218.66 144.19 219.219 144.374C219.805 144.586 220.309 144.901 220.684 145.291C221.123 145.775 221.353 146.344 221.344 146.923C221.366 147.499 221.093 148.06 220.579 148.498C220.369 148.67 220.103 148.8 219.805 148.877C219.507 148.953 219.187 148.973 218.876 148.934C218.668 148.901 218.473 148.835 218.303 148.741C218.133 148.647 217.993 148.528 217.892 148.392C217.8 148.21 217.8 148.075 217.754 148.075Z" fill="#EB996E"/>
<path d="M211.484 152.51C211.2 152.445 210.896 152.445 210.613 152.51C209.87 152.629 209.201 152.922 208.712 153.346L209.015 153.413C208.975 153.116 208.909 152.821 208.817 152.53C208.555 151.498 207.904 150.539 206.936 149.76C207.583 150.66 208.096 151.608 208.468 152.587C208.56 152.885 208.626 153.173 208.672 153.442L208.725 153.739L208.982 153.504C209.42 153.112 210.005 152.82 210.665 152.664C211.16 152.554 211.484 152.544 211.484 152.51Z" fill="#EB996E"/>
<path d="M211.649 141.226C211.563 141.254 211.913 141.706 212.718 141.979C213.523 142.253 214.236 142.094 214.203 142.027C214.17 141.96 213.543 141.965 212.883 141.739C212.223 141.514 211.735 141.178 211.649 141.226Z" fill="#EB996E"/>
<path d="M197.498 158.136L216.764 159.139C216.764 159.139 213.8 183.931 213.226 187.776C212.652 191.621 209.266 197.419 197.498 197.419C185.731 197.419 183.539 194.506 178.306 188.506C184.477 185.395 194.278 176.107 194.278 176.107L197.498 158.136Z" fill="#6D48FF"/>
<path d="M206.58 161.472C206.481 161.681 206.362 161.885 206.224 162.082L205.148 163.733L201.346 169.44L201.155 169.272L206.151 168.192L211.226 167.107L211.596 167.03L211.418 167.275L207.458 172.867L206.29 174.475C206.16 174.672 206.008 174.86 205.834 175.037C205.935 174.831 206.054 174.631 206.191 174.437C206.468 174.024 206.851 173.477 207.273 172.8L211.108 167.17L211.299 167.338L206.23 168.432L201.227 169.498L200.864 169.574L201.036 169.33L204.976 163.68C205.458 163.013 205.847 162.466 206.138 162.058C206.262 161.854 206.41 161.658 206.58 161.472Z" fill="#E0E0E0"/>
<path d="M204.758 185.318C204.463 185.364 204.163 185.393 203.861 185.405L201.353 185.563L192.68 186.043L192.786 185.837L196.588 188.429L200.435 191.069L200.713 191.261H200.33L191.704 191.606L189.209 191.683C188.91 191.702 188.61 191.702 188.311 191.683C188.605 191.641 188.903 191.615 189.202 191.606L191.69 191.458L200.31 191.026L200.211 191.232L196.35 188.597L192.562 185.995L192.284 185.808H192.661L201.34 185.429L203.854 185.338C204.154 185.314 204.457 185.308 204.758 185.318Z" fill="#E0E0E0"/>
<path d="M239.059 96.7536L219.41 91.6224L199.98 96.6864C197.498 97.536 195.32 98.0496 195.32 99.7296V108.11C195.274 113.997 197.484 119.776 201.703 124.8C205.917 129.87 212.163 133.881 219.602 136.296C227.522 134.419 233.462 129.408 237.125 125.126C241.354 120.105 243.576 114.326 243.54 108.437V100.901C243.54 98.5008 241.784 97.3296 239.059 96.7536Z" fill="#6D48FF"/>
<g opacity="0.3">
<path d="M219.602 131.419C213.707 129.486 208.767 126.287 205.445 122.251C202.101 118.281 200.343 113.712 200.369 109.056V103.2C200.369 101.866 201.478 100.618 203.669 99.8737L219.417 95.5921V91.6417L199.98 96.6865C197.941 97.3345 195.32 98.0497 195.32 99.7297V108.111C195.274 113.997 197.484 119.776 201.703 124.8C205.917 129.87 212.163 133.881 219.602 136.296V131.419Z" fill="black"/>
</g>
<g opacity="0.4">
<path d="M219.602 136.282C220.935 135.965 222.227 135.563 223.463 135.082C226.502 133.831 229.266 132.255 231.66 130.406C233.825 128.71 235.73 126.848 237.343 124.853C241.622 119.794 243.776 113.937 243.54 108V101.083C243.54 97.6367 241.098 97.3823 239.052 96.7344L219.404 91.6031V95.5536L235.336 99.9072C237.527 100.651 238.636 101.899 238.636 103.229V109.109C238.662 113.763 236.905 118.331 233.561 122.299C230.311 126.316 225.429 129.502 219.589 131.419L219.602 136.282Z" fill="black"/>
</g>
<path opacity="0.5" d="M224.624 108.682V107.549C224.624 106.565 224.087 105.621 223.13 104.925C222.173 104.229 220.876 103.838 219.523 103.838C218.17 103.838 216.872 104.229 215.915 104.925C214.958 105.621 214.421 106.565 214.421 107.549V108.701C213.746 108.774 213.129 109.022 212.683 109.398C212.238 109.774 211.992 110.254 211.992 110.75V117.422C211.992 117.972 212.292 118.5 212.827 118.889C213.362 119.278 214.087 119.496 214.843 119.496H224.4C225.156 119.496 225.881 119.278 226.416 118.889C226.951 118.5 227.251 117.972 227.251 117.422V110.75C227.252 110.228 226.982 109.725 226.495 109.342C226.008 108.958 225.34 108.723 224.624 108.682ZM220.909 115.757H218.414L218.803 114.446C218.53 114.317 218.322 114.127 218.21 113.905C218.097 113.682 218.087 113.44 218.179 113.212C218.272 112.985 218.463 112.786 218.724 112.644C218.985 112.503 219.302 112.426 219.628 112.426C219.954 112.426 220.271 112.503 220.532 112.644C220.793 112.786 220.984 112.985 221.077 113.212C221.17 113.44 221.159 113.682 221.047 113.905C220.934 114.127 220.726 114.317 220.453 114.446C220.625 114.936 220.909 115.757 220.909 115.757ZM223.549 108.672H215.523V107.549C215.565 106.797 216.005 106.086 216.751 105.565C217.497 105.044 218.492 104.753 219.526 104.753C220.56 104.753 221.555 105.044 222.301 105.565C223.047 106.086 223.487 106.797 223.529 107.549L223.549 108.672Z" fill="white"/>
<path d="M203.557 108.6C203.386 108.224 203.286 107.834 203.26 107.438C203.113 106.494 203.06 105.542 203.102 104.592C203.102 104.035 203.174 103.507 203.24 103.027C203.273 102.589 203.423 102.161 203.683 101.765C203.868 101.494 204.169 101.273 204.541 101.136C204.811 101.045 204.976 101.05 204.976 101.064C204.502 101.222 204.121 101.498 203.9 101.842C203.689 102.225 203.573 102.633 203.557 103.046C203.504 103.526 203.465 104.05 203.445 104.602C203.399 105.701 203.445 106.699 203.504 107.424C203.564 107.814 203.582 108.208 203.557 108.6Z" fill="white"/>
<path d="M203.841 112.243C203.749 112.243 203.663 111.902 203.65 111.475C203.636 111.048 203.709 110.702 203.801 110.702C203.894 110.702 203.98 111.043 203.993 111.47C204.006 111.898 203.94 112.243 203.841 112.243Z" fill="white"/>
<path d="M184.351 156.11L162.446 195.509H122.945V197.29H240.603L264.673 156.11H184.351Z" fill="#263238"/>
<path d="M217.84 179.371C217.048 181.354 214.738 182.606 212.678 182.174C210.619 181.742 209.596 179.774 210.388 177.792C211.18 175.81 213.497 174.557 215.556 174.989C217.615 175.421 218.638 177.389 217.84 179.371Z" fill="#FAFAFA"/>
</svg>
