<svg width="330" height="240" viewBox="0 0 330 240" fill="none" xmlns="http://www.w3.org/2000/svg">
<path d="M330 183.552H0V183.672H330V183.552Z" fill="#E6E6E6"/>
<path d="M82.3812 190.814H60.522V190.934H82.3812V190.814Z" fill="#E6E6E6"/>
<path d="M53.6052 190.814H40.9398V190.934H53.6052V190.814Z" fill="#E6E6E6"/>
<path d="M138.963 192.581H126.298V192.701H138.963V192.581Z" fill="#E6E6E6"/>
<path d="M205.003 195.259H176.497V195.379H205.003V195.259Z" fill="#E6E6E6"/>
<path d="M170.623 195.259H166.445V195.379H170.623V195.259Z" fill="#E6E6E6"/>
<path d="M299.211 192.581H237.382V192.701H299.211V192.581Z" fill="#E6E6E6"/>
<path d="M156.42 162.144H28.9806C27.9822 162.143 27.0254 161.853 26.3201 161.34C25.6147 160.826 25.2186 160.129 25.2186 159.403V29.1168C25.2273 28.3949 25.6273 27.7047 26.3317 27.196C27.036 26.6873 27.9879 26.4013 28.9806 26.4H156.42C157.42 26.4 158.378 26.6888 159.085 27.2028C159.792 27.7168 160.189 28.4139 160.189 29.1408V159.403C160.189 160.13 159.792 160.827 159.085 161.341C158.378 161.855 157.42 162.144 156.42 162.144ZM28.9806 26.496C28.026 26.4973 27.1111 26.774 26.4367 27.2653C25.7624 27.7567 25.3836 28.4226 25.3836 29.1168V159.403C25.3836 160.097 25.7624 160.763 26.4367 161.255C27.1111 161.746 28.026 162.023 28.9806 162.024H156.42C157.375 162.023 158.291 161.746 158.966 161.255C159.642 160.764 160.022 160.098 160.024 159.403V29.1168C160.022 28.4221 159.642 27.7563 158.966 27.265C158.291 26.7738 157.375 26.4973 156.42 26.496H28.9806Z" fill="#E6E6E6"/>
<path d="M299.185 162.144H171.739C170.74 162.143 169.782 161.854 169.076 161.34C168.369 160.826 167.972 160.13 167.97 159.403V29.1168C167.98 28.3945 168.382 27.7042 169.087 27.1957C169.793 26.6871 170.745 26.4012 171.739 26.4H299.185C300.176 26.4025 301.126 26.6891 301.829 27.1977C302.532 27.7062 302.931 28.3957 302.94 29.1168V159.403C302.94 160.128 302.545 160.824 301.841 161.338C301.137 161.852 300.182 162.141 299.185 162.144ZM171.739 26.496C170.783 26.4973 169.868 26.7738 169.192 27.265C168.517 27.7563 168.137 28.4221 168.135 29.1168V159.403C168.137 160.098 168.517 160.764 169.192 161.255C169.868 161.746 170.783 162.023 171.739 162.024H299.185C300.14 162.023 301.055 161.746 301.731 161.255C302.406 160.764 302.786 160.098 302.788 159.403V29.1168C302.786 28.4221 302.406 27.7563 301.731 27.265C301.055 26.7738 300.14 26.4973 299.185 26.496H171.739Z" fill="#E6E6E6"/>
<path d="M176.484 142.55H161.971V184.421H176.484V142.55Z" fill="#E0E0E0"/>
<path d="M173.725 184.421H176.484V178.718H170.834L173.725 184.421Z" fill="#FAFAFA"/>
<path d="M112.886 142.55H98.373V184.421H112.886V142.55Z" fill="#E0E0E0"/>
<path d="M176.484 142.55H110.484V180.922H176.484V142.55Z" fill="#FAFAFA"/>
<path d="M174.088 144.437V154.589H112.86V144.437H174.068M174.326 144.25H112.622V154.771H174.346V144.25H174.326Z" fill="#E0E0E0"/>
<path d="M113.236 184.421H110.484V178.718H116.127L113.236 184.421Z" fill="#FAFAFA"/>
<path d="M142.025 149.51C142.025 149.72 142.111 149.925 142.271 150.1C142.431 150.274 142.659 150.41 142.926 150.49C143.192 150.571 143.486 150.592 143.769 150.551C144.051 150.51 144.311 150.409 144.515 150.26C144.719 150.112 144.858 149.923 144.915 149.717C144.971 149.512 144.942 149.298 144.832 149.104C144.721 148.911 144.534 148.745 144.294 148.628C144.054 148.512 143.772 148.45 143.484 148.45C143.097 148.45 142.726 148.561 142.453 148.76C142.179 148.959 142.025 149.229 142.025 149.51Z" fill="#E6E6E6"/>
<path d="M174.088 156.658V166.81H112.86V156.658H174.068M174.326 156.475H112.622V166.997H174.346V156.48L174.326 156.475Z" fill="#E0E0E0"/>
<path d="M142.025 161.76C142.025 161.97 142.111 162.175 142.271 162.349C142.431 162.524 142.659 162.66 142.926 162.74C143.192 162.82 143.486 162.841 143.769 162.8C144.051 162.76 144.311 162.658 144.515 162.51C144.719 162.362 144.858 162.173 144.915 161.967C144.971 161.761 144.942 161.548 144.832 161.354C144.721 161.16 144.534 160.995 144.294 160.878C144.054 160.761 143.772 160.699 143.484 160.699C143.097 160.699 142.726 160.811 142.453 161.01C142.179 161.209 142.025 161.479 142.025 161.76Z" fill="#E6E6E6"/>
<path d="M174.088 168.883V179.04H112.86V168.883H174.068M174.326 168.696H112.622V179.222H174.346V168.696H174.326Z" fill="#E0E0E0"/>
<path d="M142.025 173.962C142.027 174.171 142.113 174.376 142.274 174.55C142.435 174.723 142.664 174.859 142.93 174.938C143.197 175.018 143.49 175.038 143.773 174.997C144.055 174.955 144.314 174.854 144.518 174.705C144.721 174.557 144.859 174.368 144.915 174.162C144.971 173.956 144.942 173.743 144.831 173.55C144.72 173.356 144.533 173.191 144.294 173.074C144.054 172.958 143.772 172.896 143.484 172.896C143.292 172.896 143.102 172.924 142.924 172.977C142.747 173.031 142.586 173.109 142.45 173.208C142.315 173.307 142.207 173.425 142.135 173.554C142.062 173.683 142.025 173.822 142.025 173.962Z" fill="#E6E6E6"/>
<path d="M104.023 118.234H89.5092V184.426H104.023V118.234Z" fill="#E0E0E0"/>
<path d="M101.264 184.421H104.023V178.718H98.3796L101.264 184.421Z" fill="#FAFAFA"/>
<path d="M49.7838 118.234H35.2704V184.426H49.7838V118.234Z" fill="#E0E0E0"/>
<path d="M104.023 118.234H47.3748V180.926H104.023V118.234Z" fill="#FAFAFA"/>
<path d="M101.581 120V134.194H49.8168V120H101.581ZM101.884 119.784H49.5V134.4H101.871V119.789L101.884 119.784Z" fill="#E0E0E0"/>
<path d="M101.581 135.926V173.573H76.923V135.926H101.581ZM101.884 135.706H76.626V173.794H101.884V135.706Z" fill="#E0E0E0"/>
<path d="M74.4744 135.926V173.573H49.8168V135.926H74.4744ZM74.7714 135.706H49.5V173.794H74.7582V135.706H74.7714Z" fill="#E0E0E0"/>
<path d="M50.1336 184.421H47.3748V178.718H53.0244L50.1336 184.421Z" fill="#FAFAFA"/>
<path d="M74.2368 127.104C74.2355 127.315 74.3203 127.521 74.4805 127.697C74.6407 127.873 74.8691 128.011 75.1367 128.092C75.4043 128.173 75.6992 128.195 75.9838 128.155C76.2685 128.114 76.5302 128.013 76.7357 127.864C76.9413 127.715 77.0815 127.525 77.1386 127.318C77.1956 127.112 77.167 126.897 77.0563 126.702C76.9456 126.507 76.7578 126.34 76.5167 126.223C76.2756 126.106 75.9921 126.043 75.702 126.043C75.3146 126.043 74.9429 126.155 74.6683 126.354C74.3937 126.552 74.2386 126.822 74.2368 127.104Z" fill="#E6E6E6"/>
<path d="M79.464 153.854C79.464 154.065 79.5501 154.272 79.7114 154.447C79.8727 154.622 80.1019 154.759 80.37 154.839C80.6381 154.92 80.9331 154.941 81.2175 154.899C81.5019 154.858 81.7629 154.756 81.9676 154.606C82.1722 154.457 82.3113 154.266 82.367 154.059C82.4228 153.852 82.3929 153.638 82.281 153.443C82.1691 153.249 81.9802 153.083 81.7384 152.966C81.4966 152.85 81.2127 152.788 80.9226 152.789C80.7305 152.789 80.5403 152.816 80.3629 152.87C80.1855 152.924 80.0244 153.002 79.8889 153.101C79.7533 153.2 79.646 153.318 79.5731 153.447C79.5002 153.576 79.4631 153.715 79.464 153.854Z" fill="#E6E6E6"/>
<path d="M69.0162 153.854C69.0175 154.064 69.1041 154.269 69.2652 154.442C69.4263 154.616 69.6545 154.751 69.9212 154.831C70.1878 154.911 70.4809 154.931 70.7634 154.889C71.0459 154.848 71.3052 154.747 71.5085 154.598C71.7118 154.449 71.8501 154.26 71.9058 154.055C71.9616 153.849 71.9323 153.636 71.8217 153.443C71.7111 153.249 71.5242 153.084 71.2845 152.967C71.0447 152.851 70.763 152.789 70.4748 152.789C70.2827 152.789 70.0925 152.816 69.9151 152.87C69.7377 152.924 69.5766 153.002 69.4411 153.101C69.3055 153.2 69.1982 153.318 69.1253 153.447C69.0524 153.576 69.0153 153.715 69.0162 153.854Z" fill="#E6E6E6"/>
<path d="M67.3662 99.7776H61.248C61.8118 101.936 62.1669 104.121 62.3106 106.315C62.3106 108.715 57.651 118.234 64.2906 118.234C70.9302 118.234 66.2706 108.739 66.2706 106.315C66.4252 104.12 66.7913 101.935 67.3662 99.7776Z" fill="#E0E0E0"/>
<path d="M44.088 109.512V112.392C44.095 113.936 44.9414 115.415 46.4425 116.507C47.9436 117.599 49.9775 118.214 52.1004 118.219H56.0604C58.1833 118.214 60.2172 117.599 61.7183 116.507C63.2195 115.415 64.0659 113.936 64.0728 112.392V109.512H44.088Z" fill="#F5F5F5"/>
<path d="M129.142 136.445C129.142 139.805 134.31 142.55 140.626 142.55H146.329C152.645 142.55 157.813 139.805 157.813 136.445H129.142Z" fill="#E0E0E0"/>
<path d="M280.243 131.52C276.784 133.574 272.006 137.333 267.637 142.622C264.719 146.146 262.964 149.822 262.192 154.709C262.192 149.189 262.238 143.261 262.264 137.664C263.142 136.224 265.148 132.902 266.587 130.282C271.385 121.531 273.187 119.376 277.497 111.83C283.259 101.75 289.159 89.8177 287.47 90.7729C284.024 92.7169 270.824 110.693 269.399 113.266C265.513 120.132 263.111 127.394 262.277 134.794C262.277 129.514 262.33 124.714 262.357 120.989C262.449 108.84 262.733 104.918 262.871 103.709C263.406 103.094 264.033 102.379 264.403 101.995C267.505 98.7313 268.699 95.9569 271.616 91.0897C275.761 84.2017 279.325 71.9665 278.282 72.5809C273.94 75.1537 270.521 80.6737 266.02 87.7153C261.518 94.7569 262.805 98.8033 261.914 104.813C261.73 105.994 261.584 110.448 261.479 116.616C260.317 110.04 258.126 105.71 254.133 101.774C249.223 96.9313 244.471 93.6625 240.986 91.9537C237.501 90.2449 247.005 102.139 251.546 107.314C255.592 111.941 259.321 116.016 261.446 120.034C261.334 128.4 261.281 138.989 261.281 148.834C260.238 144.35 258.535 139.517 256.265 135.778C253.532 131.285 249.335 124.392 245.989 122.054C245.19 121.493 249.487 134.899 252.245 138.461C255.004 142.022 257.03 145.387 258.766 147.408C259.169 147.888 260.515 149.698 261.281 150.744C261.281 162.778 261.373 173.395 261.518 177.01H262.231C262.185 176.078 262.172 169.954 262.192 161.851C263.914 157.454 267.848 152.434 271.095 147.854C274.633 142.896 283.701 129.48 280.243 131.52Z" fill="#E0E0E0"/>
<path d="M272.21 184.421H251.526L249.962 169.675H273.775L272.21 184.421Z" fill="#F0F0F0"/>
<path d="M275.312 171.394H248.417L247.652 166.416H276.085L275.312 171.394Z" fill="#F5F5F5"/>
<path d="M82.0116 36.24H45.0186V65.784H82.0116V36.24Z" fill="#E0E0E0"/>
<path d="M86.0178 36.24H47.8038V65.784H86.0178V36.24Z" fill="#F5F5F5"/>
<path d="M82.8168 63.456V38.568H51.0048V63.456H82.8168Z" fill="white"/>
<path d="M75.1014 57.4176V44.5968H58.7136V57.4176H75.1014Z" fill="#F5F5F5"/>
<path d="M270.633 39.6816H236.267V67.128H270.633V39.6816Z" fill="#E0E0E0"/>
<path d="M274.355 39.6816H238.861V67.128H274.355V39.6816Z" fill="#F5F5F5"/>
<path d="M271.385 64.9632V41.8464H241.837V64.9632H271.385Z" fill="white"/>
<path d="M256.608 60.1104C261.7 60.1104 265.828 57.1082 265.828 53.4048C265.828 49.7014 261.7 46.6992 256.608 46.6992C251.516 46.6992 247.388 49.7014 247.388 53.4048C247.388 57.1082 251.516 60.1104 256.608 60.1104Z" fill="#F5F5F5"/>
<path d="M120.443 53.8561H93.0006V75.7729H120.443V53.8561Z" fill="#E0E0E0"/>
<path d="M123.413 53.8561H95.0664V75.7729H123.413V53.8561Z" fill="#F5F5F5"/>
<path d="M121.037 74.0448V55.584H97.4424V74.0448H121.037Z" fill="white"/>
<path d="M109.243 60.144L102.788 68.2752H115.698L109.243 60.144Z" fill="#F5F5F5"/>
<path d="M165 205.229C235.674 205.229 292.967 202.796 292.967 199.795C292.967 196.794 235.674 194.362 165 194.362C94.3255 194.362 37.0326 196.794 37.0326 199.795C37.0326 202.796 94.3255 205.229 165 205.229Z" fill="#F5F5F5"/>
<path d="M230.505 78.4465L223.958 76.5265C223.958 76.5265 215.318 87.9841 212.843 88.5649C209.477 89.3521 202.508 91.5409 198.376 91.9249C197.815 92.4049 196.898 93.8977 196.984 94.4401C202.534 95.7889 214.731 93.9985 217.345 92.5873C223.291 89.3857 230.505 78.4465 230.505 78.4465Z" fill="#E58A7B"/>
<path d="M232.518 75.8401C233.739 79.1185 227.126 85.7137 227.126 85.7137L218.46 82.1809C218.46 82.1809 220.084 79.4689 222.064 76.7089C225.238 72.2497 231.125 72.1009 232.518 75.8401Z" fill="#6D48FF"/>
<path opacity="0.2" d="M232.518 75.8401C233.739 79.1185 227.126 85.7137 227.126 85.7137L218.46 82.1809C218.46 82.1809 220.084 79.4689 222.064 76.7089C225.238 72.2497 231.125 72.1009 232.518 75.8401Z" fill="black"/>
<path opacity="0.2" d="M221.899 83.5921L225.311 84.9841L225.911 77.3665C223.925 78.4753 222.526 81.8161 221.899 83.5921Z" fill="black"/>
<path d="M226.816 73.3728C226.816 73.3728 220.07 84.288 224.004 104.611H250.582C251.005 101.645 249.605 87.168 254.668 73.1904C251.752 72.776 248.802 72.5018 245.837 72.3696C242.076 72.2111 238.305 72.2111 234.544 72.3696C231.937 72.5622 229.353 72.8975 226.816 73.3728Z" fill="#6D48FF"/>
<path opacity="0.2" d="M226.816 73.3728C226.816 73.3728 220.07 84.288 224.004 104.611H250.582C251.005 101.645 249.605 87.168 254.668 73.1904C251.752 72.776 248.802 72.5018 245.837 72.3696C242.076 72.2111 238.305 72.2111 234.544 72.3696C231.937 72.5622 229.353 72.8975 226.816 73.3728Z" fill="black"/>
<g style="mix-blend-mode:multiply">
<path d="M220.651 200.227C220.612 200.746 230.69 201.163 243.157 201.163C255.625 201.163 265.775 200.746 265.815 200.227C265.855 199.709 255.783 199.296 243.309 199.296C230.835 199.296 220.697 199.714 220.651 200.227Z" fill="#E8ECF1"/>
</g>
<path d="M238.392 186.606L233.678 187.933L237.739 195.562L242.453 194.235L238.392 186.606Z" fill="#E58A7B"/>
<path d="M259.413 196.536H254.443L252.622 188.17H257.591L259.413 196.536Z" fill="#E58A7B"/>
<path d="M254.1 196.118H259.684C259.78 196.119 259.874 196.144 259.948 196.19C260.022 196.235 260.071 196.298 260.086 196.368L260.806 199.579C260.821 199.66 260.812 199.742 260.78 199.82C260.747 199.897 260.692 199.969 260.619 200.03C260.545 200.091 260.454 200.14 260.351 200.173C260.249 200.206 260.139 200.223 260.027 200.222C258.08 200.198 257.143 200.112 254.687 200.112C253.176 200.112 250.067 200.227 247.969 200.227C245.87 200.227 245.731 198.73 246.596 198.59C250.477 197.981 251.981 197.15 253.275 196.344C253.503 196.198 253.796 196.118 254.1 196.118Z" fill="#263238"/>
<path d="M237.6 194.88L242.88 193.757C242.974 193.738 243.075 193.742 243.165 193.77C243.255 193.798 243.329 193.848 243.375 193.91L245.355 196.79C245.401 196.863 245.425 196.943 245.424 197.023C245.423 197.104 245.399 197.183 245.351 197.256C245.304 197.328 245.236 197.393 245.151 197.444C245.066 197.496 244.967 197.533 244.86 197.554C242.939 197.938 241.652 198.173 239.25 198.682C237.593 199.032 235.904 199.603 234.267 199.982C233.132 200.246 230.465 200.256 229.086 200.256C227.047 200.256 226.591 198.691 227.469 198.619C229.68 198.442 229.977 198.523 231.198 198.077C233.196 197.442 235.007 196.532 236.531 195.398C236.818 195.16 237.187 194.981 237.6 194.88Z" fill="#263238"/>
<path d="M199.208 91.9056L193.743 90.24L191.492 94.6464C193.732 94.8945 196.011 94.8945 198.251 94.6464L199.208 91.9056Z" fill="#E58A7B"/>
<path d="M189.677 90.1249L189.532 93.0529L191.492 94.6369L193.743 90.2305L189.677 90.1249Z" fill="#E58A7B"/>
<path d="M239.039 187.254L234.31 188.582L236.405 192.527L241.133 191.199L239.039 187.254Z" fill="#CF6F64"/>
<path d="M257.591 188.17H252.622L253.565 192.485H258.535L257.591 188.17Z" fill="#CF6F64"/>
<path opacity="0.2" d="M223.159 99.1153C223.258 99.9841 223.37 100.872 223.516 101.784L243.276 97.1185C246.362 96.4534 249.044 95.043 250.879 93.1201C250.958 91.8385 251.057 90.4897 251.209 89.0833C251.275 88.4017 251.354 87.7009 251.44 86.9905C251.526 86.2801 251.645 85.4929 251.77 84.7345L223.159 99.1153Z" fill="black"/>
<path d="M229.614 83.3713L228.954 83.3137C229.343 80.9137 231.805 79.0225 234.399 79.0705V79.5505C232.129 79.5169 229.964 81.2209 229.614 83.3713Z" fill="white"/>
<path d="M233.132 87.8017H233.02V87.3217C235.29 87.3841 237.422 85.6609 237.772 83.5153L238.432 83.5729C238.082 85.9201 235.699 87.8017 233.132 87.8017Z" fill="white"/>
<path d="M245.467 63.12C244.537 65.7648 243.441 70.608 245.837 72.3696C245.837 72.3696 244.16 75.0528 237.409 75.0528C231.238 75.0528 234.544 72.3696 234.544 72.3696C238.649 71.6688 238.722 69.4896 238.181 67.4256L245.467 63.12Z" fill="#E58A7B"/>
<path d="M242.497 64.8768L238.187 67.4256C238.321 67.8999 238.398 68.3817 238.418 68.8656C239.679 69.7776 242.207 67.4688 242.464 66.288C242.595 65.8232 242.606 65.3447 242.497 64.8768Z" fill="#CF6F64"/>
<path d="M230.776 63.0864C231.076 63.4644 231.479 63.7934 231.962 64.0527C232.445 64.3121 232.996 64.4962 233.581 64.5936C235.165 64.848 235.957 63.7872 235.521 62.7216C235.132 61.7616 233.831 60.4704 232.221 60.6912C231.876 60.7429 231.553 60.8539 231.279 61.015C231.006 61.1761 230.789 61.3826 230.647 61.6172C230.506 61.8517 230.443 62.1075 230.466 62.3631C230.488 62.6188 230.594 62.8668 230.776 63.0864Z" fill="#CF6F64"/>
<path d="M233.396 54.624C230.927 55.4448 230.056 62.5776 233.158 63.6336C236.26 64.6896 238.069 53.064 233.396 54.624Z" fill="#263238"/>
<path d="M246.22 59.1408C245.626 62.7216 245.56 64.8288 242.92 66.6624C242.102 67.2709 241.068 67.7031 239.934 67.9114C238.799 68.1196 237.607 68.0958 236.49 67.8425C235.373 67.5893 234.374 67.1164 233.603 66.4762C232.832 65.8359 232.32 65.0532 232.122 64.2144C231.323 60.9984 232.426 55.6848 237.362 54.2592C238.4 53.9265 239.54 53.8016 240.666 53.8974C241.792 53.9933 242.863 54.3065 243.766 54.8044C244.67 55.3024 245.374 55.9671 245.805 56.7296C246.236 57.4921 246.38 58.3246 246.22 59.1408Z" fill="#E58A7B"/>
<path d="M238.108 56.4768C241.765 55.8 244.451 55.3392 243.487 57.552C242.213 60.5088 240.682 63.3696 242.735 63.4992C243.989 63.5808 249.533 61.872 248.827 60.1392C248.213 58.632 250.807 58.2192 251.269 57.456C252.978 54.6912 248.087 55.056 248.959 53.376C249.83 51.696 244.999 48.9888 242.359 50.3376C238.062 52.5168 230.69 52.4832 234.564 48.8976C237.343 46.3392 232.386 46.8624 232.386 46.8624C232.386 46.8624 235.382 48.1536 230.34 50.1504C225.007 52.2816 229.898 58.008 238.108 56.4768Z" fill="#263238"/>
<path d="M248.16 63.0864C247.438 63.846 246.354 64.3833 245.117 64.5936C243.487 64.848 242.86 63.7872 243.474 62.7216C244.022 61.7616 245.527 60.4704 247.084 60.6912C248.642 60.912 248.998 62.1456 248.16 63.0864Z" fill="#E58A7B"/>
<path d="M224.004 104.611C224.004 104.611 219.542 133.651 219.193 144.672C218.836 156.134 234.313 191.899 234.313 191.899L242.233 189.499C242.233 189.499 232.993 156.821 234.313 145.565C235.712 133.291 241.494 104.63 241.494 104.63L224.004 104.611Z" fill="#6D48FF"/>
<path opacity="0.2" d="M235.092 112.584C231.535 117.95 233.93 128.563 235.858 134.851C236.59 130.411 237.461 125.592 238.286 121.133C238.207 114.278 237.475 108.984 235.092 112.584Z" fill="black"/>
<path d="M241.883 187.598C241.923 187.598 242.821 189.432 242.821 189.432L233.686 192.226L232.247 190.277L241.883 187.598Z" fill="#6D48FF"/>
<path d="M233.435 104.611C233.435 104.611 236.848 132.23 239.105 142.574C241.586 153.907 251.315 191.65 251.315 191.65H260.416C260.416 191.65 254.965 154.824 253.935 143.602C252.813 131.429 250.582 104.611 250.582 104.611H233.435Z" fill="#6D48FF"/>
<path d="M260.555 189.926C260.594 189.926 260.858 191.774 260.858 191.774H250.853L250.14 189.653L260.555 189.926Z" fill="#6D48FF"/>
<path opacity="0.2" d="M257.07 187.738C257.049 187.738 257.029 187.733 257.014 187.723C256.998 187.713 256.987 187.7 256.984 187.685C256.931 187.349 252.014 154.085 251.09 144.005C250.087 133.07 248.068 108.816 248.048 108.571C248.047 108.563 248.048 108.555 248.052 108.548C248.055 108.54 248.061 108.533 248.069 108.527C248.076 108.521 248.085 108.517 248.095 108.514C248.105 108.51 248.116 108.509 248.127 108.509C248.149 108.509 248.17 108.515 248.185 108.525C248.201 108.536 248.211 108.551 248.213 108.566C248.213 108.811 250.252 133.046 251.255 144C252.179 154.08 257.096 187.32 257.143 187.68C257.144 187.688 257.144 187.696 257.141 187.704C257.139 187.712 257.134 187.719 257.127 187.725C257.12 187.732 257.111 187.737 257.102 187.741C257.092 187.744 257.081 187.747 257.07 187.747V187.738Z" fill="black"/>
<path d="M238.669 60.1392C238.669 60.432 238.418 60.6672 238.154 60.6672C237.89 60.6672 237.699 60.432 237.725 60.1392C237.752 59.8464 237.976 59.6112 238.24 59.6112C238.504 59.6112 238.696 59.8512 238.669 60.1392Z" fill="#263238"/>
<path d="M234.142 60.1392C234.142 60.432 233.884 60.6672 233.627 60.6672C233.369 60.6672 233.171 60.432 233.191 60.1392C233.211 59.8464 233.449 59.6112 233.713 59.6112C233.977 59.6112 234.168 59.8512 234.142 60.1392Z" fill="#263238"/>
<path d="M235.567 60.2881C235.016 61.1822 234.306 62.0197 233.455 62.7793C234.115 63.2593 235.349 63.0385 235.349 63.0385L235.567 60.2881Z" fill="#DF5753"/>
<path d="M235.686 64.2624C235.671 64.2624 235.656 64.2602 235.641 64.2558C235.627 64.2514 235.615 64.2449 235.604 64.2368C235.594 64.2287 235.586 64.2191 235.58 64.2087C235.575 64.1982 235.573 64.1871 235.574 64.176C235.575 64.1526 235.589 64.1307 235.613 64.1146C235.636 64.0985 235.667 64.0896 235.699 64.0896C236.204 64.0921 236.703 64.0124 237.16 63.8562C237.617 63.7001 238.02 63.4715 238.339 63.1872C238.362 63.1727 238.391 63.1647 238.422 63.1647C238.452 63.1647 238.481 63.1727 238.504 63.1872C238.526 63.2033 238.538 63.2248 238.538 63.2472C238.538 63.2696 238.526 63.2911 238.504 63.3072C238.162 63.6093 237.732 63.8519 237.244 64.0172C236.756 64.1825 236.224 64.2663 235.686 64.2624Z" fill="#263238"/>
<path d="M239.474 59.2561C239.443 59.2679 239.408 59.274 239.372 59.274C239.337 59.274 239.301 59.2679 239.27 59.2561C239.023 59.14 238.742 59.0678 238.45 59.0453C238.157 59.0228 237.862 59.0506 237.587 59.1265C237.56 59.1362 237.531 59.142 237.501 59.1434C237.471 59.1448 237.441 59.1418 237.413 59.1347C237.384 59.1275 237.358 59.1163 237.336 59.1017C237.314 59.0871 237.296 59.0694 237.283 59.0497C237.259 59.007 237.258 58.959 237.282 58.9159C237.305 58.8729 237.351 58.8382 237.409 58.8193C237.754 58.7168 238.128 58.6764 238.499 58.7014C238.87 58.7265 239.227 58.8163 239.54 58.9633C239.566 58.9758 239.587 58.9918 239.604 59.0105C239.621 59.0291 239.632 59.05 239.638 59.0719C239.643 59.0937 239.643 59.1162 239.636 59.1379C239.63 59.1597 239.617 59.1803 239.6 59.1985C239.566 59.226 239.523 59.246 239.474 59.2561Z" fill="#263238"/>
<path d="M232.393 58.2961C232.357 58.2899 232.325 58.2766 232.3 58.2577C232.278 58.242 232.261 58.2233 232.249 58.2027C232.237 58.1821 232.231 58.16 232.231 58.1377C232.231 58.1153 232.237 58.0932 232.249 58.0726C232.261 58.052 232.278 58.0333 232.3 58.0177C232.553 57.8113 232.868 57.6503 233.221 57.547C233.573 57.4438 233.954 57.4011 234.333 57.4225C234.363 57.4259 234.392 57.4338 234.418 57.4457C234.444 57.4576 234.467 57.4733 234.484 57.4917C234.501 57.5102 234.513 57.531 234.519 57.5529C234.525 57.5749 234.524 57.5975 234.518 57.6193C234.504 57.6637 234.468 57.7029 234.417 57.7294C234.366 57.7559 234.303 57.7679 234.241 57.7633C233.941 57.7495 233.64 57.7856 233.363 57.8688C233.085 57.9519 232.837 58.08 232.637 58.2433C232.607 58.2676 232.568 58.2853 232.525 58.2947C232.482 58.304 232.436 58.3045 232.393 58.2961Z" fill="#263238"/>
<path d="M257.222 77.9137L250.358 76.5841C250.358 76.5841 243.626 88.6369 241.243 89.4193C238.009 90.4945 229.819 94.2193 226.334 95.9809C226.142 96.5809 226.294 98.1697 226.73 98.6065C232.67 97.8193 244.042 94.6369 246.418 93.0193C251.836 89.3281 257.222 77.9137 257.222 77.9137Z" fill="#E58A7B"/>
<path d="M252.43 196.752C252.095 196.771 251.762 196.705 251.486 196.565C251.401 196.509 251.338 196.438 251.302 196.359C251.266 196.28 251.259 196.195 251.282 196.114C251.286 196.063 251.309 196.013 251.349 195.971C251.388 195.929 251.443 195.895 251.506 195.874C252.061 195.667 253.612 196.382 253.79 196.464C253.809 196.473 253.825 196.486 253.833 196.502C253.841 196.517 253.842 196.534 253.836 196.55C253.83 196.567 253.819 196.583 253.803 196.595C253.787 196.608 253.766 196.617 253.744 196.622C253.313 196.699 252.873 196.743 252.43 196.752ZM251.77 196.003C251.72 195.995 251.668 195.995 251.618 196.003C251.593 196.013 251.572 196.027 251.558 196.045C251.544 196.063 251.537 196.083 251.539 196.104C251.522 196.16 251.525 196.218 251.548 196.273C251.571 196.328 251.614 196.377 251.671 196.416C251.929 196.584 252.575 196.603 253.427 196.483C252.92 196.24 252.349 196.077 251.75 196.003H251.77Z" fill="#6D48FF"/>
<path d="M253.711 196.622C253.693 196.627 253.675 196.627 253.658 196.622C253.163 196.421 252.232 195.629 252.371 195.226C252.392 195.162 252.441 195.105 252.512 195.064C252.582 195.023 252.67 195 252.76 195C252.849 194.991 252.939 194.997 253.024 195.016C253.11 195.035 253.188 195.067 253.255 195.11C253.803 195.451 253.836 196.498 253.836 196.55C253.839 196.566 253.835 196.582 253.824 196.596C253.814 196.61 253.797 196.621 253.777 196.627C253.754 196.631 253.731 196.629 253.711 196.622ZM252.826 195.158H252.78C252.628 195.158 252.608 195.221 252.602 195.245C252.523 195.48 253.11 196.08 253.598 196.363C253.596 195.958 253.423 195.563 253.103 195.23C253.027 195.182 252.928 195.156 252.826 195.158Z" fill="#6D48FF"/>
<path d="M234.907 196.152C234.503 196.254 234.064 196.254 233.66 196.152C233.568 196.116 233.49 196.064 233.434 196C233.377 195.936 233.344 195.863 233.336 195.787C233.328 195.74 233.336 195.692 233.361 195.647C233.385 195.603 233.424 195.563 233.475 195.533C234.003 195.187 236.161 195.533 236.405 195.6C236.429 195.604 236.449 195.614 236.464 195.628C236.478 195.642 236.485 195.659 236.485 195.677C236.486 195.695 236.479 195.713 236.466 195.728C236.453 195.743 236.434 195.756 236.412 195.763C235.926 195.923 235.423 196.053 234.907 196.152ZM233.831 195.581C233.756 195.592 233.686 195.617 233.627 195.653C233.606 195.664 233.59 195.68 233.58 195.698C233.571 195.715 233.569 195.735 233.574 195.754C233.578 195.804 233.6 195.853 233.637 195.896C233.674 195.938 233.725 195.974 233.785 195.998C234.135 196.133 234.947 196.027 235.996 195.706C235.289 195.576 234.558 195.534 233.831 195.581Z" fill="#6D48FF"/>
<path d="M236.392 195.763H236.339C235.679 195.677 234.359 195.125 234.32 194.712C234.32 194.616 234.379 194.482 234.696 194.405C234.803 194.377 234.917 194.365 235.03 194.37C235.143 194.375 235.254 194.397 235.356 194.434C236.069 194.688 236.445 195.61 236.465 195.653C236.469 195.667 236.469 195.683 236.463 195.697C236.457 195.711 236.447 195.724 236.432 195.734C236.422 195.746 236.408 195.756 236.392 195.763ZM234.828 194.549H234.762C234.557 194.602 234.557 194.664 234.557 194.683C234.557 194.933 235.514 195.389 236.181 195.542C236.028 195.157 235.703 194.819 235.257 194.582C235.125 194.533 234.972 194.521 234.828 194.549Z" fill="#6D48FF"/>
<path d="M226.895 95.6976L220.011 98.0016L219.212 99.4416L221.753 100.685C221.753 100.685 226.505 100.31 227.858 98.088L226.895 95.6976Z" fill="#E58A7B"/>
<path d="M227.185 98.6881C227.031 97.7262 226.595 96.7996 225.905 95.9713L226.994 95.3761C227.813 96.3305 228.336 97.4035 228.525 98.5201L227.185 98.6881Z" fill="#263238"/>
<path d="M228.36 96.3793C228.506 96.5458 228.577 96.7408 228.565 96.9378C228.552 97.1349 228.457 97.3244 228.291 97.4806C228.126 97.6369 227.898 97.7522 227.639 97.8109C227.38 97.8696 227.103 97.8689 226.844 97.8088C226.586 97.7487 226.359 97.6323 226.195 97.4752C226.031 97.3181 225.937 97.1281 225.927 96.931C225.917 96.7339 225.99 96.5392 226.137 96.3735C226.284 96.2078 226.498 96.0791 226.75 96.0049C227.032 95.9004 227.359 95.881 227.661 95.9512C227.962 96.0213 228.214 96.1751 228.36 96.3793Z" fill="#263238"/>
<path d="M215.358 99.8641L216.275 100.536L222.453 98.6161L220.011 98.0017L215.358 99.8641Z" fill="#E58A7B"/>
<path opacity="0.2" d="M241.883 187.598C241.923 187.598 242.821 189.432 242.821 189.432L233.686 192.226L232.247 190.277L241.883 187.598Z" fill="black"/>
<path opacity="0.2" d="M260.555 189.926C260.594 189.926 260.858 191.774 260.858 191.774H250.853L250.14 189.653L260.555 189.926Z" fill="black"/>
<path d="M259.01 76.5313C260.825 80.7889 253.73 86.6113 253.73 86.6113L243.929 83.7025C245.091 81.2416 246.431 78.8271 247.942 76.4689C250.952 71.7505 257.176 72.2353 259.01 76.5313Z" fill="#6D48FF"/>
<path opacity="0.2" d="M259.01 76.5313C260.825 80.7889 253.73 86.6113 253.73 86.6113L243.929 83.7025C245.091 81.2416 246.431 78.8271 247.942 76.4689C250.952 71.7505 257.176 72.2353 259.01 76.5313Z" fill="black"/>
<path d="M161.621 33.8737H157.403V34.3681H161.621V33.8737Z" fill="#6D48FF"/>
<path d="M216.215 53.4415L215.704 61.6796L216.383 61.7018L216.894 53.4638L216.215 53.4415Z" fill="#6D48FF"/>
<path d="M214.903 36.0913H137.023L129.776 154.037H207.656L214.903 36.0913Z" fill="#6D48FF"/>
<path opacity="0.56" d="M212.579 37.7136H134.699L127.453 155.659H205.333L212.579 37.7136Z" fill="#FAFAFA"/>
<path opacity="0.07" d="M210.256 39.3313H132.376L125.123 157.277H203.003L210.256 39.3313Z" fill="#6D48FF"/>
<path d="M201.392 90.7728H134.917L134.363 99.7968H200.838L201.392 90.7728Z" fill="white"/>
<path d="M171.475 84.1873H135.32L135.076 88.2241H171.23L171.475 84.1873Z" fill="#6D48FF"/>
<path d="M199.894 115.128H133.419L132.865 124.152H199.34L199.894 115.128Z" fill="white"/>
<path opacity="0.47" d="M187.704 136.339H143.002L142.336 147.154H187.037L187.704 136.339Z" fill="#6D48FF"/>
<path d="M184.714 148.834H140.012C139.993 148.837 139.973 148.837 139.953 148.834C139.946 148.82 139.946 148.804 139.953 148.79L140.613 137.971C140.613 137.964 140.615 137.957 140.619 137.95C140.623 137.943 140.629 137.937 140.637 137.932C140.644 137.927 140.653 137.923 140.662 137.921C140.672 137.919 140.682 137.918 140.692 137.918H185.394C185.402 137.915 185.411 137.914 185.42 137.914C185.43 137.914 185.439 137.915 185.447 137.918C185.451 137.924 185.454 137.931 185.454 137.938C185.454 137.944 185.451 137.951 185.447 137.957L184.8 148.8C184.792 148.811 184.78 148.821 184.764 148.827C184.749 148.833 184.732 148.835 184.714 148.834ZM140.092 148.718H184.635L185.295 138.014H140.752L140.092 148.718Z" fill="white"/>
<path d="M163.667 108.542H133.822L133.577 112.584H163.416L163.667 108.542Z" fill="#6D48FF"/>
<path d="M186.853 61.6224C186.682 64.2487 185.398 66.7722 183.176 68.8464C181.532 70.4132 179.416 71.6852 176.99 72.5647C174.565 73.4442 171.895 73.9078 169.184 73.92C166.994 73.9322 164.824 73.6181 162.807 72.9971C160.79 72.3762 158.97 71.4615 157.457 70.3094C155.945 69.1573 154.773 67.7922 154.013 66.2982C153.254 64.8042 152.923 63.213 153.041 61.6224C153.273 58.322 155.23 55.2107 158.512 52.9248C161.793 50.6389 166.152 49.3511 170.696 49.3248C172.888 49.31 175.06 49.6221 177.08 50.242C179.099 50.8619 180.922 51.7764 182.436 52.9289C183.95 54.0814 185.124 55.4475 185.883 56.9428C186.643 58.4381 186.973 60.0308 186.853 61.6224Z" fill="white"/>
<path d="M188.443 51.8977C188.4 52.596 188.059 53.2672 187.466 53.8177C187.028 54.2338 186.465 54.5717 185.82 54.8054C185.175 55.0392 184.465 55.1627 183.744 55.1665C183.046 55.1696 182.357 55.0482 181.738 54.8131C181.119 54.578 180.589 54.2362 180.193 53.8177C179.67 53.2521 179.41 52.5788 179.454 51.8977C179.518 51.0214 180.039 50.1958 180.911 49.5893C181.783 48.9828 182.94 48.641 184.147 48.6337C184.729 48.6298 185.306 48.7127 185.842 48.8771C186.378 49.0416 186.863 49.2842 187.265 49.59C187.668 49.8958 187.98 50.2583 188.183 50.6552C188.385 51.0521 188.474 51.4749 188.443 51.8977Z" fill="#6D48FF"/>
<path d="M142.078 95.2849C142.046 95.6717 141.814 96.0354 141.429 96.3026C141.043 96.5698 140.532 96.7207 139.999 96.7249C139.742 96.7271 139.487 96.691 139.25 96.6186C139.012 96.5463 138.798 96.4393 138.62 96.3044C138.442 96.1694 138.303 96.0093 138.214 95.8339C138.124 95.6586 138.085 95.4717 138.098 95.2849C138.127 94.8973 138.358 94.5323 138.745 94.2646C139.131 93.9969 139.644 93.8468 140.177 93.8449C140.434 93.8434 140.689 93.88 140.926 93.9526C141.163 94.0252 141.377 94.1321 141.555 94.2669C141.732 94.4018 141.871 94.5616 141.961 94.7366C142.051 94.9117 142.091 95.0982 142.078 95.2849Z" fill="#263238"/>
<path d="M150.975 95.2848C150.945 95.672 150.713 96.0363 150.327 96.3038C149.941 96.5713 149.429 96.7218 148.896 96.7248C148.639 96.7264 148.385 96.6897 148.148 96.6171C147.912 96.5445 147.698 96.4374 147.521 96.3025C147.344 96.1676 147.206 96.0078 147.117 95.8327C147.027 95.6577 146.988 95.4712 147.002 95.2848C147.03 94.8981 147.261 94.5338 147.646 94.2662C148.031 93.9986 148.542 93.8479 149.074 93.8448C149.331 93.8426 149.587 93.8788 149.824 93.9511C150.061 94.0234 150.275 94.1304 150.454 94.2653C150.632 94.4003 150.77 94.5604 150.86 94.7358C150.949 94.9111 150.989 95.098 150.975 95.2848Z" fill="#263238"/>
<path d="M159.878 95.2848C159.848 95.672 159.617 96.0363 159.23 96.3038C158.844 96.5713 158.333 96.7218 157.799 96.7248C157.542 96.7264 157.288 96.6897 157.051 96.6171C156.814 96.5446 156.6 96.4376 156.422 96.3028C156.244 96.168 156.106 96.0081 156.016 95.8331C155.926 95.6581 155.886 95.4715 155.899 95.2848C155.929 94.8976 156.16 94.5333 156.547 94.2659C156.933 93.9984 157.444 93.8479 157.978 93.8448C158.235 93.8426 158.49 93.8788 158.727 93.9511C158.964 94.0234 159.179 94.1304 159.357 94.2653C159.535 94.4003 159.673 94.5604 159.763 94.7358C159.853 94.9111 159.892 95.098 159.878 95.2848Z" fill="#263238"/>
<path d="M140.58 119.64C140.548 120.027 140.316 120.39 139.93 120.658C139.545 120.925 139.034 121.076 138.501 121.08C138.244 121.082 137.989 121.045 137.753 120.972C137.516 120.9 137.302 120.793 137.124 120.658C136.946 120.523 136.808 120.363 136.718 120.188C136.628 120.013 136.588 119.827 136.6 119.64C136.63 119.253 136.862 118.888 137.248 118.621C137.634 118.354 138.146 118.203 138.679 118.2C138.936 118.198 139.191 118.235 139.428 118.308C139.664 118.38 139.878 118.487 140.056 118.622C140.234 118.757 140.373 118.917 140.463 119.092C140.553 119.267 140.593 119.453 140.58 119.64Z" fill="#263238"/>
<path d="M149.477 119.64C149.447 120.026 149.216 120.39 148.831 120.657C148.446 120.925 147.936 121.076 147.404 121.08C147.147 121.082 146.892 121.046 146.655 120.974C146.418 120.901 146.203 120.794 146.025 120.659C145.847 120.525 145.709 120.364 145.619 120.189C145.529 120.014 145.49 119.827 145.504 119.64C145.534 119.253 145.765 118.888 146.152 118.621C146.538 118.354 147.049 118.203 147.583 118.2C147.839 118.198 148.094 118.235 148.33 118.308C148.567 118.38 148.78 118.487 148.958 118.622C149.135 118.757 149.273 118.917 149.362 119.092C149.451 119.267 149.49 119.454 149.477 119.64Z" fill="#263238"/>
<path d="M158.4 119.64C158.37 120.027 158.138 120.392 157.752 120.659C157.366 120.926 156.854 121.077 156.321 121.08C156.064 121.081 155.81 121.044 155.574 120.971C155.337 120.898 155.124 120.791 154.946 120.656C154.768 120.522 154.63 120.362 154.54 120.188C154.449 120.013 154.409 119.827 154.42 119.64C154.452 119.253 154.684 118.89 155.07 118.622C155.456 118.355 155.966 118.204 156.499 118.2C156.756 118.198 157.012 118.234 157.249 118.306C157.486 118.379 157.7 118.486 157.879 118.621C158.057 118.756 158.195 118.916 158.285 119.091C158.374 119.266 158.414 119.453 158.4 119.64Z" fill="#263238"/>
<path d="M167.284 119.64C167.252 120.027 167.02 120.39 166.634 120.658C166.248 120.925 165.737 121.076 165.205 121.08C164.948 121.081 164.694 121.044 164.457 120.971C164.221 120.898 164.007 120.791 163.83 120.656C163.652 120.522 163.514 120.362 163.423 120.187C163.333 120.013 163.292 119.826 163.304 119.64C163.336 119.253 163.568 118.89 163.954 118.622C164.339 118.355 164.85 118.204 165.383 118.2C165.64 118.198 165.894 118.235 166.131 118.308C166.368 118.38 166.582 118.487 166.76 118.622C166.938 118.757 167.076 118.917 167.166 119.092C167.256 119.267 167.296 119.453 167.284 119.64Z" fill="#263238"/>
<path d="M176.22 119.64C176.188 120.027 175.956 120.39 175.57 120.658C175.185 120.925 174.674 121.076 174.141 121.08C173.884 121.082 173.629 121.046 173.391 120.974C173.154 120.901 172.94 120.794 172.762 120.659C172.584 120.525 172.445 120.364 172.356 120.189C172.266 120.014 172.227 119.827 172.24 119.64C172.27 119.253 172.502 118.888 172.888 118.621C173.274 118.354 173.786 118.203 174.319 118.2C174.576 118.198 174.831 118.235 175.068 118.308C175.304 118.38 175.518 118.487 175.696 118.622C175.874 118.757 176.013 118.917 176.103 119.092C176.193 119.267 176.233 119.453 176.22 119.64Z" fill="#263238"/>
<path d="M174.869 60.9819C177.632 59.0173 177.778 55.8681 175.197 53.9482C172.615 52.0282 168.283 52.0644 165.52 54.0291C162.758 55.9937 162.611 59.1429 165.193 61.0629C167.775 62.9828 172.107 62.9466 174.869 60.9819Z" fill="#6D48FF"/>
<path d="M183.176 68.8465C181.532 70.4133 179.416 71.6852 176.99 72.5647C174.565 73.4442 171.895 73.9079 169.184 73.9201C166.556 73.9363 163.963 73.482 161.634 72.5972C159.304 71.7124 157.309 70.4243 155.826 68.8465C159.034 66.5233 164.109 65.0065 169.732 65.0065C175.355 65.0065 180.253 66.5233 183.176 68.8465Z" fill="#6D48FF"/>
<path opacity="0.1" d="M174.869 60.9819C177.632 59.0173 177.778 55.8681 175.197 53.9482C172.615 52.0282 168.283 52.0644 165.52 54.0291C162.758 55.9937 162.611 59.1429 165.193 61.0629C167.775 62.9828 172.107 62.9466 174.869 60.9819Z" fill="white"/>
<path opacity="0.1" d="M183.176 68.8465C181.532 70.4133 179.416 71.6852 176.99 72.5647C174.565 73.4442 171.895 73.9079 169.184 73.9201C166.556 73.9363 163.963 73.482 161.634 72.5972C159.304 71.7124 157.309 70.4243 155.826 68.8465C159.034 66.5233 164.109 65.0065 169.732 65.0065C175.355 65.0065 180.253 66.5233 183.176 68.8465Z" fill="white"/>
<path d="M86.0706 101.971C85.4436 102.97 84.7836 104.069 84.2094 105.134C83.6352 106.2 83.0478 107.299 82.5396 108.394C81.502 110.55 80.7117 112.766 80.1768 115.018L80.0316 115.723C80.0178 115.844 80.0334 115.966 80.0778 116.083C80.2336 116.481 80.4789 116.857 80.8038 117.197C81.6514 118.076 82.6346 118.881 83.7342 119.597C84.8936 120.381 86.1097 121.12 87.3774 121.81C88.6446 122.52 89.9778 123.211 91.2912 123.864L90.057 125.549C86.9208 124.555 83.944 123.314 81.18 121.848C79.7054 121.066 78.3746 120.15 77.22 119.122C76.5356 118.51 76.002 117.816 75.6426 117.072C75.4337 116.607 75.3267 116.121 75.3258 115.632C75.3258 115.517 75.3258 115.349 75.3258 115.267V115.032L75.3918 114.552C75.7702 112.051 76.4932 109.584 77.55 107.189C78.0648 106.008 78.6126 104.832 79.2396 103.685C79.8666 102.538 80.5134 101.414 81.312 100.248L86.0706 101.971Z" fill="#E58A7B"/>
<path d="M90.3606 123.566L95.0268 121.848L93.819 125.573C93.819 125.573 90.618 126.226 89.133 125.093L90.3606 123.566Z" fill="#E58A7B"/>
<path d="M99.297 122.458L98.0562 125.539L93.819 125.573L95.0268 121.848L99.297 122.458Z" fill="#E58A7B"/>
<path d="M105.884 84C106.133 84.6652 106.481 85.3089 106.92 85.92C106.792 86.0258 106.626 86.1045 106.442 86.1475C106.257 86.1906 106.06 86.1966 105.871 86.1648L105.884 84Z" fill="#DF5753"/>
<path d="M105.745 84.0288C106.019 84.0288 106.24 83.7817 106.24 83.4768C106.24 83.1719 106.019 82.9248 105.745 82.9248C105.472 82.9248 105.25 83.1719 105.25 83.4768C105.25 83.7817 105.472 84.0288 105.745 84.0288Z" fill="#263238"/>
<path d="M105.6 82.9441L106.603 82.7377C106.603 82.7377 106.115 83.3041 105.6 82.9441Z" fill="#263238"/>
<path d="M92.994 87.5232C93.5946 89.7552 94.1952 93.8496 92.0436 95.3424C92.0436 95.3424 92.8884 97.608 98.5974 97.608C104.874 97.608 101.594 95.3424 101.594 95.3424C98.1684 94.7472 98.2542 92.8992 98.8548 91.1616L92.994 87.5232Z" fill="#E58A7B"/>
<path d="M91.3242 82.4352C91.641 86.1648 91.6674 87.7488 94.2546 89.664C98.1552 92.544 104.386 91.4496 105.607 87.744C106.709 84.384 106.009 78.8544 100.987 77.3712C99.8841 77.0409 98.684 76.9206 97.4998 77.0217C96.3155 77.1228 95.1863 77.4419 94.219 77.9489C93.2516 78.4559 92.4781 79.134 91.9715 79.919C91.465 80.704 91.2422 81.5701 91.3242 82.4352Z" fill="#E58A7B"/>
<path d="M91.8324 78.24C89.2584 78.9216 85.8264 78.4128 87.1728 84.1872C88.5984 90.3024 86.4072 92.3136 86.4072 92.3136C86.4072 92.3136 96.1686 93.8256 106.135 92.2224C106.135 92.2224 103.092 88.3536 103.943 85.5024C105.032 81.9024 104.174 80.5728 104.174 80.5728C104.174 80.5728 95.4492 77.28 91.8324 78.24Z" fill="#263238"/>
<path d="M102.722 84.3792C102.725 85.0884 103.004 85.7824 103.528 86.3808C104.227 87.1584 105.052 86.8608 105.257 86.0352C105.442 85.3104 105.303 84.0288 104.412 83.5296C103.521 83.0304 102.736 83.52 102.722 84.3792Z" fill="#E58A7B"/>
<path d="M89.595 78.8688C88.8558 77.3568 92.3802 75.0288 99.8382 75.9888C107.296 76.9488 107.62 81.4656 107.62 81.4656L106.115 80.16L106.181 81.5328L98.5182 82.6032L89.595 78.8688Z" fill="#263238"/>
<path d="M90.2286 95.5968C90.1846 95.3776 90.26 95.1546 90.4388 94.9753C90.6175 94.796 90.8855 94.6745 91.1856 94.6368C93.5088 94.3584 98.7888 93.792 101.442 94.0608C103.422 94.2624 103.937 95.0976 104.023 95.784C104.036 95.9042 104.014 96.0251 103.958 96.1385C103.902 96.252 103.813 96.3554 103.697 96.4418C103.581 96.5282 103.442 96.5956 103.287 96.6394C103.133 96.6832 102.967 96.7025 102.802 96.696L91.3308 96.3216C91.0604 96.3116 90.803 96.2341 90.6022 96.102C90.4013 95.9699 90.2694 95.7915 90.2286 95.5968Z" fill="#6D48FF"/>
<path opacity="0.6" d="M90.2286 95.5968C90.1846 95.3776 90.26 95.1546 90.4388 94.9753C90.6175 94.796 90.8855 94.6745 91.1856 94.6368C93.5088 94.3584 98.7888 93.792 101.442 94.0608C103.422 94.2624 103.937 95.0976 104.023 95.784C104.036 95.9042 104.014 96.0251 103.958 96.1385C103.902 96.252 103.813 96.3554 103.697 96.4418C103.581 96.5282 103.442 96.5956 103.287 96.6394C103.133 96.6832 102.967 96.7025 102.802 96.696L91.3308 96.3216C91.0604 96.3116 90.803 96.2341 90.6022 96.102C90.4013 95.9699 90.2694 95.7915 90.2286 95.5968Z" fill="black"/>
<path d="M96.8616 179.453L101.119 181.603L108.24 174.581L103.983 172.435L96.8616 179.453Z" fill="#E58A7B"/>
<path d="M86.9352 179.314L91.4298 181.176L97.7328 173.75L93.2382 171.888L86.9352 179.314Z" fill="#E58A7B"/>
<path d="M108.233 174.581L104.564 178.2L100.307 176.054L103.976 172.435L108.233 174.581Z" fill="#CF6F64"/>
<path d="M93.2316 171.888L97.7328 173.755L94.4856 177.581L89.9844 175.714L93.2316 171.888Z" fill="#CF6F64"/>
<path d="M100.452 119.04C100.452 119.04 117.071 134.27 113.949 148.838C111.434 160.603 96.8484 176.534 96.8484 176.534L89.991 174.058C94.8245 167.014 98.9493 159.724 102.333 152.246C103.376 149.925 103.681 147.461 103.224 145.041C102.766 142.622 101.559 140.309 99.693 138.278C91.2714 129.336 77.781 134.659 86.856 119.04H100.452Z" fill="#6D48FF"/>
<path opacity="0.6" d="M100.452 119.04C100.452 119.04 117.071 134.27 113.949 148.838C111.434 160.603 96.8484 176.534 96.8484 176.534L89.991 174.058C94.8245 167.014 98.9493 159.724 102.333 152.246C103.376 149.925 103.681 147.461 103.224 145.041C102.766 142.622 101.559 140.309 99.693 138.278C91.2714 129.336 77.781 134.659 86.856 119.04H100.452Z" fill="black"/>
<path opacity="0.4" d="M108.603 128.822L106.187 127.075C106.187 127.214 110.867 148.224 112.18 154.128C112.955 152.403 113.549 150.638 113.956 148.848C115.5 141.701 112.273 134.4 108.603 128.822Z" fill="black"/>
<path d="M107.87 119.04C107.87 119.04 127.882 138.182 128.449 149.659C128.918 159.259 106.669 177.859 106.669 177.859L100.201 174.816C100.201 174.816 113.223 161.606 116.503 150.816C115.236 140.122 88.44 119.04 88.44 119.04H107.87Z" fill="#6D48FF"/>
<path opacity="0.6" d="M107.87 119.04C107.87 119.04 127.882 138.182 128.449 149.659C128.918 159.259 106.669 177.859 106.669 177.859L100.201 174.816C100.201 174.816 113.223 161.606 116.503 150.816C115.236 140.122 88.44 119.04 88.44 119.04H107.87Z" fill="black"/>
<path d="M83.1138 96.1968C80.9754 96.5664 78.9228 102.221 78.9228 102.221L87.285 106.282C87.285 106.282 90.0702 101.808 89.0934 99.8496C88.0836 97.8096 85.8 95.7312 83.1138 96.1968Z" fill="#6D48FF"/>
<path opacity="0.2" d="M84.7506 99.84L84.1698 104.77L87.2784 106.286C88.1367 104.881 88.7722 103.409 89.1726 101.899L84.7506 99.84Z" fill="black"/>
<path d="M110.345 96.3072C110.345 96.3072 112.814 96.936 107.87 119.035H86.8428C87.1992 112.795 87.2058 108.955 83.1138 96.1968C86.0581 95.7555 89.0426 95.4699 92.0436 95.3424C95.223 95.1766 98.4145 95.1766 101.594 95.3424C105.699 95.616 110.345 96.3072 110.345 96.3072Z" fill="#6D48FF"/>
<path d="M112.484 99.8401C112.959 100.8 113.461 101.832 113.989 102.826C114.517 103.819 115.018 104.842 115.553 105.85L117.17 108.864L117.579 109.618L117.79 109.992L117.889 110.179C117.889 110.213 117.889 110.213 117.889 110.208C117.769 110.084 117.611 109.983 117.427 109.91C117.166 109.799 116.872 109.735 116.569 109.723C116.318 109.718 116.068 109.752 115.837 109.824C115.533 109.925 115.533 109.968 115.54 109.963C115.594 109.931 115.643 109.894 115.685 109.853C116.05 109.504 116.366 109.129 116.629 108.734C116.939 108.293 117.236 107.822 117.533 107.347C118.114 106.387 118.648 105.394 119.183 104.39C119.717 103.387 120.226 102.374 120.721 101.352L122.225 98.2897L124.766 98.7697C124.265 100.958 123.618 103.09 122.839 105.259C122.463 106.339 122.021 107.41 121.519 108.49C121.268 109.032 120.991 109.57 120.674 110.122C120.344 110.721 119.938 111.296 119.46 111.84C119.284 112.023 119.09 112.196 118.879 112.358C118.542 112.623 118.133 112.834 117.678 112.978C117.274 113.104 116.837 113.163 116.398 113.15C115.906 113.137 115.426 113.033 115.005 112.848C114.508 112.622 114.095 112.311 113.804 111.941C113.705 111.816 113.619 111.691 113.56 111.6L113.434 111.418L113.183 111.043L112.682 110.299C112.022 109.301 111.362 108.293 110.788 107.28C110.213 106.267 109.606 105.24 109.039 104.208C108.471 103.176 107.963 102.144 107.481 101.03L112.484 99.8401Z" fill="#E58A7B"/>
<path d="M110.345 96.3072C112.873 96.744 115.718 102.178 115.718 102.178L108.2 106.829C108.2 106.829 103.336 100.906 104.32 98.952C105.343 96.9168 107.045 95.736 110.345 96.3072Z" fill="#6D48FF"/>
<path d="M123.42 96.5712L126.06 94.968L127.895 97.0464L126.542 98.7792C126.542 98.7792 124.39 100.219 122.489 99.4848C122.188 98.9916 122.115 98.4404 122.283 97.9146C122.451 97.3888 122.85 96.9172 123.42 96.5712Z" fill="#E58A7B"/>
<path d="M130.825 94.9728L130.627 95.496L126.449 96.0048L126.04 94.968L130.825 94.9728Z" fill="#E58A7B"/>
<path d="M107.184 178.104L99.6468 174.562L101 172.853L109.468 176.64L107.184 178.104Z" fill="#6D48FF"/>
<path d="M94.38 180.926C93.7187 180.868 93.0833 180.704 92.5188 180.446C92.4955 180.441 92.4754 180.429 92.4611 180.415C92.4468 180.4 92.4391 180.383 92.4391 180.365C92.4391 180.347 92.4468 180.329 92.4611 180.315C92.4754 180.3 92.4955 180.289 92.5188 180.283C92.7234 180.235 94.4988 179.837 95.0136 180.144C95.0715 180.179 95.1155 180.225 95.141 180.276C95.1665 180.328 95.1727 180.383 95.1588 180.437C95.1497 180.523 95.1103 180.607 95.0445 180.679C94.9786 180.751 94.8885 180.81 94.7826 180.85C94.659 180.899 94.5208 180.925 94.38 180.926ZM92.895 180.398C93.72 180.706 94.38 180.816 94.6968 180.701C94.7658 180.673 94.8239 180.633 94.8655 180.584C94.9071 180.535 94.9308 180.48 94.9344 180.422C94.9344 180.346 94.9344 180.312 94.875 180.293C94.5978 180.13 93.6078 180.254 92.8818 180.398H92.895Z" fill="#263238"/>
<path d="M92.565 180.48C92.5302 180.48 92.497 180.469 92.4726 180.451C92.4628 180.438 92.4576 180.423 92.4576 180.408C92.4576 180.393 92.4628 180.378 92.4726 180.365C92.4726 180.322 92.9016 179.28 93.5748 179.045C93.6608 179.016 93.7542 179.001 93.8487 179.001C93.9432 179.001 94.0366 179.016 94.1226 179.045C94.2153 179.066 94.2955 179.109 94.3505 179.168C94.4056 179.226 94.4322 179.296 94.4262 179.366C94.38 179.798 93.1722 180.394 92.6178 180.494L92.565 180.48ZM93.8454 179.17C93.7812 179.171 93.7182 179.182 93.6606 179.203C93.2514 179.347 92.9148 179.909 92.7498 180.25C93.3306 180.072 94.1292 179.602 94.1556 179.338C94.1556 179.294 94.1556 179.242 94.0038 179.194C93.9544 179.174 93.9008 179.161 93.8454 179.155V179.17Z" fill="#263238"/>
<path d="M103.798 183C103.052 183 102.016 182.304 101.449 181.877C101.434 181.862 101.426 181.845 101.426 181.826C101.426 181.808 101.434 181.791 101.449 181.776C101.462 181.761 101.48 181.748 101.502 181.739C101.524 181.731 101.549 181.727 101.574 181.728C101.838 181.728 104.128 181.978 104.452 182.448C104.486 182.49 104.504 182.538 104.504 182.587C104.504 182.636 104.486 182.684 104.452 182.726C104.403 182.8 104.33 182.863 104.239 182.91C104.147 182.957 104.041 182.986 103.93 182.995L103.798 183ZM101.884 181.944C102.716 182.53 103.448 182.856 103.864 182.818C103.937 182.811 104.006 182.791 104.066 182.76C104.126 182.729 104.175 182.688 104.207 182.64C104.222 182.624 104.23 182.604 104.23 182.585C104.23 182.565 104.222 182.546 104.207 182.53C104.036 182.27 102.815 182.05 101.884 181.944Z" fill="#263238"/>
<path d="M101.957 181.92C101.809 181.923 101.66 181.915 101.515 181.896C101.494 181.894 101.475 181.888 101.459 181.879C101.443 181.869 101.43 181.857 101.422 181.843C101.412 181.829 101.407 181.813 101.407 181.798C101.407 181.782 101.412 181.766 101.422 181.752C101.462 181.718 102.353 180.936 103.198 180.883C103.437 180.87 103.674 180.925 103.858 181.037C104.115 181.2 104.102 181.344 104.036 181.435C103.871 181.762 102.729 181.92 101.957 181.92ZM101.785 181.742C102.524 181.771 103.706 181.594 103.858 181.358C103.858 181.358 103.91 181.282 103.739 181.176C103.671 181.133 103.591 181.1 103.504 181.081C103.418 181.061 103.327 181.054 103.237 181.061C102.668 181.176 102.161 181.416 101.785 181.747V181.742Z" fill="#263238"/>
<path d="M92.7432 179.962L87.1464 178.81C87.0499 178.788 86.946 178.794 86.8547 178.825C86.7634 178.856 86.6909 178.91 86.6514 178.978L84.7638 182.064C84.7195 182.143 84.6986 182.228 84.7027 182.313C84.7068 182.399 84.7356 182.482 84.7874 182.559C84.8391 182.636 84.9126 182.703 85.0029 182.758C85.0933 182.812 85.1985 182.852 85.3116 182.875C87.2916 183.25 88.242 183.355 90.7038 183.869C92.2218 184.176 94.3866 184.747 96.4788 185.179C98.571 185.611 99.2706 184.128 98.4588 183.811C94.7892 182.4 94.4988 181.411 93.4956 180.355C93.3159 180.164 93.0496 180.025 92.7432 179.962Z" fill="#6D48FF"/>
<path d="M101.6 181.315L96.822 178.915C96.741 178.872 96.6412 178.852 96.5414 178.86C96.4416 178.867 96.3489 178.9 96.2808 178.954L93.1128 181.43C93.0356 181.494 92.9781 181.57 92.9439 181.651C92.9098 181.733 92.8999 181.818 92.9149 181.903C92.9298 181.987 92.9694 182.068 93.0308 182.141C93.0923 182.213 93.1742 182.276 93.2712 182.323C94.9542 183.144 95.8254 183.475 97.9308 184.536C99.2508 185.189 101.805 186.638 103.587 187.541C105.369 188.443 106.696 187.205 106.062 186.715C103.224 184.512 102.604 183.13 102.135 181.877C102.054 181.65 101.864 181.451 101.6 181.315Z" fill="#6D48FF"/>
<path d="M97.7262 176.851L89.1132 173.736L90.0042 172.037L99.2046 175.32L97.7262 176.851Z" fill="#6D48FF"/>
<path d="M86.526 118.138L85.8 119.52C85.7274 119.626 85.899 119.736 86.1432 119.736H107.976C108.167 119.736 108.326 119.669 108.339 119.582L108.524 118.21C108.524 118.118 108.372 118.037 108.167 118.037H86.8692C86.8051 118.032 86.7405 118.039 86.6807 118.057C86.621 118.074 86.568 118.102 86.526 118.138Z" fill="#6D48FF"/>
<path opacity="0.4" d="M86.526 118.138L85.8 119.52C85.7274 119.626 85.899 119.736 86.1432 119.736H107.976C108.167 119.736 108.326 119.669 108.339 119.582L108.524 118.21C108.524 118.118 108.372 118.037 108.167 118.037H86.8692C86.8051 118.032 86.7405 118.039 86.6807 118.057C86.621 118.074 86.568 118.102 86.526 118.138Z" fill="white"/>
<path d="M89.9646 119.87H89.3904C89.2782 119.87 89.1924 119.827 89.199 119.774L89.4696 117.994C89.4696 117.946 89.5752 117.902 89.6874 117.902H90.2616C90.3738 117.902 90.4596 117.946 90.453 117.994L90.1824 119.774C90.1758 119.827 90.0768 119.87 89.9646 119.87Z" fill="#6D48FF"/>
<path d="M103.429 119.87H102.861C102.749 119.87 102.663 119.827 102.67 119.774L102.934 117.994C102.934 117.946 103.046 117.902 103.158 117.902H103.726C103.838 117.902 103.93 117.946 103.917 117.994L103.653 119.774C103.62 119.827 103.547 119.87 103.429 119.87Z" fill="#6D48FF"/>
<g style="mix-blend-mode:multiply">
<path d="M89.463 201.158C99.2282 201.158 107.144 200.742 107.144 200.227C107.144 199.713 99.2282 199.296 89.463 199.296C79.6978 199.296 71.7816 199.713 71.7816 200.227C71.7816 200.742 79.6978 201.158 89.463 201.158Z" fill="#F5F5F5"/>
</g>
<path d="M100.234 198.912C97.1058 198.25 93.6342 197.4 91.5354 196.512C91.476 196.483 91.41 196.469 91.3506 196.445V186.144H97.68C98.1605 186.123 98.612 185.97 98.9421 185.715C99.2722 185.46 99.4561 185.124 99.4561 184.774C99.4561 184.424 99.2722 184.087 98.9421 183.832C98.612 183.577 98.1605 183.424 97.68 183.403H91.3836V136.45H87.582V183.403H81.2922C81.0354 183.392 80.7782 183.419 80.5364 183.483C80.2945 183.547 80.0732 183.646 79.886 183.775C79.6988 183.903 79.5496 184.058 79.4476 184.23C79.3457 184.401 79.2931 184.586 79.2931 184.774C79.2931 184.961 79.3457 185.146 79.4476 185.318C79.5496 185.489 79.6988 185.644 79.886 185.773C80.0732 185.901 80.2945 186 80.5364 186.064C80.7782 186.128 81.0354 186.155 81.2922 186.144H87.582V196.43C87.5226 196.43 87.4632 196.469 87.4038 196.498C85.272 197.4 81.8268 198.25 78.6984 198.898C78.4871 198.944 78.3057 199.044 78.1869 199.179C78.0682 199.315 78.02 199.477 78.0511 199.636C78.0822 199.794 78.1905 199.94 78.3565 200.046C78.5225 200.152 78.7351 200.211 78.9558 200.213H99.9768C100.188 200.202 100.387 200.14 100.542 200.035C100.697 199.93 100.798 199.79 100.829 199.638C100.859 199.486 100.816 199.331 100.708 199.199C100.6 199.066 100.433 198.965 100.234 198.912Z" fill="#E0E0E0"/>
<path d="M101.204 131.669H77.7348C75.8467 131.669 74.316 132.782 74.316 134.155V139.229C74.316 140.602 75.8467 141.715 77.7348 141.715H101.204C103.093 141.715 104.623 140.602 104.623 139.229V134.155C104.623 132.782 103.093 131.669 101.204 131.669Z" fill="#6D48FF"/>
<path d="M77.517 141.72V142.594C77.517 143.314 78.5928 143.899 79.9128 143.899H99.0528C100.373 143.899 101.449 143.314 101.449 142.594V141.72H77.517Z" fill="#6D48FF"/>
<path opacity="0.3" d="M77.517 141.72V142.594C77.517 143.314 78.5928 143.899 79.9128 143.899H99.0528C100.373 143.899 101.449 143.314 101.449 142.594V141.72H77.517Z" fill="white"/>
</svg>
