<svg width="330" height="240" viewBox="0 0 330 240" fill="none" xmlns="http://www.w3.org/2000/svg">
<path d="M330 183.552H0V183.672H330V183.552Z" fill="#EBEBEB"/>
<path d="M90.8556 186.821H68.9964V186.94H90.8556V186.821Z" fill="#EBEBEB"/>
<path d="M139.847 191.218H112.952V191.337H139.847V191.218Z" fill="#EBEBEB"/>
<path d="M68.3364 189.715H34.6236V189.835H68.3364V189.715Z" fill="#EBEBEB"/>
<path d="M296.934 187.627H235.462V187.747H296.934V187.627Z" fill="#EBEBEB"/>
<path d="M229.588 187.627H225.41V187.747H229.588V187.627Z" fill="#EBEBEB"/>
<path d="M210.83 189.653H182.959V189.772H210.83V189.653Z" fill="#EBEBEB"/>
<path d="M156.42 162.144H28.9806C27.9823 162.143 27.0254 161.853 26.3201 161.34C25.6148 160.826 25.2186 160.129 25.2186 159.403V29.1168C25.2273 28.3949 25.6273 27.7047 26.3317 27.196C27.0361 26.6873 27.988 26.4013 28.9806 26.4H156.42C157.42 26.4 158.378 26.6888 159.085 27.2028C159.792 27.7168 160.189 28.4139 160.189 29.1408V159.403C160.189 160.13 159.792 160.827 159.085 161.341C158.378 161.855 157.42 162.144 156.42 162.144ZM28.9806 26.496C28.026 26.4973 27.1111 26.774 26.4368 27.2653C25.7624 27.7567 25.3836 28.4226 25.3836 29.1168V159.403C25.3836 160.097 25.7624 160.763 26.4368 161.255C27.1111 161.746 28.026 162.023 28.9806 162.024H156.42C157.375 162.023 158.291 161.746 158.966 161.255C159.642 160.764 160.022 160.098 160.024 159.403V29.1168C160.022 28.4221 159.642 27.7563 158.966 27.265C158.291 26.7738 157.375 26.4973 156.42 26.496H28.9806Z" fill="#EBEBEB"/>
<path d="M299.185 162.144H171.739C170.74 162.143 169.782 161.854 169.076 161.34C168.369 160.826 167.972 160.13 167.97 159.403V29.1168C167.98 28.3945 168.382 27.7042 169.087 27.1957C169.793 26.6871 170.745 26.4012 171.739 26.4H299.185C300.176 26.4025 301.126 26.6891 301.829 27.1977C302.532 27.7062 302.931 28.3957 302.94 29.1168V159.403C302.94 160.128 302.545 160.824 301.841 161.338C301.137 161.852 300.182 162.141 299.185 162.144ZM171.739 26.496C170.783 26.4973 169.868 26.7738 169.192 27.265C168.517 27.7563 168.137 28.4221 168.135 29.1168V159.403C168.137 160.098 168.517 160.764 169.192 161.255C169.868 161.746 170.783 162.023 171.739 162.024H299.185C300.14 162.023 301.055 161.746 301.731 161.255C302.406 160.764 302.786 160.098 302.788 159.403V29.1168C302.786 28.4221 302.406 27.7563 301.731 27.265C301.055 26.7738 300.14 26.4973 299.185 26.496H171.739Z" fill="#EBEBEB"/>
<path d="M152.057 183.552V86.9856H98.7624V183.552H152.057Z" fill="#F0F0F0"/>
<path d="M149.127 117.835V89.4097H101.686V117.835H149.127Z" fill="#E6E6E6"/>
<path d="M149.134 148.814V120.389H101.693V148.814H149.134Z" fill="#E6E6E6"/>
<path d="M149.134 179.789V151.363H101.693V179.789H149.134Z" fill="#E6E6E6"/>
<path d="M149.134 117.835V89.4097H130.475V117.835H149.134Z" fill="#E0E0E0"/>
<path d="M149.127 148.81V120.384H130.469V148.81H149.127Z" fill="#E0E0E0"/>
<path d="M122.12 137.458H109.19V148.814H122.12V137.458Z" fill="#FAFAFA"/>
<path d="M103.732 148.81H109.19V137.453H103.732V148.81Z" fill="#F0F0F0"/>
<path d="M143.002 137.458H130.073V148.814H143.002V137.458Z" fill="#FAFAFA"/>
<path d="M124.621 148.81H130.079V137.453H124.621V148.81Z" fill="#F0F0F0"/>
<path d="M132.792 126.101H119.863V137.458H132.792V126.101Z" fill="#FAFAFA"/>
<path d="M114.404 137.458H119.863V126.101H114.404V137.458Z" fill="#F0F0F0"/>
<path d="M149.134 179.789V151.363H130.475V179.789H149.134Z" fill="#E0E0E0"/>
<path d="M98.7624 183.552L98.7624 86.9856H84.2886L84.2886 183.552H98.7624Z" fill="#F5F5F5"/>
<path d="M145.913 155.462H107.389V179.789H145.913V155.462Z" fill="#F0F0F0"/>
<path d="M101.693 179.784H107.395V155.458H101.693V179.784Z" fill="#E0E0E0"/>
<path d="M145.913 93.5088H107.389V117.835H145.913V93.5088Z" fill="#F0F0F0"/>
<path d="M101.693 117.83H107.395V93.504H101.693V117.83Z" fill="#E0E0E0"/>
<path d="M281.16 183.552V42.0817L189.341 42.0817V183.552H281.16Z" fill="#FAFAFA"/>
<path d="M189.341 183.552V42.0817H188.998V183.552H189.341Z" fill="#F0F0F0"/>
<path d="M270.93 46.7233H195.98V183.552H270.93V46.7233Z" fill="#E6E6E6"/>
<path d="M274.943 46.7233H197.855V183.552H274.943V46.7233Z" fill="#F0F0F0"/>
<path d="M269.326 116.275V117.998L271.696 116.275H269.326Z" fill="#E0E0E0"/>
<path d="M269.326 179.467V50.8129H203.471V179.467H269.326Z" fill="#FAFAFA"/>
<path d="M257.083 115.574C256.6 115.574 256.137 115.714 255.795 115.962C255.454 116.211 255.262 116.548 255.262 116.899C255.262 117.251 255.454 117.588 255.795 117.836C256.137 118.084 256.6 118.224 257.083 118.224H268.62V115.574H257.083Z" fill="#F5F5F5"/>
<path d="M217.919 179.467L238.016 50.8129H251.552L231.455 179.467H217.919Z" fill="white"/>
<path d="M234.366 179.467L254.463 50.8129H259.743L239.646 179.467H234.366Z" fill="white"/>
<path d="M269.326 179.462V50.808H268.613V179.462H269.326Z" fill="#E6E6E6"/>
<path d="M271.069 116.462H259.538C259.056 116.461 258.593 116.321 258.252 116.073C257.911 115.825 257.719 115.489 257.717 115.138C257.719 114.787 257.911 114.45 258.252 114.202C258.593 113.954 259.056 113.814 259.538 113.813H271.069C271.552 113.813 272.015 113.952 272.357 114.201C272.698 114.449 272.89 114.786 272.89 115.138C272.89 115.489 272.698 115.826 272.357 116.074C272.015 116.323 271.552 116.462 271.069 116.462Z" fill="#EBEBEB"/>
<path d="M74.6196 58.488H42.2202V95.9712H74.6196V58.488Z" fill="#E0E0E0"/>
<path d="M76.5666 58.488H43.0716V95.9712H76.5666V58.488Z" fill="#F5F5F5"/>
<path d="M45.8832 61.2192V93.2352H73.7682V61.2192H45.8832Z" fill="white"/>
<path d="M120.364 40.4016H87.9648V77.8848H120.364V40.4016Z" fill="#E0E0E0"/>
<path d="M122.318 40.4016H88.8228V77.8848H122.318V40.4016Z" fill="#F5F5F5"/>
<path d="M91.6278 43.1377V75.1537H119.513V43.1377H91.6278Z" fill="white"/>
<path d="M165 205.229C235.674 205.229 292.967 202.796 292.967 199.795C292.967 196.794 235.674 194.362 165 194.362C94.3255 194.362 37.0326 196.794 37.0326 199.795C37.0326 202.796 94.3255 205.229 165 205.229Z" fill="#F5F5F5"/>
<path d="M107.996 60.1104C109.415 61.4784 109.586 63.1583 108.062 65.8703C107.402 66.9839 106.544 68.0735 104.63 66.2063C102.716 64.3391 101.072 60.9264 103.97 60.624C106.867 60.3216 107.996 60.1104 107.996 60.1104Z" fill="#263238"/>
<path d="M107.382 195.307H112.286L112.497 187.046H107.593L107.382 195.307Z" fill="#FFC3BD"/>
<path d="M70.9764 188.971L75.7284 189.85L80.6454 182.242L75.8934 181.363L70.9764 188.971Z" fill="#FFC3BD"/>
<path d="M76.362 189.485L71.1414 188.203C71.0503 188.18 70.9511 188.181 70.8608 188.206C70.7705 188.23 70.6947 188.277 70.6464 188.338L68.4354 191.136C68.3823 191.205 68.3509 191.282 68.3435 191.361C68.3361 191.441 68.3529 191.52 68.3926 191.594C68.4324 191.668 68.4941 191.734 68.5734 191.789C68.6527 191.843 68.7475 191.884 68.8512 191.909C70.686 192.336 71.6034 192.475 73.9002 193.042C75.3126 193.387 79.332 194.616 81.2856 195.096C83.2392 195.576 84.0906 194.227 83.3514 193.901C80.0184 192.461 77.847 190.92 77.022 189.883C76.875 189.697 76.6407 189.556 76.362 189.485Z" fill="#263238"/>
<path d="M112.24 194.88H106.92C106.824 194.88 106.731 194.903 106.657 194.947C106.582 194.991 106.531 195.052 106.511 195.12L105.6 198.307C105.581 198.385 105.585 198.465 105.613 198.541C105.641 198.618 105.692 198.689 105.762 198.749C105.832 198.81 105.919 198.858 106.018 198.891C106.116 198.924 106.224 198.941 106.333 198.941C108.26 198.941 111.052 198.835 113.474 198.835C116.318 198.835 116.912 198.946 120.239 198.946C122.252 198.946 122.76 197.467 121.915 197.333C118.054 196.723 116.787 196.656 113.421 195.173C113.071 194.999 112.663 194.897 112.24 194.88Z" fill="#263238"/>
<path d="M110.966 82.5168L117.658 80.9568C117.658 80.9568 124.575 92.6016 126.898 93.3264C130.053 94.2864 132.521 95.9232 136.567 96.2064C137.115 96.6624 138.013 98.1264 137.927 98.6736C132.495 100.162 124.126 98.5824 121.823 97.032C116.549 93.5088 110.966 82.5168 110.966 82.5168Z" fill="#FFC3BD"/>
<path d="M109.402 79.8383C107.521 82.9583 115.078 92.8655 115.078 92.8655L125.077 89.5055C123.849 86.4817 122.187 83.56 120.12 80.7887C116.978 76.7999 111.467 76.4111 109.402 79.8383Z" fill="#6D48FF"/>
<path opacity="0.5" d="M109.402 79.8383C107.521 82.9583 115.078 92.8655 115.078 92.8655L125.077 89.5055C123.849 86.4817 122.187 83.56 120.12 80.7887C116.978 76.7999 111.467 76.4111 109.402 79.8383Z" fill="black"/>
<path d="M135.736 96.2111L139.511 94.7711L141.431 98.8079C141.431 98.8079 140.197 99.2063 136.673 98.8895L135.736 96.2111Z" fill="#FFC3BD"/>
<path d="M143.273 93.7584L144.481 97.2096L141.431 98.8224L139.511 94.7856L143.273 93.7584Z" fill="#FFC3BD"/>
<path opacity="0.2" d="M112.497 187.051L112.391 191.309H107.481L107.593 187.051H112.497Z" fill="black"/>
<path opacity="0.2" d="M75.8868 181.363L80.6454 182.242L78.1044 186.163L73.3524 185.285L75.8868 181.363Z" fill="black"/>
<path d="M115.81 77.8128C115.81 77.8128 121.961 90.0672 117.13 110.122H90.915C90.6312 107.194 92.6838 91.4256 88.3344 77.6304C91.2243 77.2229 94.1477 76.9535 97.086 76.824C100.799 76.6679 104.521 76.6679 108.233 76.824C110.79 77.0122 113.323 77.3428 115.81 77.8128Z" fill="#6D48FF"/>
<path opacity="0.5" d="M115.81 77.8128C115.81 77.8128 121.961 90.0672 117.13 110.122H90.915C90.6312 107.194 92.6838 91.4256 88.3344 77.6304C91.2243 77.2229 94.1477 76.9535 97.086 76.824C100.799 76.6679 104.521 76.6679 108.233 76.824C110.79 77.0122 113.323 77.3428 115.81 77.8128Z" fill="black"/>
<path opacity="0.2" d="M94.149 81.0384C94.6572 83.3088 93.8586 88.7184 91.0932 95.016C90.9594 89.6385 90.1732 84.2801 88.7436 79.0032V78.9744C90.4662 78.8496 93.654 78.9072 94.149 81.0384Z" fill="black"/>
<path d="M98.2872 69.24C99.0792 71.8512 99.5346 75.0816 97.086 76.824C97.086 76.824 98.6172 79.4688 105.283 79.4688C111.375 79.4688 108.233 76.824 108.233 76.824C104.214 76.128 104.273 72.5328 104.933 70.5072L98.2872 69.24Z" fill="#FFC3BD"/>
<path d="M105.283 79.4688C104.587 80.2125 104.175 81.0771 104.089 81.9744C104.089 81.9744 95.667 79.8336 95.9508 76.6944C95.9508 76.6944 97.119 76.1808 97.8582 75.7632C97.8582 75.768 98.2146 78.24 105.283 79.4688Z" fill="white"/>
<path d="M105.283 79.4688C105.999 80.1806 106.576 80.9607 106.999 81.7872C106.999 81.7872 110.722 79.9248 109.481 76.824C108.78 76.6233 108.058 76.4628 107.323 76.344C107.323 76.344 107.89 78.8016 105.283 79.4688Z" fill="white"/>
<path opacity="0.2" d="M104.94 70.5072C104.446 71.9177 104.503 73.4006 105.105 74.7888C104.483 74.7213 103.878 74.587 103.31 74.3904C101.026 73.6176 99.8712 72.4032 98.6568 70.5936C98.5512 70.1136 98.4324 69.6816 98.2938 69.24L104.94 70.5072Z" fill="black"/>
<path d="M111.058 68.2943C110.807 68.6903 110.448 69.0452 110.003 69.338C109.559 69.6308 109.038 69.8554 108.471 69.9983C106.946 70.3727 106.075 69.3791 106.405 68.2847C106.702 67.3247 107.851 65.9231 109.421 66.0239C109.767 66.0528 110.097 66.1427 110.383 66.2857C110.67 66.4286 110.904 66.6204 111.066 66.8442C111.227 67.0681 111.311 67.3172 111.309 67.57C111.308 67.8227 111.222 68.0714 111.058 68.2943Z" fill="#FFC3BD"/>
<path opacity="0.2" d="M111.058 68.2943C110.807 68.6903 110.448 69.0452 110.003 69.338C109.559 69.6308 109.038 69.8554 108.471 69.9983C106.946 70.3727 106.075 69.3791 106.405 68.2847C106.702 67.3247 107.851 65.9231 109.421 66.0239C109.767 66.0528 110.097 66.1427 110.383 66.2857C110.67 66.4286 110.904 66.6204 111.066 66.8442C111.227 67.0681 111.311 67.3172 111.309 67.57C111.308 67.8227 111.222 68.0714 111.058 68.2943Z" fill="black"/>
<path d="M96.0564 65.4959C96.954 69.0047 97.2378 71.0927 99.9636 72.7199C104.069 75.1727 109.712 73.1039 110.253 69.4847C110.741 66.2303 109.197 61.0367 104.267 59.9855C103.187 59.7509 102.041 59.7248 100.943 59.9097C99.8451 60.0946 98.8321 60.4842 98.0037 61.0401C97.1754 61.5961 96.5602 62.2992 96.2188 63.0805C95.8774 63.8618 95.8214 64.6942 96.0564 65.4959Z" fill="#FFC3BD"/>
<path d="M99.396 61.4832C100.505 62.9904 99.924 63.9744 98.3928 66.6576C97.7328 67.7712 96.69 68.9568 94.9608 66.9936C93.3306 65.1408 90.8424 61.7136 92.9808 61.3392C95.8386 60.8688 99.396 61.4832 99.396 61.4832Z" fill="#263238"/>
<path d="M98.0034 62.4672C99.9834 62.9472 101.554 62.2224 101.93 61.5312C103.514 62.04 105.593 62.1072 106.267 61.4544C107.587 61.4544 108.999 61.6272 109.633 60.2544C110.266 58.8816 109.481 57.648 107.408 56.952C107.362 57.2592 106.286 57.6576 105.277 57.1488C104.71 56.9169 104.064 56.8089 103.415 56.8379C102.767 56.8668 102.143 57.0315 101.62 57.312C99.462 56.904 97.9374 56.6784 96.6966 57.7104C94.644 57.3984 92.1426 58.752 92.4858 59.928C90.8754 61.368 92.433 62.5632 94.083 62.7696C94.413 63.36 97.5678 63.0768 98.0034 62.4672Z" fill="#263238"/>
<path d="M94.5582 69.5568C95.3218 70.2579 96.4334 70.7129 97.6536 70.824C99.2574 70.9584 99.7722 69.864 99.0858 68.8464C98.4654 67.9296 96.8814 66.7632 95.3898 67.0944C93.8982 67.4256 93.621 68.6832 94.5582 69.5568Z" fill="#FFC3BD"/>
<path d="M99.9042 110.122C99.9042 110.122 100.426 114.605 101.086 120.682C101.845 127.57 102.775 136.522 103.33 143.323C103.33 143.362 103.33 143.39 103.33 143.419C103.435 144.71 103.528 145.925 103.6 147.034C104.346 158.146 105.877 190.483 105.877 190.483H114.18C114.18 190.483 118.358 157.483 118.536 146.174C118.701 135.298 117.13 110.122 117.13 110.122H99.9042Z" fill="#263238"/>
<path d="M105.27 188.64C105.237 188.64 105.336 190.613 105.336 190.613H114.913L115.243 188.395L105.27 188.64Z" fill="#6D48FF"/>
<path opacity="0.2" d="M101.086 120.682C101.845 127.57 102.775 136.522 103.33 143.323C103.33 143.362 103.33 143.39 103.33 143.419C105.362 136.958 106.187 128.923 105.897 115.694L101.086 120.682Z" fill="black"/>
<path d="M107.837 110.122C107.837 110.122 103.217 135.888 100.478 146.122C97.5084 157.301 80.5728 185.794 80.5728 185.794L71.8674 184.186C71.8674 184.186 84.2688 158.203 85.8066 147.134C87.4698 135.134 90.915 110.146 90.915 110.146L107.837 110.122Z" fill="#263238"/>
<path d="M72.3888 182.501C72.3558 182.501 71.3988 184.2 71.3988 184.2L80.9622 185.971L82.4538 184.085L72.3888 182.501Z" fill="#6D48FF"/>
<path d="M103.495 65.928C103.547 66.216 103.792 66.432 104.049 66.408C104.306 66.384 104.471 66.1392 104.419 65.8512C104.366 65.5632 104.122 65.3712 103.871 65.3712C103.62 65.3712 103.448 65.64 103.495 65.928Z" fill="#263238"/>
<path d="M107.91 65.5919C107.956 65.8799 108.2 66.0719 108.458 66.0719C108.715 66.0719 108.88 65.8031 108.827 65.5151C108.775 65.2271 108.537 65.0111 108.28 65.0351C108.022 65.0591 107.857 65.3039 107.91 65.5919Z" fill="#263238"/>
<path d="M106.531 65.8416C107.144 66.6859 107.912 67.4658 108.814 68.16C108.57 68.3208 108.28 68.44 107.965 68.5089C107.65 68.5778 107.318 68.5947 106.993 68.5584L106.531 65.8416Z" fill="#ED847E"/>
<path d="M106.009 69.36C106.039 69.3554 106.065 69.3431 106.083 69.3255C106.102 69.3078 106.11 69.286 106.108 69.264C106.103 69.2419 106.087 69.222 106.062 69.2086C106.038 69.1951 106.007 69.1892 105.976 69.192C105.488 69.2465 104.99 69.2167 104.521 69.1049C104.052 68.9932 103.626 68.8026 103.277 68.5488C103.254 68.5342 103.225 68.5262 103.194 68.5262C103.164 68.5262 103.135 68.5342 103.112 68.5488C103.09 68.5649 103.078 68.5864 103.078 68.6088C103.078 68.6311 103.09 68.6527 103.112 68.6688C103.484 68.9433 103.942 69.1493 104.445 69.2695C104.949 69.3897 105.485 69.4207 106.009 69.36Z" fill="#263238"/>
<path d="M101.99 64.9775C102.024 64.9743 102.057 64.9658 102.087 64.9526C102.117 64.9394 102.142 64.9217 102.161 64.9007C102.298 64.7154 102.494 64.557 102.733 64.4391C102.972 64.3212 103.247 64.2474 103.534 64.2239C103.565 64.2227 103.594 64.2171 103.622 64.2075C103.649 64.1979 103.674 64.1845 103.694 64.168C103.714 64.1515 103.73 64.1323 103.74 64.1114C103.75 64.0905 103.754 64.0684 103.752 64.0463C103.749 64.0013 103.721 63.9591 103.676 63.9286C103.63 63.8981 103.57 63.8818 103.508 63.8831C103.144 63.9074 102.793 63.9968 102.488 64.1434C102.183 64.2899 101.932 64.4891 101.759 64.7231C101.73 64.7622 101.722 64.8079 101.738 64.8508C101.754 64.8937 101.792 64.9305 101.845 64.9535C101.887 64.975 101.939 64.9836 101.99 64.9775Z" fill="#263238"/>
<path d="M109.692 64.2863C109.725 64.2818 109.757 64.2719 109.784 64.2575C109.809 64.2447 109.831 64.2283 109.847 64.2093C109.863 64.1904 109.873 64.1692 109.877 64.1472C109.882 64.1251 109.88 64.1027 109.872 64.0812C109.864 64.0598 109.85 64.0397 109.831 64.0223C109.623 63.7995 109.345 63.6159 109.02 63.4865C108.695 63.3572 108.333 63.2858 107.963 63.2783C107.932 63.2789 107.902 63.284 107.874 63.2934C107.846 63.3028 107.821 63.3162 107.801 63.3328C107.781 63.3495 107.765 63.369 107.756 63.3902C107.746 63.4113 107.742 63.4337 107.745 63.4559C107.748 63.5009 107.776 63.5431 107.821 63.5736C107.867 63.6041 107.927 63.6204 107.989 63.6191C108.282 63.6274 108.569 63.686 108.824 63.7903C109.08 63.8947 109.298 64.0416 109.461 64.2191C109.488 64.2443 109.523 64.2639 109.564 64.2757C109.605 64.2875 109.649 64.2912 109.692 64.2863Z" fill="#263238"/>
<path d="M85.8 82.9584L92.1162 85.4208C92.1162 85.4208 84.9222 96.7536 85.8594 98.4384C87.1332 100.733 89.1594 105.802 91.3374 108.298C91.1658 108.874 90.0966 110.218 89.4366 110.51C84.4008 108.254 78.606 100.56 78.5004 98.3184C78.2628 93.2112 85.8 82.9584 85.8 82.9584Z" fill="#FFC3BD"/>
<path d="M88.3344 77.6304C83.7144 78.1104 78.7908 89.8128 78.7908 89.8128L88.6908 93.816C88.6908 93.816 92.796 88.2528 94.7694 84.1248C96.822 79.8 93.291 77.1024 88.3344 77.6304Z" fill="#6D48FF"/>
<path opacity="0.5" d="M88.3344 77.6304C83.7144 78.1104 78.7908 89.8128 78.7908 89.8128L88.6908 93.816C88.6908 93.816 92.796 88.2528 94.7694 84.1248C96.822 79.8 93.291 77.1024 88.3344 77.6304Z" fill="black"/>
<path d="M77.6424 190.459C77.9468 190.554 78.2866 190.571 78.606 190.507C78.7124 190.475 78.8061 190.423 78.8786 190.358C78.9512 190.293 79.0004 190.215 79.0218 190.133C79.0412 190.085 79.0429 190.035 79.0267 189.987C79.0105 189.939 78.9769 189.895 78.9294 189.859C78.5004 189.542 76.7118 189.859 76.5072 189.859C76.4853 189.863 76.4654 189.871 76.4501 189.883C76.4348 189.895 76.4248 189.91 76.4214 189.926C76.4192 189.943 76.4236 189.96 76.4341 189.976C76.4446 189.991 76.4608 190.004 76.4808 190.013C76.8426 190.194 77.2325 190.344 77.6424 190.459ZM78.6324 189.926C78.6833 189.933 78.7297 189.951 78.7644 189.979C78.7784 189.996 78.7858 190.015 78.7858 190.034C78.7858 190.054 78.7784 190.073 78.7644 190.09C78.7508 190.146 78.7185 190.199 78.6701 190.244C78.6218 190.289 78.559 190.325 78.4872 190.349C77.8883 190.393 77.2886 190.269 76.8108 190.003C77.4041 189.886 78.0245 189.86 78.6324 189.926Z" fill="#6D48FF"/>
<path d="M76.5006 190.046H76.56C77.121 189.97 78.3684 189.456 78.4344 189.048C78.4439 188.985 78.4236 188.921 78.3769 188.867C78.3302 188.813 78.2597 188.772 78.177 188.75C78.0956 188.725 78.008 188.712 77.9196 188.712C77.8312 188.712 77.7436 188.725 77.6622 188.75C77.0022 188.942 76.4544 189.898 76.428 189.936C76.4182 189.949 76.413 189.964 76.413 189.979C76.413 189.994 76.4182 190.009 76.428 190.022C76.4469 190.037 76.473 190.046 76.5006 190.046ZM78.0318 188.894H78.078C78.2166 188.942 78.21 188.995 78.2034 189.019C78.2034 189.254 77.3322 189.677 76.7448 189.821C76.923 189.547 77.3124 189.014 77.748 188.89C77.8405 188.867 77.9408 188.869 78.0318 188.894Z" fill="#6D48FF"/>
<path d="M114.305 195.514C114.722 195.541 115.138 195.465 115.487 195.298C115.564 195.246 115.622 195.181 115.658 195.109C115.693 195.037 115.705 194.96 115.691 194.885C115.687 194.838 115.666 194.793 115.631 194.754C115.597 194.715 115.549 194.682 115.493 194.659C114.886 194.419 112.939 195.139 112.721 195.23C112.7 195.238 112.683 195.251 112.672 195.267C112.662 195.282 112.658 195.3 112.662 195.317C112.665 195.334 112.676 195.35 112.693 195.363C112.709 195.376 112.731 195.385 112.754 195.389C113.265 195.464 113.784 195.505 114.305 195.514ZM115.163 194.779C115.238 194.777 115.313 194.787 115.381 194.808C115.404 194.817 115.423 194.83 115.437 194.846C115.451 194.862 115.459 194.88 115.46 194.899C115.471 194.949 115.464 195 115.441 195.048C115.418 195.095 115.379 195.138 115.328 195.173C115.031 195.365 114.226 195.398 113.137 195.269C113.769 195.023 114.455 194.857 115.163 194.779Z" fill="#6D48FF"/>
<path d="M112.781 195.389H112.86C113.447 195.192 114.589 194.429 114.49 194.021C114.49 193.925 114.365 193.805 114.048 193.786C113.93 193.772 113.81 193.778 113.696 193.803C113.581 193.828 113.476 193.871 113.388 193.93C112.774 194.299 112.675 195.259 112.675 195.302C112.673 195.317 112.676 195.332 112.684 195.345C112.692 195.359 112.705 195.371 112.721 195.379C112.74 195.385 112.76 195.389 112.781 195.389ZM113.929 193.949H113.995C114.206 193.949 114.22 194.021 114.226 194.04C114.286 194.285 113.513 194.89 112.906 195.154C112.944 194.75 113.157 194.365 113.513 194.054C113.628 193.981 113.777 193.942 113.929 193.944V193.949Z" fill="#6D48FF"/>
<path d="M90.42 107.837L95.04 108.182L91.8258 111.571C91.8258 111.571 87.7734 111.173 87.582 108.84L90.42 107.837Z" fill="#FFC3BD"/>
<path d="M97.7064 109.493L94.5912 112.454L91.872 111.571L95.0862 108.182L97.7064 109.493Z" fill="#FFC3BD"/>
<path d="M264.125 107.65L268.745 146.568C269.115 149.736 266.455 152.515 262.805 152.741L161.258 159.077C157.628 159.307 154.348 156.898 153.998 153.734L149.378 114.811C149.286 114.081 149.364 113.344 149.609 112.632C150.335 110.458 152.539 108.792 155.298 108.643L256.846 102.302C259.598 102.13 262.126 103.478 263.386 105.523C263.792 106.197 264.042 106.916 264.125 107.65Z" fill="#6D48FF"/>
<path opacity="0.1" d="M264.125 107.65L268.745 146.568C269.115 149.736 266.455 152.515 262.805 152.741L161.258 159.077C157.628 159.307 154.348 156.898 153.998 153.734L149.378 114.811C149.286 114.081 149.364 113.344 149.609 112.632C150.335 110.458 152.539 108.792 155.298 108.643L256.846 102.302C259.598 102.13 262.126 103.478 263.386 105.523C263.792 106.197 264.042 106.916 264.125 107.65Z" fill="black"/>
<path d="M276.181 130.592L275.46 130.655L275.752 132.409L276.472 132.345L276.181 130.592Z" fill="#6D48FF"/>
<path d="M274.776 122.125L274.055 122.189L275.141 128.722L275.861 128.659L274.776 122.125Z" fill="#6D48FF"/>
<path d="M268.673 100.69L275.312 140.606C275.847 143.851 273.247 146.779 269.524 147.106L165.383 156.269C161.66 156.595 158.169 154.205 157.628 150.955L150.988 111.043C150.862 110.293 150.906 109.532 151.12 108.792C151.78 106.541 153.945 104.789 156.776 104.539L260.918 95.3808C263.749 95.1312 266.442 96.4512 267.808 98.5248C268.258 99.2068 268.55 99.9383 268.673 100.69Z" fill="#6D48FF"/>
<path opacity="0.1" d="M267.808 98.5248L220.572 121.656C218.26 122.805 215.602 123.533 212.822 123.778C210.042 124.023 207.222 123.777 204.6 123.062L151.14 108.792C151.8 106.541 153.965 104.789 156.796 104.539L260.938 95.3808C263.749 95.1312 266.442 96.4512 267.808 98.5248Z" fill="black"/>
<path d="M250.186 107.15L236.617 113.794L232.175 115.973L220.572 121.656C218.32 122.78 215.736 123.502 213.028 123.764C210.321 124.026 207.567 123.82 204.989 123.163L204.574 123.062L198.066 121.325L183.414 117.413L176.563 115.584L168.802 113.51L168.241 103.531L166.98 81.3552L226.598 79.5936L249.322 92.1168L249.559 96.3744L250.186 107.15Z" fill="#6D48FF"/>
<path opacity="0.7" d="M250.186 107.15L236.617 113.794L232.175 115.973L220.572 121.656C218.32 122.78 215.736 123.502 213.028 123.764C210.321 124.026 207.567 123.82 204.989 123.163L204.574 123.062L198.066 121.325L183.414 117.413L176.563 115.584L168.802 113.51L168.241 103.531L166.98 81.3552L226.598 79.5936L249.322 92.1168L249.559 96.3744L250.186 107.15Z" fill="#FAFAFA"/>
<g opacity="0.9">
<path d="M241.784 96.5281L175.784 98.4769C175.416 98.4875 175.057 98.393 174.783 98.2136C174.51 98.0343 174.343 97.7843 174.319 97.5169C174.306 97.2499 174.437 96.9899 174.684 96.7919C174.93 96.5938 175.273 96.4734 175.639 96.4561L241.639 94.5073C242.007 94.4967 242.367 94.5912 242.64 94.7705C242.914 94.9499 243.081 95.1999 243.104 95.4673C243.119 95.7345 242.989 95.9953 242.742 96.1936C242.495 96.3919 242.151 96.512 241.784 96.5281Z" fill="white"/>
<path d="M242.134 102.907L176.134 104.856C175.766 104.867 175.407 104.772 175.133 104.593C174.859 104.413 174.693 104.163 174.669 103.896C174.656 103.629 174.787 103.368 175.033 103.169C175.279 102.97 175.622 102.849 175.989 102.83L241.989 100.882C242.357 100.872 242.715 100.967 242.988 101.146C243.262 101.325 243.429 101.575 243.454 101.842C243.465 102.109 243.334 102.369 243.089 102.567C242.843 102.766 242.501 102.888 242.134 102.907Z" fill="white"/>
<path d="M242.491 109.282L176.491 111.231C176.122 111.241 175.763 111.147 175.489 110.967C175.216 110.788 175.049 110.538 175.025 110.271C175.011 110.003 175.141 109.743 175.388 109.544C175.635 109.346 175.978 109.226 176.345 109.21L242.345 107.261C242.713 107.25 243.071 107.345 243.344 107.524C243.617 107.704 243.782 107.954 243.804 108.221C243.819 108.487 243.689 108.747 243.444 108.946C243.199 109.144 242.856 109.264 242.491 109.282Z" fill="white"/>
<path d="M236.617 113.794L232.175 115.973L183.414 117.413L176.563 115.584C176.62 115.579 176.678 115.579 176.735 115.584L236.617 113.794Z" fill="white"/>
<path d="M218.552 121.738V121.776C218.553 122.037 218.417 122.289 218.172 122.48C217.927 122.67 217.591 122.786 217.232 122.803L205.016 123.163L204.6 123.062L198.092 121.325L217.12 120.758C217.487 120.754 217.842 120.854 218.109 121.037C218.376 121.22 218.535 121.471 218.552 121.738Z" fill="white"/>
</g>
<path opacity="0.1" d="M249.348 92.1168L233.561 91.6224L226.624 79.5936L249.348 92.1168Z" fill="#263238"/>
<path d="M249.348 92.1168L234.029 90.2112L226.624 79.5936L249.348 92.1168Z" fill="#6D48FF"/>
<path d="M279.715 45.5664C279.715 55.3296 265.003 64.9248 262.799 64.9248C260.594 64.9248 245.883 55.3248 245.883 45.5664C245.883 39.024 253.453 33.7152 262.799 33.7152C272.144 33.7152 279.715 39.024 279.715 45.5664Z" fill="#6D48FF"/>
<path opacity="0.1" d="M259.657 43.1328C256.595 45.576 252.437 46.4496 250.371 45.0528C248.305 43.656 249.11 40.5936 252.166 38.1504C255.222 35.7072 259.387 34.8336 261.459 36.2016C263.531 37.5696 262.72 40.6896 259.657 43.1328Z" fill="white"/>
<path opacity="0.1" d="M250.635 52.968C250.232 52.2384 250.338 51.528 250.873 51.3648C251.407 51.2016 252.193 51.672 252.569 52.4016C252.945 53.1312 252.866 53.8416 252.331 54C251.797 54.1584 251.038 53.6928 250.635 52.968Z" fill="white"/>
<path d="M262.073 95.6448C262.001 95.6436 261.934 95.6225 261.883 95.5858C261.833 95.5492 261.804 95.4998 261.802 95.448C261.783 94.8006 262.051 94.1658 262.568 93.6384C263.011 93.1658 263.248 92.6072 263.248 92.0352C263.248 91.4633 263.011 90.9046 262.568 90.432C262.069 89.8982 261.803 89.2677 261.803 88.6224C261.803 87.9771 262.069 87.3466 262.568 86.8128C263.011 86.3412 263.248 85.7833 263.248 85.212C263.248 84.6408 263.011 84.0828 262.568 83.6112C262.069 83.0784 261.802 82.4486 261.802 81.804C261.802 81.1594 262.069 80.5297 262.568 79.9968C263.011 79.5252 263.248 78.9673 263.248 78.396C263.248 77.8248 263.011 77.2668 262.568 76.7952C262.069 76.2624 261.802 75.6326 261.802 74.988C261.802 74.3434 262.069 73.7137 262.568 73.1808C263.011 72.7092 263.248 72.1513 263.248 71.58C263.248 71.0088 263.011 70.4508 262.568 69.9792C262.069 69.4463 261.802 68.8166 261.802 68.172C261.802 67.5274 262.069 66.8977 262.568 66.3648C263.02 65.8979 263.251 65.3371 263.228 64.7664C263.238 64.7189 263.271 64.6756 263.321 64.6443C263.372 64.613 263.436 64.5958 263.502 64.5958C263.568 64.5958 263.632 64.613 263.682 64.6443C263.732 64.6756 263.765 64.7189 263.776 64.7664C263.794 65.4123 263.526 66.0453 263.01 66.5712C262.559 67.0403 262.328 67.6024 262.35 68.1744C262.326 68.7451 262.558 69.3059 263.01 69.7728C263.509 70.3057 263.776 70.9354 263.776 71.58C263.776 72.2246 263.509 72.8544 263.01 73.3872C262.563 73.8578 262.324 74.4161 262.324 74.988C262.324 75.5599 262.563 76.1182 263.01 76.5888C263.509 77.1217 263.776 77.7514 263.776 78.396C263.776 79.0406 263.509 79.6704 263.01 80.2032C262.563 80.6738 262.324 81.2321 262.324 81.804C262.324 82.3759 262.563 82.9342 263.01 83.4048C263.509 83.9377 263.776 84.5674 263.776 85.212C263.776 85.8566 263.509 86.4864 263.01 87.0192C262.563 87.4905 262.323 88.0497 262.323 88.6224C262.323 89.1951 262.563 89.7543 263.01 90.2256C263.508 90.7594 263.775 91.3899 263.775 92.0352C263.775 92.6805 263.508 93.311 263.01 93.8448C262.557 94.3132 262.326 94.8757 262.35 95.448C262.35 95.4743 262.343 95.5003 262.329 95.5245C262.315 95.5486 262.294 95.5706 262.268 95.5889C262.243 95.6072 262.212 95.6216 262.178 95.6312C262.145 95.6408 262.109 95.6454 262.073 95.6448Z" fill="#263238"/>
<path d="M262.799 64.464C262.277 64.464 258.839 66.72 258.839 69.0144H266.772C266.772 66.72 263.34 64.464 262.799 64.464Z" fill="#6D48FF"/>
<path d="M263.578 64.5408H262.02C261.892 64.5408 261.789 64.616 261.789 64.7088V64.8288C261.789 64.9216 261.892 64.9968 262.02 64.9968H263.578C263.705 64.9968 263.809 64.9216 263.809 64.8288V64.7088C263.809 64.616 263.705 64.5408 263.578 64.5408Z" fill="#263238"/>
<path d="M173.58 54.6912C173.58 64.4496 158.869 74.0448 156.664 74.0448C154.46 74.0448 139.748 64.4448 139.748 54.6912C139.748 48.144 147.319 42.8352 156.664 42.8352C166.01 42.8352 173.58 48.144 173.58 54.6912Z" fill="#263238"/>
<path opacity="0.1" d="M153.922 52.6527C156.983 50.2089 157.789 47.1177 155.722 45.7485C153.655 44.3793 149.498 45.2505 146.437 47.6944C143.376 50.1382 142.57 53.2294 144.637 54.5986C146.704 55.9678 150.861 55.0966 153.922 52.6527Z" fill="white"/>
<path opacity="0.1" d="M144.896 62.4864C144.494 61.7568 144.599 61.0464 145.134 60.8832C145.669 60.72 146.454 61.1904 146.83 61.92C147.206 62.6496 147.127 63.36 146.593 63.5232C146.058 63.6864 145.299 63.216 144.896 62.4864Z" fill="white"/>
<path d="M155.912 104.765C155.84 104.765 155.771 104.744 155.721 104.707C155.67 104.67 155.641 104.62 155.641 104.568C155.622 103.921 155.89 103.286 156.407 102.758C156.85 102.286 157.087 101.727 157.087 101.155C157.087 100.583 156.85 100.025 156.407 99.552C155.908 99.0181 155.642 98.3877 155.642 97.7424C155.642 97.0971 155.908 96.4666 156.407 95.9328C156.859 95.4659 157.09 94.9051 157.067 94.3344C157.089 93.7623 156.858 93.2003 156.407 92.7312C155.908 92.1983 155.641 91.5686 155.641 90.924C155.641 90.2793 155.908 89.6496 156.407 89.1168C156.859 88.6499 157.09 88.0891 157.067 87.5184C157.089 86.9463 156.858 86.3843 156.407 85.9152C155.908 85.3823 155.641 84.7526 155.641 84.108C155.641 83.4633 155.908 82.8336 156.407 82.3008C156.85 81.8299 157.086 81.2728 157.086 80.7024C157.086 80.132 156.85 79.5748 156.407 79.104C155.908 78.5711 155.641 77.9414 155.641 77.2968C155.641 76.6521 155.908 76.0224 156.407 75.4896C156.858 75.0205 157.089 74.4584 157.067 73.8864C157.069 73.8346 157.098 73.7852 157.148 73.7486C157.198 73.7119 157.266 73.6908 157.337 73.6896C157.409 73.6896 157.478 73.7103 157.529 73.7472C157.58 73.7841 157.608 73.8342 157.608 73.8864C157.629 74.5332 157.363 75.1676 156.849 75.696C156.402 76.1656 156.162 76.7232 156.162 77.2944C156.162 77.8656 156.402 78.4232 156.849 78.8928C157.344 79.4268 157.608 80.0561 157.608 80.7C157.608 81.3439 157.344 81.9731 156.849 82.5072C156.398 82.9763 156.167 83.5383 156.189 84.1104C156.166 84.6811 156.397 85.2419 156.849 85.7088C157.344 86.2428 157.608 86.8721 157.608 87.516C157.608 88.1599 157.344 88.7891 156.849 89.3232C156.398 89.7923 156.167 90.3543 156.189 90.9264C156.166 91.4971 156.397 92.0579 156.849 92.5248C157.344 93.0588 157.608 93.6881 157.608 94.332C157.608 94.9759 157.344 95.6051 156.849 96.1392C156.402 96.6105 156.162 97.1697 156.162 97.7424C156.162 98.3151 156.402 98.8742 156.849 99.3456C157.344 99.8804 157.609 100.51 157.609 101.155C157.609 101.8 157.344 102.43 156.849 102.965C156.398 103.434 156.166 103.996 156.189 104.568C156.189 104.594 156.182 104.62 156.168 104.644C156.154 104.669 156.133 104.691 156.107 104.709C156.082 104.727 156.051 104.742 156.017 104.751C155.984 104.761 155.948 104.765 155.912 104.765Z" fill="#6D48FF"/>
<path d="M156.638 73.5889C156.116 73.5889 152.678 75.8401 152.678 78.1345H160.598C160.611 75.8401 157.153 73.5889 156.638 73.5889Z" fill="#263238"/>
<path d="M157.417 73.6608H155.859C155.731 73.6608 155.628 73.736 155.628 73.8288V73.9488C155.628 74.0415 155.731 74.1168 155.859 74.1168H157.417C157.544 74.1168 157.648 74.0415 157.648 73.9488V73.8288C157.648 73.736 157.544 73.6608 157.417 73.6608Z" fill="#6D48FF"/>
<path d="M271.957 104.556C275.955 101.886 276.22 97.3652 272.549 94.4578C268.878 91.5503 262.661 91.3577 258.663 94.0275C254.665 96.6973 254.4 101.219 258.071 104.126C261.742 107.033 267.959 107.226 271.957 104.556Z" fill="#DE5753"/>
<path d="M267.26 95.8416V103.042H264.528V98.328C264.124 98.5541 263.694 98.7533 263.241 98.9232C262.738 99.0969 262.217 99.2414 261.683 99.3552V97.7472C262.458 97.586 263.185 97.3224 263.828 96.9696C264.336 96.6659 264.744 96.2839 265.023 95.8512L267.26 95.8416Z" fill="white"/>
</svg>
