<svg xmlns="http://www.w3.org/2000/svg" width="1020" height="610" viewBox="0 0 1020 610" version="1.1"><path d="M 104.183 45.139 C 101.808 46.314, 99.165 48.345, 98.308 49.653 C 97.451 50.961, 94.529 59.336, 91.814 68.265 C 87.915 81.088, 86.959 85.588, 87.265 89.678 C 87.755 96.231, 91.291 101.100, 98.044 104.522 C 107.502 109.315, 172.749 126.153, 222 136.510 C 238.358 139.950, 274.755 145.995, 279 145.976 C 286.972 145.941, 295.370 140.478, 297.950 133.648 C 298.700 131.664, 299.505 130.980, 300.596 131.398 C 301.458 131.729, 303.252 132, 304.582 132 C 306.941 132, 307 132.198, 307 140.132 C 307 149.494, 308.962 153.913, 314.055 156.023 C 318.021 157.666, 317.559 159.591, 312.220 163.663 C 307.226 167.471, 303.491 168.678, 292.284 170.101 C 285.279 170.990, 280.641 170.756, 260.784 168.512 C 219.034 163.795, 173.548 157.368, 157.547 153.926 C 152.623 152.867, 147.639 152, 146.471 152 C 143.012 152, 140 156.054, 140 160.711 C 140 164.120, 140.574 165.297, 143.483 167.851 C 147.802 171.643, 151.403 172.756, 193.552 183.326 C 252.678 198.153, 271.915 201.636, 289.440 200.686 C 299.064 200.165, 313.988 197.192, 320.127 194.574 C 321.447 194.012, 321.882 194.731, 322.428 198.370 C 323.191 203.460, 326.267 208, 328.951 208 C 330.027 208, 332.992 210.969, 336.284 215.343 C 343.780 225.302, 355.008 234.124, 368.500 240.657 C 374.550 243.586, 380.962 246.262, 382.750 246.603 C 388.348 247.670, 386.453 249.562, 377.957 251.388 C 363.744 254.442, 333.589 264.819, 317.822 272.082 C 299.248 280.638, 294.870 283.074, 279.662 293.318 C 268.789 300.643, 265.917 303.250, 267.252 304.585 C 267.526 304.859, 272.237 303.296, 277.722 301.111 C 295.683 293.955, 326.022 286.440, 352.894 282.490 C 362.027 281.148, 376.925 278.937, 386 277.578 C 403.866 274.902, 432.728 272.575, 467.500 271.010 C 528.600 268.258, 592.113 271.399, 651.500 280.108 C 692.843 286.171, 718 291.893, 742.260 300.751 C 747.627 302.711, 752.352 303.975, 752.760 303.560 C 753.774 302.526, 748.305 298.029, 737 290.601 C 724.359 282.296, 719.331 279.594, 701 271.256 C 686.499 264.660, 655.084 253.898, 641.704 250.942 C 638.517 250.238, 635.705 249.331, 635.455 248.928 C 635.206 248.524, 638.264 247.214, 642.251 246.015 C 650.582 243.510, 663.046 237.013, 671.606 230.711 C 677.312 226.511, 686.782 216.412, 690.325 210.750 C 691.393 209.044, 692.921 208, 694.349 208 C 697.799 208, 700.895 204.042, 701.629 198.693 C 701.982 196.112, 702.739 194, 703.311 194 C 703.882 194, 707.758 195.225, 711.925 196.722 C 719.203 199.337, 720.285 199.445, 739.500 199.468 C 762.182 199.495, 762.440 199.453, 812.500 187.414 C 850.719 178.222, 873.898 172.029, 878.235 169.851 C 883.486 167.213, 885.390 163.945, 884.695 158.764 C 883.634 150.852, 882.487 150.743, 853.500 155.814 C 834.723 159.099, 796.039 164.344, 761 168.357 C 738.352 170.950, 729.421 170.626, 719.312 166.844 C 713.056 164.503, 707.431 159.567, 706.418 155.528 C 705.791 153.031, 706.173 152.283, 709.391 149.701 C 714.046 145.967, 716 142.217, 716 137.018 C 716 132.855, 716.171 132.678, 721.289 131.555 C 723.735 131.018, 724.247 131.345, 725.457 134.221 C 728.296 140.970, 736.236 146, 744.052 146 C 748.798 146, 788.469 139.221, 805.176 135.554 C 816.369 133.098, 837.782 128.190, 864 122.072 C 882.606 117.731, 916.590 108.259, 921.797 105.964 C 930.719 102.033, 935.997 95.533, 935.980 88.500 C 935.968 83.553, 926.779 53.521, 924.236 50.114 C 920.892 45.636, 917.536 43.858, 911.403 43.318 C 906.351 42.872, 902.258 43.667, 883 48.837 C 836.007 61.453, 795.458 70.760, 756 77.989 C 731.292 82.515, 726.902 84.187, 722.955 90.573 C 721.734 92.548, 720.515 96.120, 720.246 98.511 C 719.804 102.430, 719.496 102.855, 717.128 102.814 C 715.683 102.789, 713.867 102.933, 713.093 103.134 C 712.180 103.372, 711.061 101.797, 709.904 98.646 C 707.883 93.143, 705.730 90.429, 701.755 88.373 C 699.371 87.140, 697.507 87.151, 687.752 88.450 C 681.564 89.275, 673.478 90.220, 669.785 90.551 C 662.014 91.246, 657.692 93.683, 654.799 99 C 653.479 101.426, 653.063 103.618, 653.442 106.143 C 654.074 110.348, 653.979 110.395, 642.500 111.556 C 638.650 111.946, 634.375 112.677, 633 113.181 C 631.625 113.686, 626.898 117.789, 622.495 122.299 C 612.315 132.728, 597.043 144.233, 585.500 150.171 C 578.309 153.870, 552.693 164, 550.530 164 C 550.255 164, 549.506 161.924, 548.867 159.386 C 547.442 153.728, 542.826 148.864, 537.312 147.212 C 532.090 145.647, 491.105 145.566, 485.547 147.109 C 480.134 148.611, 475.374 153.628, 473.934 159.347 C 473.290 161.906, 472.621 164, 472.447 164 C 470.995 164, 447.007 155.039, 441.500 152.440 C 427.825 145.984, 408.705 131.835, 399.650 121.468 C 392.786 113.610, 391.273 112.860, 379.705 111.594 L 369.500 110.477 369.845 104.250 C 370.256 96.829, 367.668 90.416, 363.196 87.775 C 361.468 86.754, 355.268 85.496, 347.424 84.574 C 340.316 83.739, 332.438 82.767, 329.919 82.415 C 321.915 81.296, 314.546 86.860, 313.464 94.838 C 312.352 103.041, 312.280 103.140, 307.726 102.803 C 303.730 102.508, 303.587 102.372, 302.406 97.722 C 300.275 89.329, 296.481 85.047, 289 82.589 C 286.525 81.776, 276.625 79.721, 267 78.023 C 232.857 71.998, 181.375 60.232, 139.671 48.921 C 115.760 42.436, 110.727 41.899, 104.183 45.139 M 365.512 145.749 C 364.324 155.257, 361.521 159.009, 354.138 160.976 C 351.040 161.801, 349.612 162.769, 349.209 164.319 C 348.896 165.518, 347.161 169.293, 345.352 172.706 L 342.062 178.911 344.110 190.124 C 345.750 199.102, 345.921 201.779, 344.968 203.559 C 343.486 206.329, 344.197 207.676, 350.598 214.222 C 362.556 226.451, 386.046 237.671, 407.544 241.424 C 415.549 242.821, 417.145 242.787, 430.326 240.932 C 443.754 239.043, 475.731 236.042, 482.750 236.013 L 486 236 486 216.129 L 486 196.258 479.750 195.568 C 465.186 193.961, 448.459 188.602, 429.500 179.470 C 410.208 170.177, 393.443 158.443, 381.244 145.695 C 377.180 141.448, 373.937 140, 368.490 140 C 366.489 140, 366.148 140.658, 365.512 145.749 M 649.529 140.738 C 647.635 141.017, 644.179 143.412, 640.004 147.338 C 636.400 150.727, 630.987 155.583, 627.975 158.130 C 608.636 174.483, 573.309 190.592, 547.617 194.773 L 537.003 196.500 536.769 211 C 536.504 227.397, 536.619 234.953, 537.142 235.474 C 537.339 235.670, 546.370 236.544, 557.210 237.414 C 568.051 238.285, 583.725 239.945, 592.042 241.103 L 607.163 243.209 616.831 240.978 C 642.861 234.974, 662.388 225.069, 674.846 211.552 C 678.729 207.339, 679.123 206.471, 678.548 203.403 C 678.158 201.327, 678.771 195.612, 680.097 188.958 L 682.291 177.948 678.727 170.224 C 676.767 165.976, 674.866 161.037, 674.502 159.250 C 673.935 156.461, 673.420 156, 670.871 156 C 664.443 156, 658.440 150.601, 657.360 143.850 C 656.706 139.761, 656.557 139.702, 649.529 140.738 M 508.096 165.265 C 506.774 165.944, 504.786 167.722, 503.678 169.215 C 501.881 171.635, 501.793 172.366, 502.870 175.959 C 503.696 178.716, 504.996 180.464, 506.989 181.494 C 511.214 183.679, 513.561 183.364, 517.184 180.127 C 519.724 177.858, 520.400 176.464, 520.400 173.500 C 520.400 170.536, 519.724 169.142, 517.184 166.873 C 513.664 163.728, 511.747 163.389, 508.096 165.265" stroke="none" fill="#6d4af9" fill-rule="evenodd"/><path d="M 320.241 364.808 L 315.982 365.116 316.241 415.808 L 316.500 466.500 347.009 466.764 C 393.920 467.170, 391.905 469.540, 391.889 414 C 391.884 397.775, 391.525 382.335, 391.090 379.688 C 390.235 374.491, 387.970 370.814, 383.618 367.562 C 381.026 365.625, 379.157 365.470, 352.679 365 C 337.181 364.725, 322.583 364.639, 320.241 364.808 M 433.320 365 C 410.139 365.547, 409.556 365.697, 404.562 372.384 C 402.560 375.065, 402.492 376.471, 402.221 421.085 L 401.942 467.024 439.221 466.762 L 476.500 466.500 476.500 453 L 476.500 439.500 452.750 439.232 L 429 438.964 429 436.673 C 429 432.817, 431.161 431.408, 439 430.150 C 443.125 429.488, 449.313 428.462, 452.750 427.870 L 459 426.795 459 413.064 C 459 405.512, 458.772 399.105, 458.492 398.826 C 458.213 398.547, 453.151 399.305, 447.242 400.512 C 429.162 404.204, 428.998 404.214, 429.011 401.687 C 429.017 400.484, 429.311 397.748, 429.665 395.606 L 430.308 391.712 445.904 392.238 C 454.482 392.527, 465.031 392.529, 469.347 392.244 L 477.194 391.725 476.847 383.533 C 476.545 376.402, 476.139 374.869, 473.709 371.684 C 472.174 369.673, 469.924 367.475, 468.709 366.800 C 465.303 364.908, 456.395 364.455, 433.320 365 M 278.241 415.750 L 278.500 466.500 292 466.500 L 305.500 466.500 305.759 415.750 L 306.018 365 292 365 L 277.982 365 278.241 415.750 M 495.922 367.274 C 489.657 371.496, 488.020 375.167, 487.840 385.398 C 487.722 392.105, 487.833 454.365, 487.983 465.762 C 487.997 466.760, 495.794 466.969, 525.250 466.762 L 562.500 466.500 562.770 444.750 C 562.918 432.788, 562.884 423, 562.694 423 C 562.056 423, 539.523 427.008, 537.250 427.526 C 535.253 427.981, 535 428.654, 535 433.519 L 535 439 525 439 L 515 439 515 415.464 L 515 391.928 524.750 392.214 L 534.500 392.500 534.810 396.250 C 535.033 398.939, 535.587 400, 536.767 400 C 538.359 400, 556.178 397.337, 560.750 396.415 C 562.870 395.988, 563 395.474, 563 387.501 C 563 376.848, 561.133 371.833, 555.701 367.898 L 551.700 365 525.498 365 C 499.900 365, 499.218 365.052, 495.922 367.274 M 586.389 366.879 C 584.677 367.937, 582.202 370.309, 580.889 372.151 L 578.500 375.500 578.221 421.278 L 577.942 467.057 591.721 466.778 L 605.500 466.500 605.672 452.128 C 605.766 444.224, 606.216 437.387, 606.672 436.934 C 607.127 436.482, 610.650 435.620, 614.500 435.020 C 618.350 434.419, 622.276 433.692, 623.226 433.404 C 624.805 432.925, 624.974 434.308, 625.226 449.690 L 625.500 466.500 639 466.500 L 652.500 466.500 652.775 423 C 653.083 374.165, 652.990 373.384, 646.241 368.233 L 642.660 365.500 616.080 365.228 C 591.328 364.975, 589.286 365.088, 586.389 366.879 M 756.922 367.274 C 750.678 371.482, 749.003 375.199, 748.979 384.898 C 748.861 434.534, 748.835 464.721, 748.910 465.762 C 748.981 466.759, 756.824 466.969, 786.250 466.762 L 823.500 466.500 823.778 452.750 L 824.056 439 800.028 439 L 776 439 776 435.519 C 776 432.710, 776.434 431.951, 778.250 431.586 C 779.487 431.337, 786.125 430.091, 793 428.817 L 805.500 426.500 805.778 412.750 C 806.102 396.744, 807.621 398.040, 792 400.986 C 786.225 402.076, 780.263 403.188, 778.750 403.458 C 776.002 403.950, 776 403.946, 776 397.975 L 776 392 800.106 392 L 824.212 392 823.856 384.177 C 823.563 377.744, 823.027 375.639, 820.839 372.333 C 816.205 365.331, 814.621 365, 785.747 365 C 760.930 365, 760.212 365.057, 756.922 367.274 M 197.500 367.871 C 194.770 369.118, 192.706 371.095, 191 374.099 L 188.500 378.500 188.500 422.500 L 188.500 466.500 202.250 466.778 L 216 467.056 216 452.187 L 216 437.318 221.250 436.159 C 224.137 435.521, 228.626 434.715, 231.225 434.367 L 235.949 433.735 236.225 450.118 L 236.500 466.500 250 466.500 L 263.500 466.500 263.500 445.821 C 263.500 426.389, 263.374 424.972, 261.404 422.321 C 260.251 420.769, 258.254 418.966, 256.966 418.314 L 254.624 417.128 257.147 415.979 C 262.482 413.548, 263.500 409.946, 263.500 393.500 C 263.500 379.747, 263.308 378.140, 261.191 374.175 C 257.154 366.611, 254.699 366.044, 226 366.044 C 204.400 366.044, 201.027 366.260, 197.500 367.871 M 674.500 366.688 C 671.093 367.567, 666.359 371.724, 664.641 375.345 C 663.197 378.388, 663 384.095, 663 422.929 L 663 467.056 676.743 466.778 L 690.486 466.500 690.149 451.930 L 689.813 437.360 695.156 436.222 C 698.095 435.597, 702.626 434.791, 705.225 434.433 L 709.949 433.780 710.225 450.140 L 710.500 466.500 724 466.500 L 737.500 466.500 737.770 445.850 L 738.040 425.201 735.352 422.006 C 733.873 420.249, 731.736 418.468, 730.604 418.049 C 728.682 417.338, 728.752 417.180, 731.637 415.688 C 736.884 412.974, 738.003 409.033, 737.978 393.349 C 737.953 377.513, 736.647 373.024, 730.867 368.901 C 727.541 366.529, 727.193 366.498, 702 366.336 C 687.975 366.245, 675.600 366.404, 674.500 366.688 M 605.646 399.665 C 605.289 403.881, 605.212 407.545, 605.473 407.807 C 606.140 408.473, 621.121 405.988, 623.250 404.858 C 624.617 404.133, 625 402.625, 625 397.965 L 625 392 615.647 392 L 606.293 392 605.646 399.665 M 216 401.125 L 216 409.250 219.250 408.597 C 221.037 408.237, 225.537 407.440, 229.250 406.825 L 236 405.707 236 399.353 L 236 393 226 393 L 216 393 216 401.125 M 351.750 394.826 L 344 396.348 344 417.530 L 344 438.712 351.750 437.382 C 365.620 435.004, 364 438.098, 364 413.981 L 364 393 361.750 393.152 C 360.512 393.235, 356.012 393.988, 351.750 394.826 M 690 401.125 L 690 409.250 693.250 408.597 C 695.038 408.237, 699.538 407.440, 703.250 406.825 L 710 405.707 710 399.353 L 710 393 700 393 L 690 393 690 401.125 M 713.308 478.698 C 712.103 478.932, 709.740 480.531, 708.058 482.252 L 705 485.380 705 504.190 L 705 523 707.250 522.993 C 708.487 522.990, 714.675 522.093, 721 521 C 727.325 519.907, 733.063 519.010, 733.750 519.007 C 734.681 519.002, 735 522.063, 735 531 L 735 543 744.043 543 L 753.087 543 752.793 513.917 L 752.500 484.833 749.234 481.917 C 746.468 479.446, 745.130 479, 740.484 479 L 735 479 735 489.889 L 735 500.777 731.250 501.457 C 729.188 501.831, 726.487 502.380, 725.250 502.677 C 723.012 503.214, 723 503.155, 723 491.215 C 723 477.284, 722.685 476.877, 713.308 478.698 M 270.077 482.077 L 267 485.154 267 504.077 L 267 523 269.250 522.993 C 270.488 522.990, 276.675 522.093, 283 521 C 297.580 518.481, 297 518.440, 297 521.981 C 297 525.383, 298.102 524.978, 280.596 528.010 C 274.049 529.144, 268.312 530.307, 267.846 530.595 C 267.381 530.883, 267 533.791, 267 537.059 L 267 543 291 543 L 315 543 315 520.969 C 315 502.813, 314.749 498.841, 313.574 498.390 C 312.789 498.089, 306.254 498.918, 299.051 500.232 C 291.848 501.546, 285.740 502.407, 285.477 502.144 C 285.215 501.882, 285 500.400, 285 498.852 C 285 495.658, 284.275 495.920, 300 493.418 C 314.245 491.152, 315.382 490.668, 314.533 487.235 C 314.162 485.731, 312.680 483.262, 311.242 481.750 L 308.626 479 290.890 479 L 273.154 479 270.077 482.077 M 324 511 L 324 543 333 543 L 342 543 342 511 L 342 479 333 479 L 324 479 324 511 M 348.908 487.250 C 348.858 491.788, 348.679 501.800, 348.510 509.500 C 348.342 517.200, 348.442 527.904, 348.734 533.287 L 349.263 543.074 357.881 542.787 L 366.500 542.500 366.610 531 C 366.671 524.675, 366.783 516.289, 366.860 512.364 L 367 505.227 371.628 504.533 C 374.173 504.151, 376.873 503.602, 377.628 503.313 C 378.763 502.877, 379 506.270, 379 522.932 L 379 543.078 387.750 542.789 L 396.500 542.500 396.500 513.815 L 396.500 485.129 393.563 482.065 L 390.626 479 369.813 479 L 349 479 348.908 487.250 M 407.106 481.901 C 403.544 485.228, 403.837 481.979, 403.851 518 L 403.861 542.500 427.681 542.500 L 451.500 542.500 451.782 530.055 C 451.938 523.211, 451.862 517.082, 451.614 516.436 C 451.271 515.542, 449.338 515.577, 443.565 516.581 C 434.320 518.189, 434 518.372, 434 522.059 C 434 524.984, 433.967 525, 428.059 525 C 424.791 525, 421.868 524.595, 421.562 524.100 C 421.256 523.605, 421.299 517.080, 421.658 509.600 L 422.310 496 425.030 496 C 430.421 496, 433.814 497.181, 434.354 499.244 C 434.826 501.049, 435.362 501.189, 439.192 500.503 C 441.561 500.079, 445.300 499.454, 447.500 499.116 C 451.323 498.527, 451.515 498.323, 451.829 494.500 C 452.283 488.985, 450.452 483.501, 447.341 481.054 C 444.937 479.162, 443.366 479, 427.471 479 L 410.212 479 407.106 481.901 M 462.201 481.812 C 458.232 485.520, 457.819 489.357, 458.199 519 L 458.500 542.500 482.500 542.500 L 506.500 542.500 506.789 533.776 L 507.077 525.053 491.801 524.776 C 478.808 524.541, 476.480 524.264, 476.222 522.918 C 475.916 521.327, 479.827 520.130, 490.750 518.470 L 495 517.824 495 509.471 C 495 504.877, 494.663 500.911, 494.250 500.658 C 493.837 500.404, 489.916 500.821, 485.536 501.584 C 477.034 503.065, 475.629 502.657, 476.165 498.865 C 476.499 496.509, 476.561 496.499, 491.872 496.223 L 507.243 495.947 506.775 490.305 C 506.380 485.535, 505.818 484.227, 503.138 481.832 L 499.968 479 482.590 479 L 465.212 479 462.201 481.812 M 543.104 482.535 L 540 486.070 540 498.535 C 540 505.391, 540.288 511, 540.639 511 C 540.991 511, 544.172 508.413, 547.709 505.250 C 556.086 497.760, 558.871 496.012, 562.437 496.005 L 565.374 496 562.437 499.117 C 560.822 500.832, 555.112 506.032, 549.750 510.672 L 540 519.110 540 531.055 L 540 543 564 543 L 588 543 588.179 536.500 C 588.277 532.925, 588.389 528.987, 588.429 527.750 C 588.499 525.545, 588.225 525.490, 574.640 525 L 560.779 524.500 574.390 512.169 L 588 499.838 588 493.370 C 588 486.432, 586.263 481.746, 583.055 480.030 C 581.947 479.436, 573.734 479, 563.669 479 L 546.207 479 543.104 482.535 M 599.367 480.772 C 595.211 484.138, 595 485.792, 595 514.934 L 595 543 619 543 L 643 543 643 514.535 L 643 486.070 639.896 482.535 L 636.793 479 619.146 479.022 C 603.938 479.041, 601.205 479.283, 599.367 480.772 M 655.500 480.161 C 650.588 482.862, 650.046 484.710, 650.022 498.818 L 650 512.136 658.060 504.818 C 666.753 496.925, 667.979 496.177, 672.405 496.070 C 675.298 496, 675.302 496.009, 673.405 498.121 C 672.357 499.288, 666.663 504.501, 660.750 509.707 L 650 519.172 650 531.104 L 650 543.036 673.750 542.768 L 697.500 542.500 697.789 533.750 L 698.078 525 684.539 525 C 677.093 525, 671 524.663, 671 524.250 C 671 523.837, 672.681 522.158, 674.736 520.519 C 676.791 518.879, 682.911 513.492, 688.335 508.548 L 698.196 499.559 697.831 492.327 C 697.509 485.955, 697.119 484.734, 694.546 482.048 L 691.626 479 674.563 479.030 C 664.092 479.049, 656.727 479.486, 655.500 480.161 M 617.250 498.262 L 613 499.284 613 511.642 C 613 525.562, 612.804 525.293, 621.250 522.947 L 625 521.906 625 509.453 C 625 495.521, 625.521 496.273, 617.250 498.262" stroke="none" fill="#545454" fill-rule="evenodd"/></svg>