<?xml version="1.0" encoding="UTF-8"?>
<svg version="1.1" xmlns="http://www.w3.org/2000/svg" width="918" height="586">
<path d="M0 0 C302.94 0 605.88 0 918 0 C918 193.38 918 386.76 918 586 C615.06 586 312.12 586 0 586 C0 392.62 0 199.24 0 0 Z " fill="#FDFDFE" transform="translate(0,0)"/>
<path d="M0 0 C10.00042967 2.77921211 20.04869587 5.14886737 30.18603516 7.36450195 C34.74062597 8.38030448 39.27456413 9.48158504 43.81103516 10.57495117 C53.7716909 12.95980741 63.75562003 15.15090014 73.80322266 17.13745117 C74.89280273 17.35336914 75.98238281 17.56928711 77.10498047 17.79174805 C79.26256304 18.21807776 81.42073379 18.64144584 83.57958984 19.0612793 C88.60768303 20.05192673 93.57947572 21.12447329 98.53759766 22.42260742 C103.29885569 23.64035032 108.07881728 24.58423344 112.92041016 25.41479492 C113.62430878 25.536138 114.3282074 25.65748108 115.05343628 25.78250122 C117.95681946 26.27979941 120.86077853 26.77254958 123.76757812 27.24951172 C144.0532781 30.59888513 144.0532781 30.59888513 149.71337891 38.02416992 C152.02101761 42.07280294 153.40170502 46.52512694 154.81103516 50.94995117 C157.14398291 50.9923684 159.47806082 50.99088055 161.81103516 50.94995117 C163.39691023 49.3640761 163.27457246 47.44428335 163.62353516 45.26245117 C164.7144264 39.64756979 166.59315934 35.96620192 170.87353516 32.07495117 C178.80355008 29.03792418 188.77365888 31.21413149 196.99853516 32.26245117 C198.0265625 32.38040039 199.05458984 32.49834961 200.11376953 32.61987305 C214.98471254 34.47517304 214.98471254 34.47517304 219.74853516 39.94995117 C222.89163877 44.52173824 222.9235012 47.69115289 222.87353516 53.13745117 C222.86451172 54.40975586 222.85548828 55.68206055 222.84619141 56.99291992 C222.82878906 58.45665039 222.82878906 58.45665039 222.81103516 59.94995117 C224.02919922 60.05952148 225.24736328 60.1690918 226.50244141 60.28198242 C228.12619803 60.44154232 229.74989285 60.6017321 231.37353516 60.76245117 C232.57333008 60.86783203 232.57333008 60.86783203 233.79736328 60.9753418 C243.46451774 61.96178613 248.75558762 65.40437769 255.24853516 72.38745117 C262.82790084 80.23070878 270.80416827 86.81893688 279.81103516 92.94995117 C280.39079102 93.35262207 280.97054688 93.75529297 281.56787109 94.17016602 C295.97920128 104.03511381 313.08234603 110.25523786 329.81103516 114.94995117 C329.81103516 113.98057617 329.81103516 113.01120117 329.81103516 112.01245117 C330.5723236 106.44481926 334.80980275 102.59485861 338.81103516 98.94995117 C341.87201795 97.10071029 344.15559609 96.69452104 347.7121582 96.67529297 C348.68384445 96.66576096 349.6555307 96.65622894 350.65666199 96.64640808 C351.70147232 96.64731949 352.74628265 96.6482309 353.82275391 96.64916992 C354.9055513 96.6448848 355.98834869 96.64059967 357.10395813 96.63618469 C359.39620261 96.6304422 361.68846532 96.62994053 363.98071289 96.63427734 C367.46809522 96.63742371 370.95461791 96.61402362 374.44189453 96.58862305 C376.67301326 96.58634853 378.90413425 96.58564726 381.13525391 96.58666992 C382.16994308 96.57746017 383.20463226 96.56825043 384.27067566 96.5587616 C391.1022919 96.60185525 398.24953802 96.94817693 403.6907196 101.53422546 C407.61166836 105.56946946 408.85177833 109.48218726 409.81103516 114.94995117 C417.05270747 112.61955977 424.11868141 109.9498824 431.18603516 107.13745117 C432.24564453 106.72430664 433.30525391 106.31116211 434.39697266 105.88549805 C455.81841669 97.3667988 474.07094185 83.37296694 489.94384766 66.78979492 C497.0799317 59.7582142 506.21662819 59.72566918 515.81103516 58.94995117 C515.81490234 58.11463867 515.81490234 58.11463867 515.81884766 57.26245117 C516.10421414 51.63121923 517.49786758 48.17702145 520.85009766 43.67651367 C526.55517523 38.65331788 533.2377009 38.34105228 540.49853516 37.82495117 C542.35681707 37.67915342 544.21490165 37.53081295 546.07275391 37.37963867 C546.88703857 37.32018066 547.70132324 37.26072266 548.5402832 37.19946289 C550.71311244 36.96071098 552.70014438 36.5021918 554.81103516 35.94995117 C560.06223174 35.46607958 564.42549548 35.29496878 569.24853516 37.57495117 C573.41873385 41.44001338 575.92665604 45.610877 577.81103516 50.94995117 C580.12103516 50.94995117 582.43103516 50.94995117 584.81103516 50.94995117 C584.98119141 50.29768555 585.15134766 49.64541992 585.32666016 48.97338867 C587.32688242 41.75982115 589.13021185 36.18897778 595.93603516 32.32495117 C604.69106947 28.29217162 614.81164685 26.40805672 624.36962891 25.46557617 C627.8100326 25.11244044 631.04178972 24.45056019 634.38916016 23.55688477 C639.58855023 22.25389245 644.86500415 21.27160376 650.11773682 20.20742798 C662.74273544 17.64606573 675.3496045 15.00701981 687.93603516 12.26245117 C689.19480469 11.98957275 690.45357422 11.71669434 691.75048828 11.43554688 C700.81660862 9.44768852 709.81854286 7.24268642 718.81103516 4.94995117 C720.22883529 4.58982069 721.64664135 4.22971354 723.06445312 3.86962891 C727.43986508 2.75659636 731.81317496 1.63546109 736.18603516 0.51245117 C736.94807251 0.31707764 737.71010986 0.1217041 738.49523926 -0.07958984 C747.88612529 -2.48897366 757.27112215 -4.90798489 766.57421875 -7.64160156 C775.4761036 -10.21375422 784.02210458 -11.30437884 792.85400391 -8.29223633 C799.68921002 -3.95372227 801.6047974 3.0084194 803.99853516 10.32495117 C804.34078125 11.3278418 804.68302734 12.33073242 805.03564453 13.36401367 C812.86137302 36.58287411 812.86137302 36.58287411 808.37353516 45.82495117 C801.38014233 55.91015978 786.81302067 59.15745873 775.68603516 62.19995117 C774.61981934 62.49442139 773.55360352 62.7888916 772.45507812 63.09228516 C750.57661093 69.07181468 728.53907891 74.37686277 706.37304688 79.17602539 C702.48713544 80.02032554 698.6040078 80.87671519 694.72119141 81.73510742 C654.9224248 90.52332046 654.9224248 90.52332046 640.14697266 92.55541992 C637.79671433 92.83543973 637.79671433 92.83543973 635.81103516 93.94995117 C632.43515541 94.59238056 629.02579 95.03167277 625.62353516 95.51245117 C624.22264648 95.7203125 624.22264648 95.7203125 622.79345703 95.93237305 C613.02692436 97.327592 605.55660833 97.60622501 597.06103516 92.19995117 C594.21867669 89.35759271 592.66115294 86.51314099 590.81103516 82.94995117 C588.4780874 82.90753394 586.14400949 82.9090218 583.81103516 82.94995117 C582.30060324 84.46038309 582.69936627 85.90723509 582.62353516 88.01245117 C582.08717985 93.51668758 579.59155758 97.02836448 575.81103516 100.94995117 C574.32603516 101.93995117 574.32603516 101.93995117 572.81103516 102.94995117 C573.06646912 106.61117139 573.52981915 108.58964317 575.81103516 111.51245117 C584.59905363 118.65271618 593.60782669 121.33642316 604.80712891 121.24291992 C605.66721054 121.23842331 606.52729218 121.2339267 607.41343689 121.22929382 C618.31486466 121.05552388 629.07276309 119.64954957 639.87353516 118.26245117 C642.0802365 117.98791654 644.28702495 117.71408115 646.49389648 117.44091797 C662.12723834 115.48962232 677.72918533 113.33798556 693.31494141 111.03979492 C700.93271109 109.91871106 708.56393355 108.93342673 716.20410156 107.97924805 C721.80568586 107.26287467 727.32909332 106.32876266 732.87353516 105.26245117 C740.14012061 103.88703672 747.42203749 103.11448448 754.81103516 103.94995117 C757.28139227 106.42030829 757.16145796 107.34595187 757.24853516 110.76245117 C757.15324357 114.44176518 756.98421995 115.69296728 754.87353516 118.82495117 C748.29884582 123.38698051 741.10477878 125.61373598 733.37353516 127.38745117 C731.59437605 127.81239123 729.81573777 128.23951717 728.03759766 128.66870117 C727.15491211 128.88139648 726.27222656 129.0940918 725.36279297 129.31323242 C721.63029566 130.24457121 717.94302898 131.31715973 714.24853516 132.38745117 C705.53034404 134.88188833 696.69977632 136.79333705 687.84106445 138.71704102 C681.20137721 140.16788559 674.61797496 141.7254178 668.06103516 143.51245117 C660.97594663 145.43493656 653.85668603 147.12572455 646.68603516 148.69995117 C645.73760742 148.91079346 644.78917969 149.12163574 643.81201172 149.33886719 C642.44641113 149.63361938 642.44641113 149.63361938 641.05322266 149.93432617 C640.25770996 150.10673828 639.46219727 150.27915039 638.64257812 150.45678711 C631.29644942 151.73624736 624.03591151 152.11754899 616.58837891 152.15307617 C615.17100182 152.16162628 615.17100182 152.16162628 613.72499084 152.17034912 C611.74090677 152.17973386 609.75680756 152.18630687 607.77270508 152.19018555 C604.75330512 152.19993577 601.73457413 152.23103908 598.71533203 152.26245117 C596.77718498 152.26897871 594.83903313 152.27423016 592.90087891 152.27807617 C591.56149513 152.29659637 591.56149513 152.29659637 590.1950531 152.31549072 C584.3593914 152.29491721 580.17468645 151.2524319 574.81103516 148.94995117 C572.49080683 148.22149023 570.1589634 147.58584841 567.81103516 146.94995117 C567.71306641 147.62541992 567.61509766 148.30088867 567.51416016 148.99682617 C566.29223816 156.28622289 566.29223816 156.28622289 563.99853516 159.44995117 C561.81103516 160.94995117 561.81103516 160.94995117 559.40087891 161.76635742 C556.29896071 163.18397615 555.17948011 164.64317122 553.18603516 167.38745117 C539.39310634 185.24620602 521.36576072 196.52134881 499.81103516 202.94995117 C502.97240266 205.05752951 505.02645464 205.56198019 508.70947266 206.32495117 C515.43699839 207.81375355 521.9092943 209.75233102 528.43603516 211.94995117 C529.5882959 212.33658936 530.74055664 212.72322754 531.92773438 213.12158203 C544.78213327 217.51354521 557.33139315 222.59469452 569.81103516 227.94995117 C571.04370117 228.47322998 571.04370117 228.47322998 572.30126953 229.00708008 C588.13890585 235.79906902 609.76060862 245.50640128 619.81103516 259.94995117 C612.39678882 259.39569991 605.82660879 257.13383817 598.81103516 254.76245117 C578.90566988 248.22215398 559.09639922 243.58502035 538.40136719 240.37036133 C534.99598659 239.81766902 531.62922745 239.13786136 528.24853516 238.44995117 C517.12731751 236.32502485 505.86712382 235.04738763 494.63336182 233.67054749 C490.65645158 233.18268436 486.68411644 232.6691266 482.71337891 232.13354492 C476.09218398 231.26446768 469.45877626 230.58141199 462.81103516 229.94995117 C461.76961365 229.84813538 461.76961365 229.84813538 460.70715332 229.7442627 C398.07151976 223.68297361 333.02145223 224.2560619 270.45361328 230.68566895 C267.69913929 230.96114179 264.94330587 231.21291214 262.18603516 231.45874023 C253.87376684 232.20444336 245.65191945 233.00638593 237.43359375 234.4987793 C233.81850291 235.12070146 230.1908685 235.49905788 226.54443359 235.88696289 C190.83691848 239.71319445 154.50877105 247.03186204 121.07519531 260.31103516 C118.81103516 260.94995117 118.81103516 260.94995117 115.81103516 259.94995117 C123.56337506 252.24178415 132.56269366 246.65595825 141.81103516 240.94995117 C142.91060547 240.25901367 144.01017578 239.56807617 145.14306641 238.85620117 C163.97790744 227.52278265 185.06951513 219.96998697 205.81103516 212.94995117 C206.59333496 212.68456543 207.37563477 212.41917969 208.18164062 212.14575195 C218.24455682 208.77170195 228.45776475 206.24355934 238.81103516 203.94995117 C237.98786917 201.72825243 237.98786917 201.72825243 235.61572266 201.16088867 C234.64892578 200.8850293 233.68212891 200.60916992 232.68603516 200.32495117 C213.08852905 194.00167518 196.74886757 181.28372772 184.47509766 164.91870117 C182.28322026 162.32549411 179.65946688 160.76258954 176.81103516 158.94995117 C173.83393461 155.1515815 173.27707865 151.70359481 172.81103516 146.94995117 C171.97701172 147.21549805 171.14298828 147.48104492 170.28369141 147.75463867 C168.59566406 148.28444336 168.59566406 148.28444336 166.87353516 148.82495117 C165.2203125 149.34702148 165.2203125 149.34702148 163.53369141 149.87963867 C161.69097656 150.40944336 161.69097656 150.40944336 159.81103516 150.94995117 C159.18245605 151.1367041 158.55387695 151.32345703 157.90625 151.51586914 C150.48746839 153.46559852 142.92772229 153.3492594 135.31103516 153.32495117 C134.21424942 153.32263992 134.21424942 153.32263992 133.0953064 153.32028198 C102.82669836 153.16937275 73.71472091 144.70478525 44.53656006 137.38131714 C40.29228507 136.31669367 36.04353757 135.27217877 31.79150391 134.23901367 C21.14585311 131.6423822 10.49814252 129.03109683 -0.00146484 125.88745117 C-0.74050049 125.67878418 -1.47953613 125.47011719 -2.2409668 125.25512695 C-7.52966676 123.60514636 -11.35923647 120.96095196 -15.18896484 116.94995117 C-16.64044387 114.04699312 -16.5613551 112.17733338 -16.18896484 108.94995117 C-14.01439468 104.5202712 -14.01439468 104.5202712 -11.18896484 102.94995117 C-4.67914236 102.34395923 1.45928122 103.85214493 7.74072266 105.36791992 C15.40803309 107.16778115 23.14121712 108.26492724 30.93603516 109.32495117 C32.46606182 109.53711191 33.99600818 109.7498525 35.52587891 109.96313477 C37.900181 110.29399226 40.27454374 110.62434011 42.64923096 110.9524231 C48.07923823 111.70336096 53.50466791 112.48195602 58.92822266 113.27807617 C75.66122382 115.72766387 92.37713879 117.93963551 109.20678711 119.64038086 C111.0676953 119.86158941 112.92155138 120.14576816 114.76708984 120.47119141 C129.12862061 122.73001093 149.63265844 123.605668 162.26025391 115.34838867 C164.43735918 113.61503215 164.43735918 113.61503215 166.81103516 110.94995117 C166.1225169 107.7801066 166.1225169 107.7801066 163.43603516 106.57495117 C160.25823226 104.60773986 159.39358169 103.33471784 157.81103516 99.94995117 C157.32555159 97.01700032 157.21062417 94.10594227 157.12353516 91.13745117 C157.089375 90.34918945 157.05521484 89.56092773 157.02001953 88.7487793 C156.93803641 86.81631998 156.87284671 84.88316083 156.81103516 82.94995117 C152.79314097 82.70132266 152.79314097 82.70132266 148.81103516 82.94995117 C147.02387542 84.47920372 147.02387542 84.47920372 146.18603516 86.69995117 C143.50401144 91.77695927 140.26293666 93.83545049 135.06103516 96.19995117 C130.3284814 97.29207896 124.28643402 98.1876506 119.81103516 95.94995117 C118.36134999 95.68635567 116.90389225 95.46469918 115.44384766 95.26635742 C114.55697266 95.14325195 113.67009766 95.02014648 112.75634766 94.89331055 C111.82564453 94.76762695 110.89494141 94.64194336 109.93603516 94.51245117 C96.76500378 92.71380599 83.72000942 90.42717188 70.68603516 87.82495117 C69.93015106 87.67411072 69.17426697 87.52327026 68.39547729 87.36785889 C51.43481843 83.96798707 34.61191203 80.06039783 17.81103516 75.94995117 C17.02273315 75.75749817 16.23443115 75.56504517 15.42224121 75.36676025 C9.69498791 73.96775502 3.97096067 72.55606242 -1.75146484 71.13745117 C-2.51699677 70.94854309 -3.28252869 70.75963501 -4.07125854 70.56500244 C-11.22695893 68.79545985 -18.33511153 67.02399928 -25.2980957 64.58251953 C-28.37661435 63.55263679 -31.527613 62.86469493 -34.68896484 62.13745117 C-62.93964893 55.25405293 -62.93964893 55.25405293 -69.35693359 45.10229492 C-73.042988 35.56700864 -69.14089398 24.17335391 -66.18896484 14.94995117 C-65.95870605 14.21035156 -65.72844727 13.47075195 -65.49121094 12.70874023 C-64.76665515 10.40629535 -64.01490369 8.11477358 -63.25146484 5.82495117 C-62.90897705 4.75905762 -62.90897705 4.75905762 -62.55957031 3.67163086 C-60.61016879 -1.93139125 -57.57105281 -5.01826792 -53.06396484 -8.86254883 C-38.07326274 -15.05436057 -14.52927548 -4.06679773 0 0 Z " fill="#6D4AF9" transform="translate(87.18896484375,39.050048828125)"/>
<path d="M0 0 C0.37511719 0.83144531 0.75023437 1.66289062 1.13671875 2.51953125 C1.64847656 3.60621094 2.16023437 4.69289062 2.6875 5.8125 C3.43580078 7.43091797 3.43580078 7.43091797 4.19921875 9.08203125 C6.17620778 12.28552541 7.58411532 13.49127333 11 15 C12.155 14.979375 13.31 14.95875 14.5 14.9375 C18 16 18 16 19.41796875 18.41015625 C20.28570848 20.52210126 21.0987173 22.65714635 21.86328125 24.80859375 C22.84859551 27.57492278 24.00164422 29.97984118 25.375 32.5625 C28.65095899 39.88056969 26.13002842 47.89645124 24.44921875 55.39453125 C23.9437207 58.32641996 23.89081987 61.15257457 23.8125 64.125 C23.30789728 70.70165549 20.86889195 73.75532497 16 78 C15.27554688 78.65484375 14.55109375 79.3096875 13.8046875 79.984375 C-5.90319096 96.76534082 -34.15887751 107.27527215 -60 106 C-65.39609953 105.54322638 -70.75615247 104.88333115 -76.125 104.1875 C-79.09453008 103.81605474 -82.06482973 103.45095202 -85.03515625 103.0859375 C-86.15013741 102.9476931 -86.15013741 102.9476931 -87.28764343 102.80665588 C-92.3933408 102.17893149 -97.50281015 101.61623468 -102.62109375 101.1015625 C-103.29853638 101.03340836 -103.975979 100.96525421 -104.6739502 100.89503479 C-107.89088127 100.5737672 -111.10845976 100.26019863 -114.32666016 99.9519043 C-115.45765137 99.84015869 -116.58864258 99.72841309 -117.75390625 99.61328125 C-119.24386108 99.47079956 -119.24386108 99.47079956 -120.76391602 99.32543945 C-123 99 -123 99 -124 98 C-124.08868299 95.04294679 -124.11520296 92.10934944 -124.09765625 89.15234375 C-124.0962413 88.2659169 -124.09482635 87.37949005 -124.09336853 86.46620178 C-124.08775215 83.62326746 -124.07519691 80.78041069 -124.0625 77.9375 C-124.05748711 76.01497509 -124.05292384 74.09244896 -124.04882812 72.16992188 C-124.03777741 67.44658451 -124.02050183 62.72330542 -124 58 C-123.40001694 57.89579239 -122.80003387 57.79158478 -122.18186951 57.68421936 C-78.74140806 50.1028842 -44.11781703 31.39222348 -11.453125 2.20703125 C-7.86717718 -0.77161896 -4.48254117 -0.07229905 0 0 Z " fill="#FEFDFE" transform="translate(607,130)"/>
<path d="M0 0 C6.06238158 -0.42543029 10.13592672 0.10070158 15 4 C16.56368707 5.51932715 18.10309588 7.06382094 19.625 8.625 C46.92892962 36.58291595 86.20104317 51.70017386 124 58 C124 71.53 124 85.06 124 99 C120.99519531 99.25394531 117.99039063 99.50789063 114.89453125 99.76953125 C111.90539288 100.0263325 108.91643719 100.28517091 105.92749023 100.54418945 C103.88860898 100.71980906 101.84955099 100.89339179 99.81030273 101.06469727 C88.10612559 102.04943065 76.48201003 103.21847703 64.87080383 105.01142883 C53.29139939 106.78650669 43.28321953 106.22189835 32 103 C30.87335938 102.69449219 29.74671875 102.38898438 28.5859375 102.07421875 C13.303526 97.4961543 -2.2514748 89.88499723 -14 79 C-14.77988281 78.41347656 -15.55976563 77.82695312 -16.36328125 77.22265625 C-19.85111991 74.37335109 -21.81387914 72.4870869 -22.38671875 67.91015625 C-22.33611806 65.54257637 -22.23091722 63.1756863 -22.078125 60.8125 C-21.9667158 55.37573115 -23.17762097 50.54030735 -24.44140625 45.27734375 C-25.7999783 37.30642104 -21.29709464 29.5134069 -17 23 C-14.14225306 20.95875218 -11.3232126 20.03890724 -8 19 C-2.61637744 15.1747945 -1.50497725 8.61670032 -0.3125 2.4375 C-0.209375 1.633125 -0.10625 0.82875 0 0 Z " fill="#FEFEFE" transform="translate(306,130)"/>
<path d="M0 0 C7.65028963 -0.04657662 15.30056434 -0.08199682 22.95096397 -0.10362434 C26.5043073 -0.1140105 30.0575528 -0.12807377 33.61083984 -0.15087891 C37.70671466 -0.17699843 41.80248856 -0.18651545 45.8984375 -0.1953125 C47.1592514 -0.20563507 48.42006531 -0.21595764 49.71908569 -0.22659302 C66.86770145 -0.22875089 66.86770145 -0.22875089 72.4375 3.734375 C72.953125 4.39953125 73.46875 5.0646875 74 5.75 C74.53625 6.40484375 75.0725 7.0596875 75.625 7.734375 C78.58274377 12.60793007 79.25259743 17.19262888 79.2746582 22.82470703 C79.27976913 23.47930405 79.28488007 24.13390106 79.29014587 24.80833435 C79.30396829 26.95825526 79.30308961 29.1078526 79.30078125 31.2578125 C79.30467443 32.76748776 79.30901038 34.27716193 79.31376648 35.78683472 C79.32121458 38.94907175 79.32094932 42.11119714 79.31567383 45.2734375 C79.30990484 49.29442132 79.32675425 53.31494065 79.3500185 57.33584785 C79.36487327 60.4554403 79.36561134 63.57492419 79.36250877 66.69454575 C79.3630169 68.1750772 79.36815735 69.65561556 79.37832069 71.13611221 C79.50828199 92.72841068 79.50828199 92.72841068 73.8125 100.5625 C66.37053869 107.0121998 58.05908558 106.41629816 48.69140625 106.328125 C47.31518257 106.32506244 45.93895577 106.3231901 44.56272888 106.32244873 C41.69574907 106.31787144 38.82905421 106.30353668 35.9621582 106.28125 C32.28107228 106.25278193 28.60020815 106.24201704 24.91902256 106.2375679 C22.08554356 106.23342302 19.25210959 106.22361643 16.41865349 106.21169281 C15.06022438 106.20598683 13.70179095 106.20122921 12.34335518 106.19742584 C10.45486993 106.19058662 8.56641715 106.17606075 6.67797852 106.16113281 C5.60290543 106.15430481 4.52783234 106.14747681 3.42018127 106.14044189 C1 106 1 106 0 105 C-0.09535213 103.63391674 -0.1218867 102.26294545 -0.12025452 100.89353943 C-0.12162918 100.00867859 -0.12300385 99.12381775 -0.12442017 98.21214294 C-0.12082489 97.23391068 -0.11722961 96.25567841 -0.11352539 95.24780273 C-0.11367142 94.2235318 -0.11381744 93.19926086 -0.1139679 92.14395142 C-0.11326828 88.74047771 -0.10547363 85.33705796 -0.09765625 81.93359375 C-0.09579224 79.58089732 -0.09436826 77.2282005 -0.09336853 74.87550354 C-0.08954199 68.66943295 -0.07971055 62.4633856 -0.06866455 56.25732422 C-0.05845334 49.93001622 -0.05387154 43.60270448 -0.04882812 37.27539062 C-0.0380884 24.85025018 -0.02101036 12.42512702 0 0 Z " fill="#555555" transform="translate(254,363)"/>
<path d="M0 0 C1.61252655 -0.03366417 1.61252655 -0.03366417 3.25762939 -0.06800842 C4.41494568 -0.07964523 5.57226196 -0.09128204 6.76464844 -0.10327148 C8.55887238 -0.12392921 8.55887238 -0.12392921 10.38934326 -0.14500427 C12.92113623 -0.16827799 15.45299048 -0.1855425 17.98486328 -0.19726562 C21.84619782 -0.22417135 25.70478582 -0.29908113 29.56542969 -0.37475586 C32.02765087 -0.39141523 34.48989367 -0.40518094 36.95214844 -0.41577148 C38.1013678 -0.44562637 39.25058716 -0.47548126 40.43463135 -0.50624084 C47.35201673 -0.4685468 51.14671926 0.53500491 56.12420654 5.44276428 C58.66494214 8.65357974 59.87552631 11.27605939 59.86453247 15.38775635 C59.8672818 16.18418549 59.87003113 16.98061462 59.87286377 17.80117798 C59.86207794 19.09806046 59.86207794 19.09806046 59.85107422 20.42114258 C59.85136627 21.33856232 59.85165833 22.25598206 59.85195923 23.20120239 C59.85056673 26.23131797 59.83500915 29.26118718 59.81933594 32.29125977 C59.81560553 34.39304469 59.81275869 36.49483136 59.8107605 38.59661865 C59.80312626 44.12700201 59.78347949 49.65728023 59.76135254 55.18762207 C59.74088966 60.8315285 59.73175783 66.47545193 59.72167969 72.11938477 C59.70023345 83.19235505 59.66505294 94.26521971 59.62402344 105.33813477 C50.38402344 105.33813477 41.14402344 105.33813477 31.62402344 105.33813477 C31.29402344 94.44813477 30.96402344 83.55813477 30.62402344 72.33813477 C21.60032797 73.7041347 21.60032797 73.7041347 12.62402344 75.33813477 C12.59896729 76.24168701 12.57391113 77.14523926 12.5480957 78.07617188 C12.45315027 81.41777757 12.35390723 84.75919729 12.25170898 88.10058594 C12.20830714 89.54877716 12.16663599 90.99702131 12.12670898 92.4453125 C12.06913281 94.52303036 12.00540316 96.6004805 11.94042969 98.67797852 C11.90377197 99.92957764 11.86711426 101.18117676 11.8293457 102.47070312 C11.62402344 105.33813477 11.62402344 105.33813477 10.62402344 106.33813477 C8.55140267 106.42580589 6.47582049 106.4450935 4.40136719 106.43579102 C2.5112793 106.43095703 2.5112793 106.43095703 0.58300781 106.42602539 C-0.75748765 106.4176688 -2.09798244 106.40920384 -3.43847656 106.40063477 C-4.78287598 106.39562137 -6.12727716 106.39105818 -7.47167969 106.38696289 C-10.77315597 106.37512964 -14.07454459 106.35864447 -17.37597656 106.33813477 C-17.56165558 94.10737174 -17.7036454 81.8769461 -17.79047394 69.64505863 C-17.83215619 63.96468752 -17.88865771 58.28528338 -17.97949219 52.60546875 C-18.06666585 47.11998994 -18.11430304 41.63543883 -18.13499451 36.1493206 C-18.14973213 34.06050455 -18.17851265 31.97173707 -18.22181702 29.88331795 C-18.58840577 11.46497079 -18.58840577 11.46497079 -13.57714844 5.609375 C-9.26603339 1.75114126 -5.79128849 0.10227516 0 0 Z " fill="#545454" transform="translate(543.3759765625,362.661865234375)"/>
<path d="M0 0 C1.13507996 -0.02236725 2.27015991 -0.0447345 3.43963623 -0.06777954 C4.66257385 -0.07425507 5.88551147 -0.08073059 7.14550781 -0.08740234 C8.40824524 -0.09975922 9.67098267 -0.11211609 10.97198486 -0.12484741 C13.64538514 -0.14442498 16.31783926 -0.15687461 18.99121094 -0.15917969 C22.39917233 -0.16444984 25.80473129 -0.21569971 29.21204758 -0.27869606 C32.48140484 -0.32966846 35.7508065 -0.33020082 39.02050781 -0.33740234 C40.23534851 -0.36412018 41.45018921 -0.39083801 42.70184326 -0.41836548 C49.82991151 -0.36150956 53.81985209 0.52962512 58.92262268 5.64564514 C63.79014143 11.8102661 62.68127083 20.43406646 62.66113281 27.88916016 C62.67724609 29.07832031 62.69335938 30.26748047 62.70996094 31.49267578 C62.7136717 38.17576339 62.37261696 43.43952106 59.34863281 49.45166016 C56.66113281 51.45166016 56.66113281 51.45166016 54.34863281 52.45166016 C55.11175781 53.02916016 55.87488281 53.60666016 56.66113281 54.20166016 C62.05829419 58.72021387 62.05829419 58.72021387 62.70939636 62.60308838 C62.70273453 63.37586121 62.69607269 64.14863403 62.68920898 64.94482422 C62.68898239 65.82543518 62.6887558 66.70604614 62.68852234 67.61334229 C62.67303848 68.55514343 62.65755463 69.49694458 62.64160156 70.46728516 C62.63735672 71.43825134 62.63311188 72.40921753 62.6287384 73.40960693 C62.61196134 76.50724147 62.57431053 79.60422265 62.53613281 82.70166016 C62.52108473 84.80321325 62.50739654 86.90477656 62.49511719 89.00634766 C62.46206092 94.15503645 62.41028489 99.30323757 62.34863281 104.45166016 C58.37932292 104.47631897 54.41004247 104.49450039 50.44067383 104.5065918 C49.08942895 104.51163072 47.73818955 104.51846193 46.38696289 104.52709961 C44.44842847 104.53918435 42.50985481 104.54435844 40.57128906 104.54931641 C38.81957397 104.55717163 38.81957397 104.55717163 37.0324707 104.56518555 C34.34863281 104.45166016 34.34863281 104.45166016 33.34863281 103.45166016 C33.26019488 101.00335589 33.2333453 98.58345417 33.25097656 96.13525391 C33.25239151 95.40419937 33.25380646 94.67314484 33.25526428 93.91993713 C33.26087873 91.57630383 33.2734336 89.23276476 33.28613281 86.88916016 C33.29114596 85.30387507 33.29570918 83.7185885 33.29980469 82.13330078 C33.3100036 78.23935473 33.32957595 74.34561339 33.34863281 70.45166016 C26.41863281 71.44166016 19.48863281 72.43166016 12.34863281 73.45166016 C12.67393371 79.16428349 12.67393371 79.16428349 13.00683594 84.87646484 C13.36596243 91.43479861 13.34863281 97.85240304 13.34863281 104.45166016 C3.77863281 104.45166016 -5.79136719 104.45166016 -15.65136719 104.45166016 C-15.69656955 92.82074484 -15.7332555 81.18988796 -15.75499153 69.55890465 C-15.76542424 64.15805164 -15.77957418 58.75726191 -15.80224609 53.35644531 C-15.8239926 48.14339197 -15.83593968 42.93039944 -15.84112167 37.71730423 C-15.84481417 35.7294176 -15.85202467 33.74153426 -15.8628273 31.75367355 C-15.87736614 28.96721987 -15.87934411 26.18101683 -15.87841797 23.39453125 C-15.88560852 22.57453644 -15.89279907 21.75454163 -15.90020752 20.90969849 C-15.87481227 13.8386573 -14.55318025 8.78598614 -9.65136719 3.45166016 C-6.43974026 0.53473803 -4.30530711 0.06238378 0 0 Z " fill="#545454" transform="translate(629.6513671875,364.54833984375)"/>
<path d="M0 0 C1.01575104 -0.00570007 2.03150208 -0.01140015 3.07803345 -0.01727295 C5.22128263 -0.02669382 7.3645461 -0.03324531 9.5078125 -0.03710938 C12.77109196 -0.04682152 16.03374293 -0.07787569 19.296875 -0.109375 C21.38541295 -0.11590537 23.47395538 -0.12115571 25.5625 -0.125 C26.53045502 -0.1373468 27.49841003 -0.1496936 28.49569702 -0.16241455 C35.28040867 -0.14030654 40.76867683 0.67431302 46.48803711 4.6418457 C51.7301396 10.95316411 51.22144084 18.2771132 51.03149414 26.05834961 C50.97643564 28.39601112 50.9699679 30.73011432 50.97070312 33.06835938 C50.95596283 34.5651348 50.93848009 36.06188628 50.91796875 37.55859375 C50.91296104 38.5978022 50.91296104 38.5978022 50.90785217 39.65800476 C50.78119115 43.98937198 50.02144627 46.73441232 47.4140625 50.203125 C45.2265625 52.015625 45.2265625 52.015625 43.4140625 53.203125 C43.91144424 53.58884171 44.40882599 53.97455841 44.92127991 54.3719635 C47.75901462 56.82671205 50.04742559 58.83566213 51.0397644 62.53683472 C51.22108988 65.21958072 51.20245087 67.8248722 51.09765625 70.51171875 C51.08775162 71.47844009 51.07784698 72.44516144 51.06764221 73.44117737 C51.02865823 76.50924588 50.94086849 79.57365019 50.8515625 82.640625 C50.81642787 84.72846371 50.78449264 86.81635888 50.75585938 88.90429688 C50.68491194 94.00643067 50.5479451 99.10071029 50.4140625 104.203125 C41.1740625 104.203125 31.9340625 104.203125 22.4140625 104.203125 C22.4140625 93.313125 22.4140625 82.423125 22.4140625 71.203125 C15.4840625 72.193125 15.4840625 72.193125 8.4140625 73.203125 C4.9490625 73.698125 4.9490625 73.698125 1.4140625 74.203125 C1.4140625 84.433125 1.4140625 94.663125 1.4140625 105.203125 C-7.8259375 105.203125 -17.0659375 105.203125 -26.5859375 105.203125 C-26.67633414 93.18106741 -26.74970884 81.15923585 -26.79318619 69.13691521 C-26.81405394 63.55436442 -26.84235719 57.97205837 -26.88769531 52.38964844 C-26.93118138 47.00151288 -26.95508072 41.61361261 -26.96544647 36.22531509 C-26.97283283 34.17041444 -26.98725669 32.11552655 -27.00885773 30.06072617 C-27.03792806 27.18066406 -27.04189194 24.30157212 -27.04003906 21.42138672 C-27.05442017 20.57333969 -27.06880127 19.72529266 -27.08361816 18.85154724 C-27.04055715 12.65892453 -25.31065908 9.20602496 -21.09375 4.55859375 C-14.85414093 -0.71158453 -7.76207156 0.033938 0 0 Z " fill="#545454" transform="translate(148.5859375,363.796875)"/>
<path d="M0 0 C0.98129379 -0.00960754 1.96258759 -0.01921509 2.97361755 -0.02911377 C4.02267776 -0.03336365 5.07173798 -0.03761353 6.15258789 -0.04199219 C7.24108536 -0.04769226 8.32958282 -0.05339233 9.45106506 -0.05926514 C11.74991895 -0.06869718 14.04878625 -0.07524197 16.34765625 -0.07910156 C19.85904488 -0.08882234 23.36985175 -0.11986952 26.88110352 -0.15136719 C29.11742817 -0.15789628 31.35375701 -0.16314712 33.59008789 -0.16699219 C35.16064186 -0.18551239 35.16064186 -0.18551239 36.76292419 -0.20440674 C43.18849956 -0.18481827 47.91654414 0.31727789 52.80102539 4.91503906 C53.27926758 5.511875 53.75750977 6.10871094 54.25024414 6.72363281 C54.98694336 7.62275391 54.98694336 7.62275391 55.73852539 8.54003906 C58.495557 12.26697104 58.05024022 15.83263593 58.00024414 20.28613281 C57.99573242 21.04023438 57.9912207 21.79433594 57.98657227 22.57128906 C57.97477913 24.43460408 57.95684356 26.29787836 57.93774414 28.16113281 C54.02784638 29.08094756 50.39156747 29.28998075 46.37915039 29.29394531 C45.10491211 29.29523438 43.83067383 29.29652344 42.51782227 29.29785156 C41.85596924 29.29575684 41.19411621 29.29366211 40.51220703 29.29150391 C38.53752218 29.28623233 36.56281779 29.29193639 34.58813477 29.29785156 C25.98661888 29.28922849 17.5066247 28.8913548 8.93774414 28.16113281 C8.93774414 32.12113281 8.93774414 36.08113281 8.93774414 40.16113281 C10.26547852 39.87238281 11.59321289 39.58363281 12.96118164 39.28613281 C14.74492536 38.91060782 16.52878593 38.53563752 18.31274414 38.16113281 C19.18286133 37.97035156 20.05297852 37.77957031 20.94946289 37.58300781 C21.81958008 37.40253906 22.68969727 37.22207031 23.58618164 37.03613281 C24.76446533 36.78476562 24.76446533 36.78476562 25.96655273 36.52832031 C30.25935819 35.99780434 34.61228163 36.16113281 38.93774414 36.16113281 C38.93774414 45.73113281 38.93774414 55.30113281 38.93774414 65.16113281 C26.75024414 66.97363281 26.75024414 66.97363281 22.93310547 67.52368164 C21.93045654 67.67861084 20.92780762 67.83354004 19.89477539 67.99316406 C18.36300659 68.22096558 18.36300659 68.22096558 16.80029297 68.45336914 C13.6172084 69.2403851 11.50936598 70.1186843 8.93774414 72.16113281 C8.60774414 73.81113281 8.27774414 75.46113281 7.93774414 77.16113281 C24.43774414 77.16113281 40.93774414 77.16113281 57.93774414 77.16113281 C57.93774414 86.73113281 57.93774414 96.30113281 57.93774414 106.16113281 C32.19774414 106.16113281 6.45774414 106.16113281 -20.06225586 106.16113281 C-20.14247348 83.73139533 -20.14247348 83.73139533 -20.15991211 74.15527344 C-20.17185805 67.62635031 -20.18597596 61.09748339 -20.21313477 54.56860352 C-20.23489822 49.3036748 -20.24683192 44.03880638 -20.25201035 38.77383614 C-20.2556998 36.7672385 -20.26290437 34.76064409 -20.27371597 32.75407219 C-20.28827735 29.93908483 -20.29023185 27.12434526 -20.28930664 24.30932617 C-20.29649719 23.4835759 -20.30368774 22.65782562 -20.31109619 21.80705261 C-20.29084 16.09480652 -20.03026253 10.58529997 -16.29272461 5.98144531 C-15.61854492 5.42199219 -14.94436523 4.86253906 -14.24975586 4.28613281 C-13.25008789 3.42375 -13.25008789 3.42375 -12.23022461 2.54394531 C-8.44324344 0.12846543 -4.40378357 0.0350029 0 0 Z " fill="#565656" transform="translate(363.062255859375,362.8388671875)"/>
<path d="M0 0 C1.14609741 -0.00099701 2.29219482 -0.00199402 3.47302246 -0.00302124 C5.88687098 0.00164243 8.30073083 0.02099455 10.71435547 0.05419922 C14.39509661 0.10141941 18.07293861 0.09530574 21.75390625 0.08203125 C24.10678799 0.09318567 26.4596576 0.10740599 28.8125 0.125 C29.90542358 0.12317719 30.99834717 0.12135437 32.12438965 0.11947632 C39.29442552 0.25158531 45.08385233 1.20718841 50.49572754 6.19003296 C56.06764948 13.24727836 53.90625 19.08728823 53.90625 28.7265625 C37.40625 28.7265625 20.90625 28.7265625 3.90625 28.7265625 C3.90625 32.6865625 3.90625 36.6465625 3.90625 40.7265625 C7.03191424 40.25143763 10.15673811 39.77165593 13.28125 39.2890625 C14.17070313 39.15435547 15.06015625 39.01964844 15.9765625 38.88085938 C16.82734375 38.74873047 17.678125 38.61660156 18.5546875 38.48046875 C19.34020996 38.36002197 20.12573242 38.2395752 20.93505859 38.11547852 C22.97236684 37.80418012 22.97236684 37.80418012 24.90625 36.7265625 C28.20625 36.7265625 31.50625 36.7265625 34.90625 36.7265625 C34.90625 45.9665625 34.90625 55.2065625 34.90625 64.7265625 C25.46875 66.6015625 25.46875 66.6015625 22.55297852 67.17919922 C16.98631686 68.28901014 11.44304701 69.47613632 5.90625 70.7265625 C5.57625 73.0365625 5.24625 75.3465625 4.90625 77.7265625 C21.07625 77.7265625 37.24625 77.7265625 53.90625 77.7265625 C53.90625 87.2965625 53.90625 96.8665625 53.90625 106.7265625 C43.88396835 106.74911411 33.86170343 106.76747793 23.8394022 106.77837467 C19.18613814 106.78360335 14.53289226 106.79070073 9.87963867 106.80200195 C5.39280454 106.81283136 0.90598796 106.81883945 -3.58085823 106.82143974 C-5.29655293 106.8232939 -7.01224662 106.82691432 -8.72793388 106.83229256 C-11.12259913 106.83950371 -13.51719096 106.84055341 -15.91186523 106.84008789 C-16.98648262 106.8454808 -16.98648262 106.8454808 -18.08280945 106.85098267 C-22.97969784 106.84061466 -22.97969784 106.84061466 -24.09375 105.7265625 C-24.21027069 102.93875208 -24.26176831 100.17538984 -24.27075195 97.38647461 C-24.27732315 96.511604 -24.28389435 95.6367334 -24.29066467 94.73535156 C-24.31045727 91.82486901 -24.32207658 88.91443832 -24.33203125 86.00390625 C-24.33814454 84.51431491 -24.33814454 84.51431491 -24.34438133 82.99463081 C-24.36527252 77.73348318 -24.37955813 72.47236183 -24.38891602 67.21118164 C-24.39995632 61.78279551 -24.43432004 56.35482204 -24.47408772 50.92658138 C-24.5002797 46.74944819 -24.50861041 42.57241262 -24.51219749 38.39520454 C-24.51706075 36.39499707 -24.52866727 34.39479387 -24.54723549 32.39466667 C-24.57167014 29.58692081 -24.5706534 26.78023248 -24.5637207 23.97241211 C-24.57653076 23.15182816 -24.58934082 22.3312442 -24.60253906 21.48579407 C-24.54276262 14.81207305 -22.64993603 9.80838282 -18.3782959 4.65835571 C-12.49632744 0.0737022 -7.29080653 -0.12287499 0 0 Z " fill="#555555" transform="translate(727.09375,362.2734375)"/>
<path d="M0 0 C1.1904895 -0.00811203 2.380979 -0.01622406 3.60754395 -0.02458191 C6.11547271 -0.03301743 8.62349356 -0.02623792 11.13134766 -0.00512695 C14.95785423 0.01946124 18.77930769 -0.02527769 22.60546875 -0.07617188 C25.04948339 -0.0758014 27.49350147 -0.07137979 29.9375 -0.0625 C31.07417114 -0.07980667 32.21084229 -0.09711334 33.38195801 -0.11494446 C40.32044355 0.00667214 44.0438001 1.11672051 48.96513367 6.10830688 C53.86175056 11.7217188 53.85583437 15.9032009 53.65625 23.14453125 C53.63594727 24.54155273 53.63594727 24.54155273 53.61523438 25.96679688 C53.58001882 28.25580771 53.53077099 30.54361583 53.46875 32.83203125 C48.80591575 34.2475345 44.30788632 35.2765277 39.46875 35.95703125 C38.31375 36.12460937 37.15875 36.2921875 35.96875 36.46484375 C32.43106898 36.83598439 29.02293165 36.96531306 25.46875 36.83203125 C24.46875 35.83203125 24.46875 35.83203125 24.40625 32.76953125 C24.426875 31.80015625 24.4475 30.83078125 24.46875 29.83203125 C23.6953125 29.84363281 22.921875 29.85523438 22.125 29.8671875 C21.0834375 29.87621094 20.041875 29.88523437 18.96875 29.89453125 C17.9478125 29.90613281 16.926875 29.91773438 15.875 29.9296875 C12.05692095 29.82022422 8.25890207 29.30580026 4.46875 28.83203125 C4.46875 45.00203125 4.46875 61.17203125 4.46875 77.83203125 C11.06875 77.83203125 17.66875 77.83203125 24.46875 77.83203125 C24.46875 74.20203125 24.46875 70.57203125 24.46875 66.83203125 C28.56177159 64.78552046 32.27110316 63.96506497 36.71875 63.20703125 C37.80736328 63.0059375 37.80736328 63.0059375 38.91796875 62.80078125 C40.00271484 62.61128906 40.00271484 62.61128906 41.109375 62.41796875 C41.75422852 62.30501465 42.39908203 62.19206055 43.06347656 62.07568359 C46.51518709 61.72602798 49.99937475 61.83203125 53.46875 61.83203125 C53.46875 76.68203125 53.46875 91.53203125 53.46875 106.83203125 C34.2922826 106.87214006 34.2922826 106.87214006 26.14648438 106.88085938 C20.5783595 106.88684767 15.010251 106.89394759 9.44213867 106.9074707 C4.95530454 106.91830011 0.46848796 106.9243082 -4.01835823 106.92690849 C-5.73405293 106.92876265 -7.44974662 106.93238307 -9.16543388 106.93776131 C-11.56009913 106.94497246 -13.95469096 106.94602216 -16.34936523 106.94555664 C-17.42398262 106.95094955 -17.42398262 106.95094955 -18.52030945 106.95645142 C-23.41719784 106.94608341 -23.41719784 106.94608341 -24.53125 105.83203125 C-24.64777069 103.04422083 -24.69926831 100.28085859 -24.70825195 97.49194336 C-24.71482315 96.61707275 -24.72139435 95.74220215 -24.72816467 94.84082031 C-24.74795727 91.93033776 -24.75957658 89.01990707 -24.76953125 86.109375 C-24.77564454 84.61978366 -24.77564454 84.61978366 -24.78188133 83.10009956 C-24.80277252 77.83895193 -24.81705813 72.57783058 -24.82641602 67.31665039 C-24.83745632 61.88826426 -24.87182004 56.46029079 -24.91158772 51.03205013 C-24.9377797 46.85491694 -24.94611041 42.67788137 -24.94969749 38.50067329 C-24.95456075 36.50046582 -24.96616727 34.50026262 -24.98473549 32.50013542 C-25.00917014 29.69238956 -25.0081534 26.88570123 -25.0012207 24.07788086 C-25.01403076 23.25729691 -25.02684082 22.43671295 -25.04003906 21.59126282 C-24.9802789 14.91935964 -23.08152396 9.92897887 -18.83117676 4.76753235 C-12.86376282 0.09452525 -7.40108766 -0.058655 0 0 Z " fill="#565656" transform="translate(456.53125,362.16796875)"/>
<path d="M0 0 C1.26863388 -0.01641289 1.26863388 -0.01641289 2.56289673 -0.03315735 C4.34981196 -0.04900402 6.13684871 -0.05422419 7.92382812 -0.04956055 C10.64920326 -0.05077463 13.36919895 -0.11051803 16.09375 -0.17382812 C17.83332024 -0.18197137 19.57291091 -0.18664231 21.3125 -0.1875 C22.12206146 -0.21108078 22.93162292 -0.23466156 23.76571655 -0.25895691 C27.97701019 -0.19101143 30.70057045 0.39249527 33.81347656 3.33886719 C37.73141745 8.67990509 37.03164814 14.881141 36.875 21.2265625 C36.86651031 22.52622452 36.85802063 23.82588654 36.84927368 25.16493225 C36.82649789 28.59985135 36.76767912 32.03321835 36.7010498 35.4675293 C36.63937954 38.98008861 36.61187631 42.49290926 36.58203125 46.00585938 C36.52110726 52.88417772 36.40366829 59.75824908 36.2890625 66.63671875 C19.4590625 66.63671875 2.6290625 66.63671875 -14.7109375 66.63671875 C-14.75690594 58.93189754 -14.7967156 51.22755427 -14.82080078 43.52270508 C-14.83084395 40.90289699 -14.84448102 38.28310006 -14.86181641 35.66333008 C-14.88613835 31.8927128 -14.89743769 28.12224405 -14.90625 24.3515625 C-14.91657257 23.18463364 -14.92689514 22.01770477 -14.93753052 20.81541443 C-14.93928712 8.01710516 -14.93928712 8.01710516 -11.13037109 2.23901367 C-7.5821035 -0.11086324 -4.1210298 0.00665678 0 0 Z " fill="#575757" transform="translate(557.7109375,481.36328125)"/>
<path d="M0 0 C9.24 0 18.48 0 28 0 C28 34.98 28 69.96 28 106 C18.76 106 9.52 106 0 106 C0 71.02 0 36.04 0 0 Z " fill="#545454" transform="translate(215,363)"/>
<path d="M0 0 C1.03755432 0.00565979 2.07510864 0.01131958 3.144104 0.01715088 C6.45591492 0.03953009 9.76664144 0.08973081 13.078125 0.140625 C15.32420312 0.16068794 17.57029821 0.17893906 19.81640625 0.1953125 C25.32072992 0.2394002 30.82424365 0.30843977 36.328125 0.390625 C36.328125 6.000625 36.328125 11.610625 36.328125 17.390625 C25.438125 17.390625 14.548125 17.390625 3.328125 17.390625 C3.658125 18.710625 3.988125 20.030625 4.328125 21.390625 C20.168125 21.885625 20.168125 21.885625 36.328125 22.390625 C36.328125 36.910625 36.328125 51.430625 36.328125 66.390625 C19.498125 66.390625 2.668125 66.390625 -14.671875 66.390625 C-14.671875 59.130625 -14.671875 51.870625 -14.671875 44.390625 C-8.731875 44.390625 -2.791875 44.390625 3.328125 44.390625 C3.658125 45.710625 3.988125 47.030625 4.328125 48.390625 C6.47389137 48.41748438 8.61975145 48.43695588 10.765625 48.453125 C11.96058594 48.46472656 13.15554688 48.47632813 14.38671875 48.48828125 C17.21685841 48.72964292 17.21685841 48.72964292 18.328125 47.390625 C18.658125 44.750625 18.988125 42.110625 19.328125 39.390625 C8.108125 39.390625 -3.111875 39.390625 -14.671875 39.390625 C-14.7637879 34.47839115 -14.84339343 29.56914748 -14.89160156 24.65673828 C-14.91169893 22.98638798 -14.93898183 21.31610787 -14.97363281 19.64599609 C-15.02223619 17.2429878 -15.04486156 14.84091066 -15.0625 12.4375 C-15.08314514 11.69256287 -15.10379028 10.94762573 -15.12506104 10.18011475 C-15.12643459 6.99574746 -14.85281837 4.72100936 -13.31445312 1.91210938 C-9.05257281 -0.5417005 -4.8256792 -0.0988928 0 0 Z " fill="#545455" transform="translate(672.671875,480.609375)"/>
<path d="M0 0 C0.82310165 -0.0071553 1.64620331 -0.01431061 2.49424744 -0.02168274 C4.22637861 -0.02943486 5.95860807 -0.02450039 7.69067383 -0.00756836 C10.33667222 0.01169566 12.97744037 -0.02779133 15.62304688 -0.07226562 C17.31120103 -0.07255594 18.99935999 -0.06941704 20.6875 -0.0625 C21.47407486 -0.07778244 22.26064972 -0.09306488 23.07106018 -0.10881042 C26.20226623 -0.04253397 28.39637884 0.00529438 30.90963745 1.98495483 C33.09446215 4.48076262 34.22893805 6.25388627 34.58984375 9.57421875 C34.48671875 10.27546875 34.38359375 10.97671875 34.27734375 11.69921875 C31.0546467 13.5128286 28.03927323 14.28619161 24.41796875 14.98828125 C23.30292969 15.20742188 22.18789062 15.4265625 21.0390625 15.65234375 C19.88019531 15.8740625 18.72132813 16.09578125 17.52734375 16.32421875 C15.76583984 16.66839844 15.76583984 16.66839844 13.96875 17.01953125 C11.07258486 17.58463664 8.1754795 18.14432405 5.27734375 18.69921875 C4.94734375 20.34921875 4.61734375 21.99921875 4.27734375 23.69921875 C5.52128906 23.48265625 6.76523438 23.26609375 8.046875 23.04296875 C26.79431871 19.8713096 26.79431871 19.8713096 34.27734375 20.69921875 C35.27734375 21.69921875 35.27734375 21.69921875 35.39759827 23.52784729 C35.39537766 24.32504684 35.39315704 25.1222464 35.39086914 25.94360352 C35.39074829 26.85710571 35.39062744 27.77060791 35.39050293 28.71179199 C35.38538696 29.67830688 35.380271 30.64482178 35.375 31.640625 C35.37399292 32.52423706 35.37298584 33.40784912 35.37194824 34.3182373 C35.36669906 37.63274424 35.35273792 40.94723274 35.33984375 44.26171875 C35.31921875 51.66609375 35.29859375 59.07046875 35.27734375 66.69921875 C18.77734375 66.69921875 2.27734375 66.69921875 -14.72265625 66.69921875 C-14.72265625 62.40921875 -14.72265625 58.11921875 -14.72265625 53.69921875 C-4.41996712 50.91031736 5.65880048 48.85871485 16.27734375 47.69921875 C16.27734375 45.71921875 16.27734375 43.73921875 16.27734375 41.69921875 C15.38015625 41.90417969 14.48296875 42.10914063 13.55859375 42.3203125 C12.31078125 42.58972656 11.06296875 42.85914063 9.77734375 43.13671875 C8.57078125 43.40355469 7.36421875 43.67039062 6.12109375 43.9453125 C-0.73500672 45.20869448 -7.77290073 45.34356851 -14.72265625 45.69921875 C-14.87120727 40.09427456 -14.97996701 34.49048077 -15.05224609 28.8840332 C-15.08238122 26.97790564 -15.12329822 25.07191633 -15.17529297 23.16625977 C-15.248256 20.42299288 -15.28214383 17.68156157 -15.30859375 14.9375 C-15.33956146 14.08835526 -15.37052917 13.23921051 -15.4024353 12.36433411 C-15.40495904 7.90670895 -15.15044832 6.2201148 -12.23120117 2.66552734 C-8.36274025 0.02008095 -4.56702039 -0.04065579 0 0 Z " fill="#555555" transform="translate(217.72265625,481.30078125)"/>
<path d="M0 0 C10.704375 -0.185625 10.704375 -0.185625 21.625 -0.375 C23.86748535 -0.42962402 26.1099707 -0.48424805 28.42041016 -0.54052734 C30.20993906 -0.5580609 31.99949199 -0.57334789 33.7890625 -0.5859375 C35.16807739 -0.6319812 35.16807739 -0.6319812 36.57495117 -0.67895508 C40.82972986 -0.68241144 44.16700924 -0.48647493 47.59936523 2.19555664 C51.64891167 7.05884045 50.75350037 13.47937645 50.62109375 19.45703125 C50.61497574 20.75573654 50.60885773 22.05444183 50.60255432 23.39250183 C50.58539286 26.83030404 50.53135567 30.26659475 50.47027588 33.70385742 C50.42651136 36.51945646 50.40909648 39.33493394 50.39300442 42.15080738 C50.35913436 47.95600827 50.30512008 53.76117186 50.20874023 59.56567383 C50.19286362 60.59348465 50.176987 61.62129547 50.16062927 62.68025208 C50 65 50 65 49 66 C43.06 66 37.12 66 31 66 C31 52.47 31 38.94 31 25 C29.35 25.33 27.7 25.66 26 26 C23.66698014 26.03824623 21.33288492 26.04574284 19 26 C19.00785522 27.76428345 19.00785522 27.76428345 19.01586914 29.56420898 C19.03391663 33.91202031 19.04543108 38.2598283 19.05493164 42.60766602 C19.05997244 44.4924373 19.06680498 46.37720465 19.07543945 48.26196289 C19.08751617 50.96501636 19.09323068 53.66801831 19.09765625 56.37109375 C19.10281754 57.21900986 19.10797882 58.06692596 19.11329651 58.9405365 C19.11349195 60.96071068 19.06206211 62.98077934 19 65 C18.67 65.33 18.34 65.66 18 66 C12.06 66 6.12 66 0 66 C0 44.22 0 22.44 0 0 Z " fill="#545454" transform="translate(288,482)"/>
<path d="M0 0 C0.84671265 -0.00574036 1.69342529 -0.01148071 2.5657959 -0.01739502 C4.35102015 -0.02146712 6.13633455 -0.01047046 7.92138672 0.01464844 C10.64884565 0.04678775 13.37038086 0.01494018 16.09765625 -0.0234375 C17.83595053 -0.01947245 19.57424114 -0.01178467 21.3125 0 C22.12408569 -0.01214539 22.93567139 -0.02429077 23.77185059 -0.0368042 C29.25585634 0.09890131 29.25585634 0.09890131 31.7819519 2.05709839 C36.15925923 7.05079308 36.56251632 12.30055284 36.15625 18.68359375 C35.00577592 25.66884578 29.23485277 29.43901961 23.88818359 33.45947266 C21.30671722 35.4528858 18.96837574 37.68922987 16.59375 39.921875 C13.89628645 42.40554295 11.52073454 44.31680697 8.15625 45.796875 C8.15625 46.456875 8.15625 47.116875 8.15625 47.796875 C9.05549194 47.78116455 9.05549194 47.78116455 9.97290039 47.76513672 C12.7214733 47.72324663 15.46997874 47.69744497 18.21875 47.671875 C19.16169922 47.65511719 20.10464844 47.63835938 21.07617188 47.62109375 C22.00107422 47.61464844 22.92597656 47.60820313 23.87890625 47.6015625 C24.72203369 47.59108887 25.56516113 47.58061523 26.43383789 47.56982422 C29.15625 47.796875 29.15625 47.796875 36.15625 49.796875 C36.15625 55.406875 36.15625 61.016875 36.15625 66.796875 C19.32625 66.796875 2.49625 66.796875 -14.84375 66.796875 C-14.84375 41.796875 -14.84375 41.796875 -7.96875 34.296875 C-3.84375 31.40234375 -3.84375 31.40234375 -1.78515625 30.08740234 C1.08716467 28.17806024 3.50065791 25.95237959 6.03125 23.609375 C6.81242187 22.91457031 7.59359375 22.21976562 8.3984375 21.50390625 C10.24097375 19.9025078 10.24097375 19.9025078 11.15625 17.796875 C2.22328041 19.65791033 -3.61178787 25.43200149 -10.1796875 31.4765625 C-11.84375 32.796875 -11.84375 32.796875 -13.84375 32.796875 C-13.98945522 28.58890814 -14.07796087 24.38159334 -14.15625 20.171875 C-14.19814453 18.98207031 -14.24003906 17.79226563 -14.28320312 16.56640625 C-14.29931641 15.41269531 -14.31542969 14.25898438 -14.33203125 13.0703125 C-14.35821533 12.01247559 -14.38439941 10.95463867 -14.41137695 9.86474609 C-12.81544912 1.23918516 -7.75346407 -0.11603065 0 0 Z " fill="#555555" transform="translate(500.84375,481.203125)"/>
<path d="M0 0 C1.795443 -0.02158492 3.59078062 -0.05569411 5.38574219 -0.10253906 C7.97695798 -0.16954299 10.56599914 -0.19699635 13.15795898 -0.21606445 C14.3566436 -0.25781044 14.3566436 -0.25781044 15.57954407 -0.30039978 C21.00152694 -0.28044725 21.00152694 -0.28044725 23.50614929 1.65534973 C27.85713424 6.62727243 28.3692534 11.85050062 27.96264648 18.2175293 C26.70374173 25.54573322 20.20192617 29.81329033 14.61938477 34.07739258 C12.43128542 35.75565552 10.37916099 37.56542724 8.32592773 39.4050293 C7.76776367 39.8794043 7.20959961 40.3537793 6.63452148 40.8425293 C4.29671398 42.93452706 2.10673774 45.18671929 -0.11157227 47.4050293 C9.12842773 47.4050293 18.36842773 47.4050293 27.88842773 47.4050293 C27.88842773 57.4050293 27.88842773 57.4050293 26.88842773 66.4050293 C10.71842773 66.4050293 -5.45157227 66.4050293 -22.11157227 66.4050293 C-22.25594727 62.4244043 -22.40032227 58.4437793 -22.54907227 54.3425293 C-22.61280029 53.10108154 -22.67652832 51.85963379 -22.7421875 50.58056641 C-22.8820753 42.5979368 -22.8820753 42.5979368 -20.65844727 39.15527344 C-18.90139167 37.38674453 -17.11476827 35.8847468 -15.11157227 34.4050293 C-14.41290039 33.76694336 -13.71422852 33.12885742 -12.99438477 32.47143555 C-12.41430664 31.97514648 -11.83422852 31.47885742 -11.23657227 30.9675293 C-10.57786133 30.39776367 -9.91915039 29.82799805 -9.24047852 29.2409668 C-8.53793945 28.63510742 -7.83540039 28.02924805 -7.11157227 27.4050293 C-5.46203452 25.97178165 -3.81619521 24.53426639 -2.17407227 23.0925293 C-1.42254883 22.43639648 -0.67102539 21.78026367 0.10327148 21.10424805 C1.9746697 19.51548081 1.9746697 19.51548081 2.88842773 17.4050293 C-4.13479846 18.08033951 -7.9416869 21.5366875 -12.80981445 26.33007812 C-15.73636478 29.20947307 -18.56210982 31.36413502 -22.11157227 33.4050293 C-22.22787009 29.00941891 -22.2988586 24.614205 -22.36157227 20.2175293 C-22.39508789 18.97165039 -22.42860352 17.72577148 -22.46313477 16.44213867 C-22.47602539 15.24008789 -22.48891602 14.03803711 -22.50219727 12.79956055 C-22.52314453 11.69459229 -22.5440918 10.58962402 -22.56567383 9.45117188 C-22.00829317 5.71222646 -20.71766646 4.08836129 -18.11157227 1.4050293 C-13.15133061 -1.07509153 -5.5161476 0.0498948 0 0 Z " fill="#555555" transform="translate(623.111572265625,481.594970703125)"/>
<path d="M0 0 C0.82072998 -0.00432541 1.64145996 -0.00865082 2.48706055 -0.0131073 C4.21508676 -0.01348726 5.9431945 0.00349133 7.67089844 0.03686523 C10.3063669 0.08192639 12.93478008 0.05760925 15.5703125 0.02539062 C17.25523369 0.03361136 18.94014106 0.04584699 20.625 0.0625 C21.79712036 0.0489875 21.79712036 0.0489875 22.99291992 0.03520203 C27.16608822 0.15989908 29.68506985 0.73579998 32.83203125 3.5793457 C34.81178923 5.85782017 35.30028897 6.83217361 35.8984375 9.88671875 C35.82882812 10.83804687 35.75921875 11.789375 35.6875 12.76953125 C35.63335937 13.73632812 35.57921875 14.703125 35.5234375 15.69921875 C35.45382812 16.42367188 35.38421875 17.148125 35.3125 17.89453125 C34.06376099 17.93211548 34.06376099 17.93211548 32.78979492 17.97045898 C29.69787167 18.06565819 26.60611148 18.16488797 23.5144043 18.2668457 C21.51946681 18.33140131 19.52438071 18.39130955 17.52929688 18.45117188 C16.27568359 18.49306641 15.02207031 18.53496094 13.73046875 18.578125 C12.57313232 18.61478271 11.4157959 18.65144043 10.22338867 18.68920898 C7.2481554 18.77781634 7.2481554 18.77781634 4.3125 19.89453125 C4.3125 21.21453125 4.3125 22.53453125 4.3125 23.89453125 C4.92996094 23.82234375 5.54742187 23.75015625 6.18359375 23.67578125 C7.03050781 23.58296875 7.87742187 23.49015625 8.75 23.39453125 C9.57371094 23.30171875 10.39742188 23.20890625 11.24609375 23.11328125 C15.25869286 22.82703214 19.28970369 22.89453125 23.3125 22.89453125 C23.3125 28.83453125 23.3125 34.77453125 23.3125 40.89453125 C20.92 41.38953125 18.5275 41.88453125 16.0625 42.39453125 C15.31581055 42.55115234 14.56912109 42.70777344 13.79980469 42.86914062 C10.53291203 43.53341466 7.66396046 43.89453125 4.3125 43.89453125 C4.6425 44.88453125 4.9725 45.87453125 5.3125 46.89453125 C20.1625 47.38953125 20.1625 47.38953125 35.3125 47.89453125 C35.3125 53.83453125 35.3125 59.77453125 35.3125 65.89453125 C18.8125 65.89453125 2.3125 65.89453125 -14.6875 65.89453125 C-14.8135706 58.45870022 -14.93372693 51.02677002 -14.9980011 43.59079742 C-15.02960043 40.12769037 -15.07177378 36.66547388 -15.14013672 33.20288086 C-15.21819714 29.22390742 -15.24698975 25.24528914 -15.2734375 21.265625 C-15.30440521 20.0330748 -15.33537292 18.8005246 -15.36727905 17.53062439 C-15.37103267 7.91707911 -15.37103267 7.91707911 -12.19384766 3.61474609 C-8.48637361 0.09195843 -4.93796023 -0.10936546 0 0 Z " fill="#535353" transform="translate(416.6875,481.10546875)"/>
<path d="M0 0 C0.80798035 -0.00807175 1.61596069 -0.01614349 2.44842529 -0.02445984 C4.16334883 -0.03831854 5.87830016 -0.04903267 7.59326172 -0.05688477 C10.20984764 -0.07405777 12.82515706 -0.11792098 15.44140625 -0.16210938 C17.10676153 -0.17223954 18.77212757 -0.18075463 20.4375 -0.1875 C21.60807953 -0.21376213 21.60807953 -0.21376213 22.80230713 -0.24055481 C26.57790564 -0.22557064 28.73408173 0.0765033 31.93701172 2.14672852 C34.82709886 5.09919411 35.89032577 6.89149631 36.1796875 11.03515625 C36.15648437 12.0096875 36.13328125 12.98421875 36.109375 13.98828125 C36.09132813 14.973125 36.07328125 15.95796875 36.0546875 16.97265625 C36.03148437 17.7203125 36.00828125 18.46796875 35.984375 19.23828125 C30.23442223 21.52195044 24.2195351 23.58286123 17.984375 22.23828125 C17.324375 21.24828125 16.664375 20.25828125 15.984375 19.23828125 C12.354375 18.57828125 8.724375 17.91828125 4.984375 17.23828125 C4.984375 26.80828125 4.984375 36.37828125 4.984375 46.23828125 C8.944375 46.56828125 12.904375 46.89828125 16.984375 47.23828125 C16.984375 45.58828125 16.984375 43.93828125 16.984375 42.23828125 C19.8971053 39.10149477 22.82467588 38.6307057 26.984375 38.23828125 C29.954375 38.23828125 32.924375 38.23828125 35.984375 38.23828125 C35.984375 47.14828125 35.984375 56.05828125 35.984375 65.23828125 C19.484375 65.23828125 2.984375 65.23828125 -14.015625 65.23828125 C-14.12056776 57.63809343 -14.2207196 50.04053802 -14.27437592 42.44025421 C-14.30074905 38.90085263 -14.33597204 35.36205247 -14.39282227 31.82299805 C-14.45768564 27.75954464 -14.48183232 23.69672527 -14.50390625 19.6328125 C-14.52971268 18.36806595 -14.5555191 17.1033194 -14.58210754 15.80024719 C-14.58523112 6.03349575 -14.58523112 6.03349575 -11.54760742 2.96362305 C-10.71205322 2.39426025 -9.87649902 1.82489746 -9.015625 1.23828125 C-6.97950665 -0.7978371 -2.79799272 0.02621309 0 0 Z " fill="#555555" transform="translate(359.015625,481.76171875)"/>
<path d="M0 0 C6.27 0 12.54 0 19 0 C19 22.11 19 44.22 19 67 C12.73 67 6.46 67 0 67 C0 44.89 0 22.78 0 0 Z " fill="#585858" transform="translate(262,481)"/>
<path d="M0 0 C0.04946121 5.62335936 0.08574868 11.2465919 0.10986328 16.87011719 C0.1199169 18.78290004 0.13356173 20.69566755 0.15087891 22.60839844 C0.17515522 25.35876252 0.1864895 28.10892328 0.1953125 30.859375 C0.20563507 31.71368103 0.21595764 32.56798706 0.22659302 33.44818115 C0.22674408 34.24870911 0.22689514 35.04923706 0.22705078 35.87402344 C0.231492 36.57573669 0.23593323 37.27744995 0.24050903 38.00042725 C-0.04513955 40.3752866 -0.75315236 41.9674462 -2 44 C-3.8125 44.79296875 -3.8125 44.79296875 -6 45.1875 C-6.70125 45.32542969 -7.4025 45.46335937 -8.125 45.60546875 C-12.40168699 46.19235107 -16.7046557 46.57046557 -21 47 C-21 32.48 -21 17.96 -21 3 C-16.71 2.34 -12.42 1.68 -8 1 C-5.29120665 -0.35439668 -2.99066732 -0.06501451 0 0 Z " fill="#FBFBFB" transform="translate(304,392)"/>
<path d="M0 0 C19.8 0 39.6 0 60 0 C60 0.66 60 1.32 60 2 C40.86 2 21.72 2 2 2 C2 35.66 2 69.32 2 104 C21.47 104 40.94 104 61 104 C61 104.33 61 104.66 61 105 C40.87 105 20.74 105 0 105 C0 70.35 0 35.7 0 0 Z " fill="#5E5E5E" transform="translate(254,363)"/>
<path d="M0 0 C0 8.25 0 16.5 0 25 C-4.68510114 26.87404046 -7.11476189 27.19157797 -12 27 C-13.30475618 24.39048764 -13.11301572 22.47298715 -13.09765625 19.5546875 C-13.09443359 18.47832031 -13.09121094 17.40195312 -13.08789062 16.29296875 C-13.07951172 15.16503906 -13.07113281 14.03710938 -13.0625 12.875 C-13.05798828 11.73933594 -13.05347656 10.60367187 -13.04882812 9.43359375 C-13.03701615 6.62234362 -13.02054507 3.8111977 -13 1 C-8.39452591 -0.15136852 -5.06005857 0 0 0 Z " fill="#F4F4F4" transform="translate(575,501)"/>
<path d="M0 0 C6.93 0 13.86 0 21 0 C21 4.62 21 9.24 21 14 C10.605 15.485 10.605 15.485 0 17 C0 11.39 0 5.78 0 0 Z " fill="#F6F6F6" transform="translate(642,392)"/>
<path d="M0 0 C6.93 0 13.86 0 21 0 C21 4.62 21 9.24 21 14 C19.98679688 14.13277344 18.97359375 14.26554687 17.9296875 14.40234375 C16.57811796 14.58067584 15.22655586 14.75906425 13.875 14.9375 C13.20984375 15.02451172 12.5446875 15.11152344 11.859375 15.20117188 C7.88758804 15.72684956 3.95446994 16.34092168 0 17 C0 11.39 0 5.78 0 0 Z " fill="#F7F7F7" transform="translate(150,392)"/>
<path d="M0 0 C6.6 0 13.2 0 20 0 C20.1953125 9.1796875 20.1953125 9.1796875 20 12 C16.57701818 15.42298182 11.93605811 15.91199736 7.25 16.125 C4.83297416 16.125 2.41609388 16.06711372 0 16 C0 10.72 0 5.44 0 0 Z " fill="#F8F8F8" transform="translate(555,391)"/>
<path d="M0 0 C5.50619612 3.26293103 5.50619612 3.26293103 6.55078125 6.9375 C6.82744925 11.11123436 6.30497544 12.6324655 3.5625 15.9375 C2.2940625 16.9584375 2.2940625 16.9584375 1 18 C0.67 18.33 0.34 18.66 0 19 C-3.75282712 19.42645763 -5.52552103 19.30194116 -8.75 17.25 C-12.16666667 13.83333333 -12.16666667 13.83333333 -13 11 C-13 6.70104676 -12.28072611 5.30031165 -9.3125 2.125 C-5.63517223 -0.23404045 -4.25205925 -0.88584568 0 0 Z " fill="#FAF8FE" transform="translate(460,155)"/>
<path d="M0 0 C0.66 0 1.32 0 2 0 C2 30.69 2 61.38 2 93 C10.25 93 18.5 93 27 93 C27 85.08 27 77.16 27 69 C27.33 69 27.66 69 28 69 C28 77.58 28 86.16 28 95 C18.76 95 9.52 95 0 95 C0 63.65 0 32.3 0 0 Z " fill="#616161" transform="translate(526,374)"/>
<path d="M0 0 C11.22 0 22.44 0 34 0 C34 2.64 34 5.28 34 8 C32 10 32 10 28.9609375 10.1953125 C27.77757812 10.17210937 26.59421875 10.14890625 25.375 10.125 C24.18648437 10.10695313 22.99796875 10.08890625 21.7734375 10.0703125 C20.85820313 10.04710937 19.94296875 10.02390625 19 10 C18.67 8.35 18.34 6.7 18 5 C12.06 5 6.12 5 0 5 C0 3.35 0 1.7 0 0 Z " fill="#B4B4B5" transform="translate(658,520)"/>
<path d="M0 0 C0.33 0 0.66 0 1 0 C1.80619396 29.34031408 2.12773653 58.64898311 2 88 C10.25 88 18.5 88 27 88 C27 81.4 27 74.8 27 68 C27.33 68 27.66 68 28 68 C28.91871033 75.4153048 29 82.45844387 29 90 C19.43 90 9.86 90 0 90 C0 60.3 0 30.6 0 0 Z " fill="#6A6A6A" transform="translate(614,379)"/>
<path d="M0 0 C1.32 0.33 2.64 0.66 4 1 C4 15.85 4 30.7 4 46 C-12.5 46 -29 46 -46 46 C-46 41.71 -46 37.42 -46 33 C-44.35 33 -42.7 33 -41 33 C-41.66 33.66 -42.32 34.32 -43 35 C-43.33 37.97 -43.66 40.94 -44 44 C-28.82 44 -13.64 44 2 44 C2 29.81 2 15.62 2 1 C1.34 0.67 0.68 0.34 0 0 Z " fill="#5E5E5E" transform="translate(249,502)"/>
<path d="M0 0 C0.66 0 1.32 0 2 0 C2.02312821 7.67536627 2.04091753 15.35072896 2.05181217 23.02612209 C2.05703995 26.58977422 2.06413569 30.15340257 2.07543945 33.71704102 C2.08834176 37.81006097 2.09322906 41.9030558 2.09765625 45.99609375 C2.10281754 47.28148544 2.10797882 48.56687714 2.11329651 49.89122009 C2.11340981 51.66294334 2.11340981 51.66294334 2.11352539 53.47045898 C2.115746 54.51636703 2.11796661 55.56227509 2.12025452 56.63987732 C2 59 2 59 1 60 C-4.94 60 -10.88 60 -17 60 C-17 47.13 -17 34.26 -17 21 C-16.67 21 -16.34 21 -16 21 C-15.17362576 33.35134354 -14.87649496 45.6220506 -15 58 C-10.05 58 -5.1 58 0 58 C0 38.86 0 19.72 0 0 Z " fill="#6C6C6C" transform="translate(336,488)"/>
<path d="M0 0 C1.97558594 0.88012695 1.97558594 0.88012695 4 3 C4.59666822 6.29781926 4.46347292 9.57654146 4.390625 12.91796875 C4.38496521 13.89034988 4.37930542 14.86273102 4.37347412 15.86457825 C4.35106929 18.972718 4.30086481 22.07970824 4.25 25.1875 C4.22994033 27.29360315 4.21168864 29.39972436 4.1953125 31.50585938 C4.15459107 36.67137287 4.07630761 41.83439872 4 47 C-5.24 47 -14.48 47 -24 47 C-24 35.78 -24 24.56 -24 13 C-23.67 13 -23.34 13 -23 13 C-23 23.56 -23 34.12 -23 45 C-14.75 45 -6.5 45 2 45 C1.8801923 39.07334243 1.75758112 33.14688413 1.62768555 27.22045898 C1.58434471 25.20389271 1.54266902 23.18728993 1.50268555 21.1706543 C1.44496253 18.27381383 1.38127378 15.37715694 1.31640625 12.48046875 C1.29969376 11.57725388 1.28298126 10.674039 1.26576233 9.74345398 C1.24581711 8.90280899 1.22587189 8.062164 1.20532227 7.19604492 C1.18200584 6.08684944 1.18200584 6.08684944 1.15821838 4.95524597 C1.06087775 2.7848329 1.06087775 2.7848329 0 0 Z " fill="#616161" transform="translate(688,422)"/>
<path d="M0 0 C6.27 0 12.54 0 19 0 C19 2.31 19 4.62 19 7 C14.71 7 10.42 7 6 7 C5.67 6.01 5.34 5.02 5 4 C2.49552484 2.78130071 2.49552484 2.78130071 0 2 C0 1.34 0 0.68 0 0 Z " fill="#FBFBFB" transform="translate(671,521)"/>
<path d="M0 0 C0.33 0 0.66 0 1 0 C1.82637424 12.35134354 2.12350504 24.6220506 2 37 C7.28 37.33 12.56 37.66 18 38 C18 38.33 18 38.66 18 39 C12.06 39 6.12 39 0 39 C0 26.13 0 13.26 0 0 Z " fill="#7C7C7C" transform="translate(319,509)"/>
<path d="M0 0 C0.33 0 0.66 0 1 0 C1.33 9.9 1.66 19.8 2 30 C-7.24 30 -16.48 30 -26 30 C-26 29.67 -26 29.34 -26 29 C-17.42 28.67 -8.84 28.34 0 28 C0 18.76 0 9.52 0 0 Z " fill="#636363" transform="translate(148,439)"/>
<path d="M0 0 C4.29 0 8.58 0 13 0 C13 0.66 13 1.32 13 2 C14.65 2.33 16.3 2.66 18 3 C18 3.33 18 3.66 18 4 C12.06 4 6.12 4 0 4 C0 2.68 0 1.36 0 0 Z " fill="#CCCCCC" transform="translate(658,521)"/>
<path d="M0 0 C0.33 0 0.66 0 1 0 C1 2.64 1 5.28 1 8 C1.66 8.33 2.32 8.66 3 9 C1.68 9.99 0.36 10.98 -1 12 C-1.02712066 10.56260487 -1.04645067 9.12506137 -1.0625 7.6875 C-1.07410156 6.88699219 -1.08570313 6.08648437 -1.09765625 5.26171875 C-1 3 -1 3 0 0 Z " fill="#4D4D4D" transform="translate(602,503)"/>
</svg>
